<?xml version="1.0" encoding="UTF-8" standalone="no"?>
<!-- Generated by Microsoft Visio, SVG Export barricade.svg Page-1 -->

<svg
   width="8.5in"
   height="11in"
   viewBox="0 0 612 792"
   xml:space="preserve"
   color-interpolation-filters="sRGB"
   class="st4"
   version="1.1"
   id="svg4742"
   sodipodi:docname="barricade.svg"
   inkscape:version="1.3 (0e150ed6c4, 2023-07-21)"
   xmlns:inkscape="http://www.inkscape.org/namespaces/inkscape"
   xmlns:sodipodi="http://sodipodi.sourceforge.net/DTD/sodipodi-0.dtd"
   xmlns="http://www.w3.org/2000/svg"
   xmlns:svg="http://www.w3.org/2000/svg"
   xmlns:rdf="http://www.w3.org/1999/02/22-rdf-syntax-ns#"
   xmlns:cc="http://creativecommons.org/ns#"
   xmlns:dc="http://purl.org/dc/elements/1.1/"
   xmlns:v="http://schemas.microsoft.com/visio/2003/SVGExtensions/"><metadata
   id="metadata4748"><rdf:RDF><cc:Work
       rdf:about=""><dc:format>image/svg+xml</dc:format><dc:type
         rdf:resource="http://purl.org/dc/dcmitype/StillImage" /></cc:Work></rdf:RDF></metadata><defs
   id="defs4746">&#10;		&#10;		&#10;		&#10;	</defs><sodipodi:namedview
   pagecolor="#ffffff"
   bordercolor="#666666"
   borderopacity="1"
   objecttolerance="10"
   gridtolerance="10"
   guidetolerance="10"
   inkscape:pageopacity="0"
   inkscape:pageshadow="2"
   inkscape:window-width="1920"
   inkscape:window-height="986"
   id="namedview4744"
   showgrid="false"
   inkscape:zoom="2.5284424"
   inkscape:cx="134.86564"
   inkscape:cy="135.06339"
   inkscape:window-x="-11"
   inkscape:window-y="-11"
   inkscape:window-maximized="1"
   inkscape:current-layer="svg4742"
   inkscape:showpageshadow="2"
   inkscape:pagecheckerboard="0"
   inkscape:deskcolor="#d1d1d1"
   inkscape:document-units="in" />&#10;	<v:documentProperties
   v:langID="1033"
   v:viewMarkup="false">&#10;		<v:userDefs>&#10;			<v:ud
   v:nameU="msvNoAutoConnect"
   v:val="VT0(1):26" />&#10;		</v:userDefs>&#10;	</v:documentProperties>&#10;&#10;	<style
   type="text/css"
   id="style4719">&#10;	<![CDATA[
		.st1 {stroke:#ffffff;stroke-linecap:round;stroke-linejoin:round;stroke-width:0.75}
		.st2 {fill:none;stroke:#ffffff;stroke-linecap:round;stroke-linejoin:round;stroke-width:0.75}
		.st3 {fill:#ffffff;font-family:Calibri;font-size:1.99999em}
		.st4 {fill:none;fill-rule:evenodd;font-size:12px;overflow:visible;stroke-linecap:square;stroke-miterlimit:3}
	]]>&#10;	</style>&#10;&#10;	<g
   id="group230-1"
   transform="rotate(-90,-330.6,420.6)"
   v:mID="230"
   v:groupContext="group"
   style="stroke:#ffffff;stroke-width:1.875;stroke-miterlimit:3;stroke-dasharray:none;stroke-opacity:1">&#10;			<title
   id="title4723">Barricade</title>&#10;			<g
   id="shape231-2"
   v:mID="231"
   v:groupContext="shape"
   transform="translate(0,-11.4)"
   style="stroke:#ffffff;stroke-width:1.875;stroke-miterlimit:3;stroke-dasharray:none;stroke-opacity:1">&#10;				<title
   id="title4725">Sheet.231</title>&#10;				<path
   d="M 0,792 H 72"
   class="st1"
   id="path4727"
   style="stroke:#ffffff;stroke-width:1.875;stroke-miterlimit:3;stroke-dasharray:none;stroke-opacity:1" />&#10;			</g>&#10;			<g
   id="shape232-5"
   v:mID="232"
   v:groupContext="shape"
   transform="translate(23.76)"
   style="stroke:#ffffff;stroke-width:1.875;stroke-miterlimit:3;stroke-dasharray:none;stroke-opacity:1">&#10;				<title
   id="title4730">Door.68</title>&#10;				<desc
   id="desc4732">B</desc>&#10;				<v:textBlock
   v:margins="rect(4,4,4,4)" />&#10;				<v:textRect
   cx="12.24"
   cy="780.6"
   width="24.48"
   height="22.8" />&#10;				&#10;				<g
   aria-label="B"
   style="font-size:23.9999px;font-family:Calibri;fill:#ffffff;stroke:#ffffff;stroke-width:1.875;stroke-miterlimit:3;stroke-dasharray:none;stroke-opacity:1"
   id="text4736"><path
     d="m 17.721659,783.45235 q 0,0.71484 -0.187499,1.32422 -0.175781,0.59765 -0.503904,1.07812 -0.328123,0.48046 -0.796871,0.84374 -0.457029,0.36328 -1.042964,0.60937 -0.574216,0.2461 -1.242181,0.375 -0.656247,0.11719 -1.511711,0.11719 H 8.4756112 q -0.2695299,0 -0.5156224,-0.17578 -0.2343739,-0.1875 -0.2343739,-0.64453 v -13.52337 q 0,-0.45703 0.2343739,-0.63281 0.2460925,-0.1875 0.5156224,-0.1875 h 3.4452948 q 1.359369,0 2.226552,0.25781 0.867183,0.25781 1.441399,0.75 0.585934,0.49218 0.878902,1.20702 0.292967,0.71484 0.292967,1.61718 0,0.53906 -0.128906,1.03125 -0.128905,0.49218 -0.386716,0.91406 -0.246093,0.41015 -0.63281,0.73827 -0.374998,0.32813 -0.867183,0.53906 0.621091,0.11719 1.16015,0.43359 0.53906,0.30469 0.937496,0.78516 0.410154,0.48046 0.644528,1.12499 0.234374,0.64453 0.234374,1.41796 z m -3.035141,-6.78512 q 0,-0.55078 -0.152343,-0.99609 -0.152343,-0.44531 -0.480467,-0.74999 -0.328123,-0.31641 -0.855464,-0.48047 -0.527341,-0.16406 -1.394524,-0.16406 H 9.7177925 v 4.91013 h 2.2968635 q 0.785152,0 1.265619,-0.19922 0.480466,-0.21093 0.796871,-0.55078 0.316404,-0.35156 0.457029,-0.80859 0.152343,-0.46874 0.152343,-0.96093 z m 0.914058,6.90231 q 0,-0.67968 -0.222656,-1.19531 -0.210936,-0.51562 -0.632809,-0.86718 -0.410154,-0.35156 -1.042963,-0.52734 -0.621091,-0.1875 -1.570305,-0.1875 H 9.7177925 v 5.34372 h 2.9296725 q 0.691403,0 1.207026,-0.16406 0.515622,-0.16406 0.902339,-0.48046 0.398435,-0.32813 0.62109,-0.80859 0.222656,-0.48047 0.222656,-1.11328 z"
     style="font-size:23.9999px;font-family:Calibri;fill:#ffffff;stroke:#ffffff;stroke-width:1.875;stroke-miterlimit:3;stroke-dasharray:none;stroke-opacity:1"
     id="path4751" /></g>			</g>&#10;		</g>&#10;</svg>
