<?xml version="1.0" encoding="UTF-8" standalone="no"?>
<svg
   xmlns:v="http://schemas.microsoft.com/visio/2003/SVGExtensions/"
   xmlns:dc="http://purl.org/dc/elements/1.1/"
   xmlns:cc="http://creativecommons.org/ns#"
   xmlns:rdf="http://www.w3.org/1999/02/22-rdf-syntax-ns#"
   xmlns:svg="http://www.w3.org/2000/svg"
   xmlns="http://www.w3.org/2000/svg"
   xmlns:sodipodi="http://sodipodi.sourceforge.net/DTD/sodipodi-0.dtd"
   xmlns:inkscape="http://www.inkscape.org/namespaces/inkscape"
   inkscape:version="1.0 (4035a4fb49, 2020-05-01)"
   sodipodi:docname="battery_scoop.svg"
   id="svg2194"
   version="1.1"
   class="st3"
   color-interpolation-filters="sRGB"
   xml:space="preserve"
   viewBox="0 0 612 792"
   height="11in"
   width="8.5in"><metadata
   id="metadata2200"><rdf:RDF><cc:Work
       rdf:about=""><dc:format>image/svg+xml</dc:format><dc:type
         rdf:resource="http://purl.org/dc/dcmitype/StillImage" /><dc:title></dc:title></cc:Work></rdf:RDF></metadata><defs
   id="defs2198"><rect
   id="rect891"
   height="49.849411"
   width="69.41647"
   y="845.80941"
   x="34.353528" /><rect
   id="rect879"
   height="41.929411"
   width="50.315294"
   y="797.82353"
   x="93.520587" /><rect
   id="rect869"
   height="32.267212"
   width="34.247238"
   y="761.80518"
   x="0.95579189" /><rect
   x="-11.244706"
   y="756.65118"
   width="55.148823"
   height="49.150588"
   id="rect3342" /><rect
   x="54.328234"
   y="803.47235"
   width="53.634705"
   height="40.881176"
   id="rect3331" /><rect
   x="-10.662354"
   y="767.19176"
   width="52.935882"
   height="40.298823"
   id="rect3325" />
		
		
		
	</defs><sodipodi:namedview
   inkscape:current-layer="shape83-1"
   inkscape:window-maximized="0"
   inkscape:window-y="173"
   inkscape:window-x="2874"
   inkscape:cy="87.363763"
   inkscape:cx="172.42237"
   inkscape:zoom="6.439394"
   showgrid="false"
   id="namedview2196"
   inkscape:window-height="1030"
   inkscape:window-width="1424"
   inkscape:pageshadow="2"
   inkscape:pageopacity="0"
   guidetolerance="10"
   gridtolerance="10"
   objecttolerance="10"
   borderopacity="1"
   bordercolor="#666666"
   pagecolor="#ffffff"
   inkscape:document-rotation="0" />
	<v:documentProperties
   v:viewMarkup="false"
   v:langID="1033">
		<v:userDefs>
			<v:ud
   v:val="VT0(1):26"
   v:nameU="msvNoAutoConnect" />
		</v:userDefs>
	</v:documentProperties>

	<style
   id="style2179"
   type="text/css">
	<![CDATA[
		.st1 {fill:none;stroke:#000000;stroke-linecap:round;stroke-linejoin:round;stroke-width:0.75}
		.st2 {fill:#000000;font-family:Calibri;font-size:1.00001em}
		.st3 {fill:none;fill-rule:evenodd;font-size:12px;overflow:visible;stroke-linecap:square;stroke-miterlimit:3}
	]]>
	</style>

	<g
   id="shape83-1"
   v:mID="83"
   v:groupContext="shape"
   transform="translate(18.291177,-752.63294)"
   style="stroke-width:2.25;stroke-miterlimit:4;stroke-dasharray:none">
			<title
   id="title2183">Refuge Alternative</title>
			<desc
   id="desc2185">RA</desc>
			<v:textBlock
   v:margins="rect(4,4,4,4)" />
			<v:textRect
   cx="10.8"
   cy="781.2"
   width="21.6"
   height="21.6" />
			
					<text
   xml:space="preserve"
   id="text3329"
   style="fill:black;fill-opacity:1;line-height:1.25;stroke:none;font-family:sans-serif;font-style:normal;font-weight:normal;font-size:30px;white-space:pre;shape-inside:url(#rect3331);" /><text
   xml:space="preserve"
   id="text3340"
   style="fill:#ffffff;fill-opacity:1;line-height:1.25;stroke:#ffffff;font-family:sans-serif;font-style:normal;font-weight:normal;font-size:30px;white-space:pre;shape-inside:url(#rect3342);stroke-opacity:1;" /><text
   style="fill:black;fill-opacity:1;line-height:1.25;stroke:none;font-family:Calibri;font-style:normal;font-weight:bold;font-size:30px;white-space:pre;shape-inside:url(#rect869);-inkscape-font-specification:'Calibri Bold';font-stretch:normal;font-variant:normal;"
   id="text867"
   xml:space="preserve" /><g
   style="font-style:normal;font-variant:normal;font-weight:normal;font-stretch:normal;font-size:30px;line-height:1.25;font-family:Calibri;-inkscape-font-specification:Calibri;white-space:pre;shape-inside:url(#rect891);fill:#ffffff;fill-opacity:1;stroke:#ffffff;stroke-opacity:1;stroke-width:1.6875;stroke-miterlimit:4;stroke-dasharray:none"
   id="text889"
   transform="translate(50.315294,-48.102353)"
   aria-label="BS"><path
     id="path895"
     style="font-style:normal;font-variant:normal;font-weight:normal;font-stretch:normal;font-family:Calibri;-inkscape-font-specification:Calibri;fill:#ffffff;fill-opacity:1;stroke:#ffffff;stroke-opacity:1;stroke-width:1.6875;stroke-miterlimit:4;stroke-dasharray:none"
     d="m 49.368164,866.62402 q 0,0.89356 -0.234375,1.65528 -0.219727,0.74707 -0.629883,1.34765 -0.410156,0.60059 -0.996094,1.05469 -0.571289,0.4541 -1.30371,0.76172 -0.717774,0.30762 -1.552735,0.46875 -0.820312,0.14648 -1.889648,0.14648 h -4.951172 q -0.336914,0 -0.644531,-0.21972 -0.292969,-0.23438 -0.292969,-0.80567 v -16.90429 q 0,-0.57129 0.292969,-0.79102 0.307617,-0.23437 0.644531,-0.23437 h 4.30664 q 1.699219,0 2.783204,0.32226 1.083984,0.32227 1.801757,0.9375 0.732422,0.61524 1.098633,1.50879 0.366211,0.89355 0.366211,2.02148 0,0.67383 -0.161133,1.28907 -0.161132,0.61523 -0.483398,1.14258 -0.307617,0.51269 -0.791016,0.92285 -0.46875,0.41015 -1.083984,0.67382 0.776367,0.14649 1.450195,0.542 0.673828,0.38086 1.171875,0.98144 0.512696,0.60059 0.805664,1.40625 0.292969,0.80567 0.292969,1.77246 z m -3.793945,-8.48144 q 0,-0.68848 -0.19043,-1.24512 -0.19043,-0.55664 -0.600586,-0.9375 -0.410156,-0.39551 -1.069336,-0.60059 -0.65918,-0.20507 -1.743164,-0.20507 h -2.607422 v 6.13769 h 2.871094 q 0.981445,0 1.582031,-0.24902 0.600586,-0.26367 0.996094,-0.68848 0.395508,-0.43945 0.571289,-1.01074 0.19043,-0.58594 0.19043,-1.20117 z m 1.142578,8.62793 q 0,-0.84961 -0.27832,-1.49414 -0.263672,-0.64453 -0.791016,-1.08399 -0.512695,-0.43945 -1.303711,-0.65918 -0.776367,-0.23437 -1.962891,-0.23437 h -3.017578 v 6.67969 h 3.66211 q 0.864257,0 1.508789,-0.20508 0.644531,-0.20508 1.127929,-0.60059 0.498047,-0.41015 0.776368,-1.01074 0.27832,-0.60059 0.27832,-1.3916 z" /><path
     id="path897"
     style="font-style:normal;font-variant:normal;font-weight:normal;font-stretch:normal;font-family:Calibri;-inkscape-font-specification:Calibri;fill:#ffffff;fill-opacity:1;stroke:#ffffff;stroke-opacity:1;stroke-width:1.6875;stroke-miterlimit:4;stroke-dasharray:none"
     d="m 63.401367,866.74121 q 0,1.33301 -0.498047,2.37305 -0.483398,1.04004 -1.362304,1.77246 -0.864258,0.71777 -2.050782,1.08398 -1.171875,0.36621 -2.534179,0.36621 -0.952149,0 -1.772461,-0.16113 -0.805664,-0.16113 -1.450196,-0.39551 -0.629882,-0.23437 -1.069336,-0.4834 -0.424804,-0.24902 -0.600585,-0.4248 -0.161133,-0.17578 -0.249024,-0.43945 -0.07324,-0.27832 -0.07324,-0.73242 0,-0.32227 0.0293,-0.52735 0.0293,-0.21973 0.08789,-0.35156 0.05859,-0.13184 0.146485,-0.17578 0.08789,-0.0586 0.205078,-0.0586 0.205078,0 0.571289,0.24903 0.380859,0.24902 0.966797,0.54199 0.585937,0.29297 1.40625,0.55664 0.834961,0.24902 1.918945,0.24902 0.820313,0 1.494141,-0.21972 0.688476,-0.21973 1.171875,-0.61524 0.498047,-0.41015 0.761719,-0.99609 0.263671,-0.58594 0.263671,-1.33301 0,-0.80566 -0.366211,-1.37695 -0.36621,-0.57129 -0.966796,-0.9961 -0.600586,-0.43945 -1.376954,-0.79101 -0.761718,-0.36621 -1.567382,-0.73242 -0.805664,-0.38086 -1.567383,-0.83496 -0.761719,-0.45411 -1.362305,-1.06934 -0.600586,-0.61523 -0.981445,-1.43555 -0.366211,-0.83496 -0.366211,-1.99218 0,-1.18653 0.424805,-2.10938 0.439453,-0.9375 1.201171,-1.56738 0.776368,-0.62989 1.831055,-0.95215 1.069336,-0.33691 2.299805,-0.33691 0.629883,0 1.259765,0.11718 0.644532,0.10254 1.201172,0.29297 0.571289,0.17578 1.010743,0.41016 0.439453,0.21972 0.571289,0.36621 0.146484,0.13183 0.190429,0.21973 0.04395,0.0732 0.07324,0.20507 0.0293,0.11719 0.04395,0.29297 0.01465,0.17578 0.01465,0.4541 0,0.26368 -0.0293,0.46875 -0.01465,0.20508 -0.05859,0.35157 -0.04395,0.13183 -0.131836,0.20507 -0.07324,0.0586 -0.175782,0.0586 -0.161132,0 -0.512695,-0.20508 -0.336914,-0.20508 -0.834961,-0.4541 -0.498047,-0.26367 -1.186523,-0.46875 -0.673828,-0.21973 -1.523438,-0.21973 -0.791015,0 -1.376953,0.21973 -0.585937,0.20508 -0.966797,0.55664 -0.380859,0.35156 -0.571289,0.83496 -0.19043,0.4834 -0.19043,1.02539 0,0.79102 0.366211,1.36231 0.366211,0.57128 0.966797,1.01074 0.615235,0.43945 1.391602,0.80566 0.776367,0.36621 1.582031,0.74707 0.805664,0.36621 1.582031,0.82031 0.776368,0.43946 1.376953,1.05469 0.615235,0.60059 0.981446,1.43555 0.380859,0.82031 0.380859,1.94824 z" /></g><rect
   y="797.76208"
   x="82.765915"
   height="33.496788"
   width="34.623814"
   id="rect902"
   style="fill:none;fill-opacity:1;stroke:#ffffff;stroke-width:2.25;stroke-linecap:round;stroke-linejoin:round;stroke-miterlimit:4;stroke-dasharray:none;stroke-opacity:1" /></g>
</svg>
