<?xml version="1.0" encoding="UTF-8" standalone="no"?>
<svg
   xmlns:v="http://schemas.microsoft.com/visio/2003/SVGExtensions/"
   xmlns:dc="http://purl.org/dc/elements/1.1/"
   xmlns:cc="http://creativecommons.org/ns#"
   xmlns:rdf="http://www.w3.org/1999/02/22-rdf-syntax-ns#"
   xmlns:svg="http://www.w3.org/2000/svg"
   xmlns="http://www.w3.org/2000/svg"
   xmlns:sodipodi="http://sodipodi.sourceforge.net/DTD/sodipodi-0.dtd"
   xmlns:inkscape="http://www.inkscape.org/namespaces/inkscape"
   inkscape:version="1.0 (4035a4fb49, 2020-05-01)"
   sodipodi:docname="brattice_cloth.svg"
   id="svg5332"
   version="1.1"
   class="st4"
   color-interpolation-filters="sRGB"
   xml:space="preserve"
   viewBox="0 0 22.35 18.75"
   height="0.260417in"
   width="0.310417in"><metadata
   id="metadata5338"><rdf:RDF><cc:Work
       rdf:about=""><dc:format>image/svg+xml</dc:format><dc:type
         rdf:resource="http://purl.org/dc/dcmitype/StillImage" /><dc:title></dc:title></cc:Work></rdf:RDF></metadata><defs
   id="defs5336">
			
			
			
		</defs><sodipodi:namedview
   inkscape:current-layer="g5330"
   inkscape:window-maximized="1"
   inkscape:window-y="-8"
   inkscape:window-x="1912"
   inkscape:cy="31.033817"
   inkscape:cx="27.063329"
   inkscape:zoom="12.020799"
   showgrid="false"
   id="namedview5334"
   inkscape:window-height="1017"
   inkscape:window-width="1920"
   inkscape:pageshadow="2"
   inkscape:pageopacity="0"
   guidetolerance="10"
   gridtolerance="10"
   objecttolerance="10"
   borderopacity="1"
   bordercolor="#666666"
   pagecolor="#ffffff" />
	<v:documentProperties
   v:viewMarkup="false"
   v:langID="1033" />

	<style
   id="style5309"
   type="text/css">
	<![CDATA[
		.st1 {fill:none;stroke:none;stroke-linecap:round;stroke-linejoin:round;stroke-width:0.75}
		.st2 {fill:#000000;font-family:Calibri;font-size:1.00001em}
		.st3 {fill:none;stroke:#000000;stroke-linecap:round;stroke-linejoin:round;stroke-width:0.75}
		.st4 {fill:none;fill-rule:evenodd;font-size:12px;overflow:visible;stroke-linecap:square;stroke-miterlimit:3}
	]]>
	</style>

	<g
   style="stroke-width:2.24999726;stroke-miterlimit:4;stroke-dasharray:none"
   id="g5330"
   v:groupContext="foregroundPage"
   v:index="1"
   v:mID="0">
		<title
   id="title5311">Page-1</title>
		<v:pageProperties
   v:shadowOffsetY="-9"
   v:shadowOffsetX="9"
   v:drawingUnits="19"
   v:pageScale="1"
   v:drawingScale="1" />
		<g
   id="shape169-2"
   v:mID="169"
   v:groupContext="shape"
   transform="translate(28.139343,9.1179128)"
   style="fill:#0000ff;stroke:none;stroke-width:2.25;stroke-miterlimit:4;stroke-dasharray:none;stroke-opacity:1">
				<title
   id="title5315">Sheet.169</title>
				<desc
   id="desc5317">BC</desc>
				<v:textBlock
   v:margins="rect(4,4,4,4)" />
				<v:textRect
   cx="10.8"
   cy="11.55"
   width="21.6"
   height="14.4" />
				
				<g
   class="st2"
   style="font-style:normal;font-variant:normal;font-weight:bold;font-stretch:normal;font-size:24px;font-family:Calibri;-inkscape-font-specification:'Calibri Bold';fill:#ffffff;stroke:none;stroke-width:2.25;stroke-miterlimit:4;stroke-dasharray:none;stroke-opacity:1;fill-opacity:1"
   id="text5321"
   aria-label="BC"><path
     id="path5918"
     style="font-style:normal;font-variant:normal;font-weight:bold;font-stretch:normal;font-size:24px;font-family:Calibri;-inkscape-font-specification:'Calibri Bold';fill:#ffffff;stroke:none;stroke-width:2.25;stroke-miterlimit:4;stroke-dasharray:none;stroke-opacity:1;fill-opacity:1"
     d="m 16.972813,10.603125 q 0,0.808593 -0.222657,1.464843 -0.222656,0.65625 -0.621093,1.160157 -0.386719,0.503906 -0.9375,0.867187 Q 14.6525,14.458593 13.99625,14.692968 13.34,14.927343 12.59,15.044531 11.851719,15.15 10.937656,15.15 H 6.9064064 q -0.3867187,0 -0.65625,-0.222657 -0.2578125,-0.234375 -0.2578125,-0.75 V 0.95859337 q 0,-0.515625 0.2578125,-0.73828125 0.2695313,-0.234375 0.65625,-0.234375 H 10.715 q 1.394531,0 2.355469,0.234375 0.972656,0.234375 1.628906,0.71484375 0.667969,0.46875003 1.019531,1.19531253 0.351563,0.7265625 0.351563,1.7109375 0,0.5507812 -0.140625,1.0429687 -0.140625,0.4804688 -0.410156,0.8789063 -0.269532,0.3984375 -0.667969,0.703125 -0.386719,0.3046875 -0.890625,0.4921875 0.644531,0.1171875 1.183594,0.4101562 0.550781,0.2929688 0.949218,0.7617188 0.410157,0.4570312 0.644532,1.078125 0.234375,0.6210937 0.234375,1.3945316 z M 12.988438,4.2164059 q 0,-0.4570313 -0.140625,-0.8203125 -0.140625,-0.3632813 -0.421875,-0.5976563 -0.28125,-0.2460937 -0.714844,-0.375 Q 11.289219,2.2945309 10.574375,2.2945309 H 9.0157814 v 3.9375 h 1.7226566 q 0.667968,0 1.066406,-0.1523438 0.398437,-0.1640625 0.65625,-0.4335937 0.269531,-0.28125 0.398437,-0.6445313 0.128907,-0.375 0.128907,-0.7851562 z m 0.785156,6.4921871 q 0,-0.527343 -0.175781,-0.9374996 Q 13.422031,9.3492184 13.082188,9.0679684 12.742344,8.7867184 12.215,8.6343746 11.687656,8.4820309 10.843906,8.4820309 H 9.0157814 v 4.3125001 h 2.2265626 q 0.644531,0 1.078125,-0.128906 0.445312,-0.140625 0.761719,-0.398438 0.328125,-0.269531 0.503906,-0.65625 0.1875,-0.398437 0.1875,-0.902344 z" /><path
     id="path5920"
     style="font-style:normal;font-variant:normal;font-weight:bold;font-stretch:normal;font-size:24px;font-family:Calibri;-inkscape-font-specification:'Calibri Bold';fill:#ffffff;stroke:none;stroke-width:2.25;stroke-miterlimit:4;stroke-dasharray:none;stroke-opacity:1;fill-opacity:1"
     d="m 29.93375,12.853125 q 0,0.292968 -0.02344,0.503906 -0.01172,0.199219 -0.04687,0.351562 -0.03516,0.140625 -0.09375,0.246094 -0.05859,0.105469 -0.1875,0.246094 -0.128907,0.128906 -0.503907,0.339844 -0.363281,0.210937 -0.902343,0.410156 -0.527344,0.1875 -1.21875,0.316406 -0.679688,0.128906 -1.476563,0.128906 -1.558594,0 -2.8125,-0.480468 -1.253906,-0.480469 -2.132812,-1.429688 -0.878907,-0.960937 -1.347657,-2.390625 -0.46875,-1.4296874 -0.46875,-3.3281249 0,-1.9335937 0.515625,-3.4335937 0.515625,-1.5 1.441407,-2.5195313 0.925781,-1.01953123 2.214843,-1.54687498 1.300782,-0.52734375 2.859375,-0.52734375 0.632813,0 1.21875,0.10546875 0.585938,0.10546875 1.078125,0.28125 0.503907,0.1640625 0.902344,0.38671875 0.398438,0.22265625 0.550781,0.38671875 0.164063,0.15234378 0.222657,0.25781248 0.05859,0.1054688 0.09375,0.2695313 0.03516,0.1640625 0.04687,0.3867187 0.02344,0.2226563 0.02344,0.5507813 0,0.3515625 -0.02344,0.5976562 -0.02344,0.2460938 -0.08203,0.3984375 -0.05859,0.1523438 -0.140625,0.2226563 -0.08203,0.070312 -0.1875,0.070312 -0.175781,0 -0.445312,-0.1992188 -0.26953,-0.210937 -0.703124,-0.4570307 -0.421875,-0.2578125 -1.019531,-0.4570313 -0.585938,-0.2109375 -1.40625,-0.2109375 -0.902344,0 -1.617188,0.375 -0.703125,0.3632813 -1.207031,1.0546875 -0.492188,0.6796875 -0.75,1.6523438 -0.257813,0.9726562 -0.257813,2.1914062 0,1.3359375 0.269532,2.3203125 0.28125,0.9726559 0.785156,1.6054689 0.515625,0.632812 1.230469,0.949219 0.726562,0.304687 1.628906,0.304687 0.820312,0 1.417969,-0.1875 0.597656,-0.199219 1.019531,-0.433594 0.433594,-0.234375 0.703125,-0.421875 0.28125,-0.1875 0.433594,-0.1875 0.117187,0 0.1875,0.04687 0.07031,0.04687 0.117187,0.1875 0.04687,0.140625 0.07031,0.398438 0.02344,0.246094 0.02344,0.667969 z" /></g>			</g><g
   id="shape170-5"
   v:mID="170"
   v:groupContext="shape"
   transform="matrix(1.8339035,0,0,1.8545309,29.266112,-1.4380341)"
   style="stroke:#ffffff;stroke-width:2.25;stroke-miterlimit:4;stroke-dasharray:none;stroke-opacity:1;fill:none;fill-opacity:1">
				<title
   id="title5324">Sheet.170</title>
				<circle
   cx="9"
   cy="9.75"
   class="st3"
   id="ellipse5326"
   style="stroke:#ffffff;stroke-width:2.25;stroke-miterlimit:4;stroke-dasharray:none;stroke-opacity:1;fill:none;fill-opacity:1"
   r="9" />
			</g>
	</g>
</svg>
