<?xml version="1.0" encoding="UTF-8" standalone="no"?>
<svg
   xmlns:v="http://schemas.microsoft.com/visio/2003/SVGExtensions/"
   xmlns:dc="http://purl.org/dc/elements/1.1/"
   xmlns:cc="http://creativecommons.org/ns#"
   xmlns:rdf="http://www.w3.org/1999/02/22-rdf-syntax-ns#"
   xmlns:svg="http://www.w3.org/2000/svg"
   xmlns="http://www.w3.org/2000/svg"
   xmlns:sodipodi="http://sodipodi.sourceforge.net/DTD/sodipodi-0.dtd"
   xmlns:inkscape="http://www.inkscape.org/namespaces/inkscape"
   width="8.5in"
   height="11in"
   viewBox="0 0 612 792"
   xml:space="preserve"
   color-interpolation-filters="sRGB"
   class="st4"
   version="1.1"
   id="svg64"
   sodipodi:docname="check_curtain.svg"
   inkscape:version="1.0 (4035a4fb49, 2020-05-01)"><metadata
   id="metadata70"><rdf:RDF><cc:Work
       rdf:about=""><dc:format>image/svg+xml</dc:format><dc:type
         rdf:resource="http://purl.org/dc/dcmitype/StillImage" /><dc:title></dc:title></cc:Work></rdf:RDF></metadata><defs
   id="defs68">
			
			
			
		</defs><sodipodi:namedview
   inkscape:document-rotation="0"
   pagecolor="#ffffff"
   bordercolor="#666666"
   borderopacity="1"
   objecttolerance="10"
   gridtolerance="10"
   guidetolerance="10"
   inkscape:pageopacity="0"
   inkscape:pageshadow="2"
   inkscape:window-width="1920"
   inkscape:window-height="1017"
   id="namedview66"
   showgrid="false"
   inkscape:zoom="4.5533391"
   inkscape:cx="15.800164"
   inkscape:cy="94.044393"
   inkscape:window-x="1912"
   inkscape:window-y="-8"
   inkscape:window-maximized="1"
   inkscape:current-layer="shape215-2" />
	<v:documentProperties
   v:langID="1033"
   v:viewMarkup="false">
		<v:userDefs>
			<v:ud
   v:nameU="msvNoAutoConnect"
   v:val="VT0(1):26" />
		</v:userDefs>
	</v:documentProperties>

	<style
   type="text/css"
   id="style41">
	<![CDATA[
		.st1 {stroke:#000000;stroke-linecap:round;stroke-linejoin:round;stroke-width:0.75}
		.st2 {fill:none;stroke:none;stroke-linecap:round;stroke-linejoin:round;stroke-width:0.75}
		.st3 {fill:#000000;font-family:Calibri;font-size:1.99999em}
		.st4 {fill:none;fill-rule:evenodd;font-size:12px;overflow:visible;stroke-linecap:square;stroke-miterlimit:3}
	]]>
	</style>

	<g
   v:mID="0"
   v:index="1"
   v:groupContext="foregroundPage"
   id="g62"
   style="stroke-width:2.25;stroke-miterlimit:4;stroke-dasharray:none">
		<title
   id="title43">Page-1</title>
		<v:pageProperties
   v:drawingScale="1"
   v:pageScale="1"
   v:drawingUnits="19"
   v:shadowOffsetX="9"
   v:shadowOffsetY="-9" />
		<g
   style="stroke:#ff0000;stroke-width:2.25;stroke-miterlimit:4;stroke-dasharray:none;stroke-opacity:1"
   transform="rotate(-90,-336.3,426.3)"
   v:groupContext="shape"
   v:mID="215"
   id="shape215-2">
				<title
   id="title47">Sheet.215</title>
				<path
   style="stroke:#ffffff;stroke-width:2.25;stroke-miterlimit:4;stroke-dasharray:none;stroke-opacity:1;fill:none;fill-opacity:1"
   id="path49"
   class="st1"
   d="M 0,792 H 72" />
			</g><g
   style="stroke-width:2.25;stroke-miterlimit:4;stroke-dasharray:none"
   transform="rotate(-90,-342.48,408.72)"
   v:groupContext="shape"
   v:mID="216"
   id="shape216-5">
				<title
   id="title52">Door.68</title>
				<desc
   id="desc54">C</desc>
				<v:textBlock
   v:margins="rect(4,4,4,4)" />
				<v:textRect
   height="22.8"
   width="24.48"
   cy="780.6"
   cx="12.24" />
				<rect
   style="stroke-width:2.25;stroke-miterlimit:4;stroke-dasharray:none"
   id="rect56"
   class="st2"
   height="22.799999"
   width="24.48"
   y="769.20001"
   x="0" />
				<g
   aria-label="C"
   id="text58"
   style="font-style:normal;font-variant:normal;font-weight:bold;font-stretch:normal;font-size:32px;font-family:Calibri;-inkscape-font-specification:'Calibri Bold';fill:#ffffff;fill-opacity:1;stroke-width:2.25;stroke-miterlimit:4;stroke-dasharray:none"
   class="st3"><path
     d="m 18.5685,787.70233 q 0,0.39063 -0.03125,0.67188 -0.01563,0.26562 -0.0625,0.46875 -0.04687,0.1875 -0.125,0.32812 -0.07813,0.14063 -0.25,0.32813 -0.171875,0.17187 -0.671875,0.45312 -0.484375,0.28125 -1.203125,0.54688 -0.703125,0.25 -1.625,0.42187 -0.90625,0.17188 -1.96875,0.17188 -2.078125,0 -3.7499997,-0.64063 -1.671875,-0.64062 -2.84375,-1.90625 -1.171875,-1.28125 -1.796875,-3.1875 -0.625,-1.90625 -0.625,-4.4375 0,-2.57812 0.6875,-4.57812 0.6875,-2 1.921875,-3.35938 1.234375,-1.35937 2.953125,-2.0625 1.7343747,-0.70312 3.8124997,-0.70312 0.84375,0 1.625,0.14062 0.78125,0.14063 1.4375,0.375 0.671875,0.21875 1.203125,0.51563 0.53125,0.29687 0.734375,0.51562 0.21875,0.20313 0.296875,0.34375 0.07813,0.14063 0.125,0.35938 0.04687,0.21875 0.0625,0.51562 0.03125,0.29688 0.03125,0.73438 0,0.46875 -0.03125,0.79687 -0.03125,0.32813 -0.109375,0.53125 -0.07813,0.20313 -0.1875,0.29688 -0.109375,0.0937 -0.25,0.0937 -0.234375,0 -0.59375,-0.26563 -0.359375,-0.28125 -0.9375,-0.60937 -0.5625,-0.34375 -1.359375,-0.60938 -0.78125,-0.28125 -1.875,-0.28125 -1.203125,0 -2.15625,0.5 -0.9375,0.48438 -1.6093747,1.40625 -0.65625,0.90625 -1,2.20313 -0.34375,1.29687 -0.34375,2.92187 0,1.78125 0.359375,3.09375 0.375,1.29688 1.046875,2.14063 0.6874997,0.84375 1.6406247,1.26562 0.96875,0.40625 2.171875,0.40625 1.09375,0 1.890625,-0.25 0.796875,-0.26562 1.359375,-0.57812 0.578125,-0.3125 0.9375,-0.5625 0.375,-0.25 0.578125,-0.25 0.15625,0 0.25,0.0625 0.09375,0.0625 0.15625,0.25 0.0625,0.1875 0.09375,0.53125 0.03125,0.32812 0.03125,0.89062 z"
     style="font-style:normal;font-variant:normal;font-weight:bold;font-stretch:normal;font-size:32px;font-family:Calibri;-inkscape-font-specification:'Calibri Bold';fill:#ffffff;fill-opacity:1;stroke-width:2.25;stroke-miterlimit:4;stroke-dasharray:none"
     id="path1583" /></g>			</g>
	</g>
</svg>
