<?xml version="1.0" encoding="UTF-8" standalone="no"?>
<svg
   xmlns:dc="http://purl.org/dc/elements/1.1/"
   xmlns:cc="http://creativecommons.org/ns#"
   xmlns:rdf="http://www.w3.org/1999/02/22-rdf-syntax-ns#"
   xmlns:svg="http://www.w3.org/2000/svg"
   xmlns="http://www.w3.org/2000/svg"
   xmlns:sodipodi="http://sodipodi.sourceforge.net/DTD/sodipodi-0.dtd"
   xmlns:inkscape="http://www.inkscape.org/namespaces/inkscape"
   inkscape:version="1.0 (4035a4fb49, 2020-05-01)"
   sodipodi:docname="date_initial.svg"
   id="svg1570"
   version="1.1"
   viewBox="0 0 210 297"
   height="297mm"
   width="210mm">
  <defs
     id="defs1564">
    <rect
       id="rect1574"
       height="41.577381"
       width="43.845238"
       y="12.85119"
       x="10.583333" />
  </defs>
  <sodipodi:namedview
     inkscape:window-maximized="1"
     inkscape:window-y="-8"
     inkscape:window-x="1912"
     inkscape:window-height="1017"
     inkscape:window-width="1920"
     showgrid="false"
     inkscape:document-rotation="0"
     inkscape:current-layer="layer1"
     inkscape:document-units="mm"
     inkscape:cy="102.10709"
     inkscape:cx="105.26912"
     inkscape:zoom="2.8"
     inkscape:pageshadow="2"
     inkscape:pageopacity="0.0"
     borderopacity="1.0"
     bordercolor="#666666"
     pagecolor="#ffffff"
     id="base" />
  <metadata
     id="metadata1567">
    <rdf:RDF>
      <cc:Work
         rdf:about="">
        <dc:format>image/svg+xml</dc:format>
        <dc:type
           rdf:resource="http://purl.org/dc/dcmitype/StillImage" />
        <dc:title></dc:title>
      </cc:Work>
    </rdf:RDF>
  </metadata>
  <g
     id="layer1"
     inkscape:groupmode="layer"
     inkscape:label="Layer 1">
    <g
       style="font-style:normal;font-variant:normal;font-weight:bold;font-stretch:normal;font-size:8.46667px;line-height:1.25;font-family:Calibri;-inkscape-font-specification:'Calibri Bold';white-space:pre;shape-inside:url(#rect1574);fill:#ffffff;fill-opacity:1;stroke:none"
       id="text1572"
       aria-label="DI">
      <path
         id="path5923"
         style="font-style:normal;font-variant:normal;font-weight:bold;font-stretch:normal;font-size:8.46667px;font-family:Calibri;-inkscape-font-specification:'Calibri Bold';fill:#ffffff"
         d="m 15.611067,17.506575 q 0,0.735873 -0.194303,1.260905 -0.190169,0.520899 -0.549837,0.851628 -0.359668,0.330729 -0.876432,0.487825 -0.512631,0.152962 -1.223698,0.152962 h -1.277442 q -0.136425,0 -0.23151,-0.07855 -0.09095,-0.08268 -0.09095,-0.264583 v -4.663281 q 0,-0.181901 0.09095,-0.260449 0.09509,-0.08268 0.23151,-0.08268 h 1.372526 q 0.715202,0 1.211296,0.169499 0.500228,0.165365 0.839225,0.496094 0.343132,0.326595 0.520899,0.810286 0.177766,0.483692 0.177766,1.120345 z m -1.124479,0.03721 q 0,-0.380338 -0.09095,-0.706933 -0.08682,-0.326595 -0.285254,-0.566374 -0.194303,-0.239779 -0.504362,-0.37207 -0.305924,-0.136426 -0.806152,-0.136426 H 12.250032 V 19.4 h 0.566374 q 0.446484,0 0.752409,-0.115756 0.305924,-0.115755 0.508496,-0.347265 0.206706,-0.235645 0.305924,-0.58291 0.103353,-0.347266 0.103353,-0.810287 z" />
      <path
         id="path5925"
         style="font-style:normal;font-variant:normal;font-weight:bold;font-stretch:normal;font-size:8.46667px;font-family:Calibri;-inkscape-font-specification:'Calibri Bold';fill:#ffffff"
         d="m 17.599576,20.111067 q 0,0.04134 -0.02894,0.07441 -0.02481,0.03307 -0.08682,0.05374 -0.06201,0.02067 -0.165364,0.03307 -0.103353,0.0124 -0.264584,0.0124 -0.157096,0 -0.264583,-0.0124 -0.103353,-0.0124 -0.165365,-0.03307 -0.06201,-0.02067 -0.09095,-0.05374 -0.02481,-0.03307 -0.02481,-0.07441 V 15.05918 q 0,-0.04134 0.02481,-0.07441 0.02894,-0.03307 0.09095,-0.05374 0.06615,-0.02067 0.169499,-0.03307 0.103353,-0.0124 0.260449,-0.0124 0.161231,0 0.264584,0.0124 0.103352,0.0124 0.165364,0.03307 0.06201,0.02067 0.08682,0.05374 0.02894,0.03307 0.02894,0.07441 z" />
    </g>
  </g>
</svg>
