<?xml version="1.0" encoding="UTF-8" standalone="no"?>
<svg
   xmlns:v="http://schemas.microsoft.com/visio/2003/SVGExtensions/"
   xmlns:dc="http://purl.org/dc/elements/1.1/"
   xmlns:cc="http://creativecommons.org/ns#"
   xmlns:rdf="http://www.w3.org/1999/02/22-rdf-syntax-ns#"
   xmlns:svg="http://www.w3.org/2000/svg"
   xmlns="http://www.w3.org/2000/svg"
   xmlns:sodipodi="http://sodipodi.sourceforge.net/DTD/sodipodi-0.dtd"
   xmlns:inkscape="http://www.inkscape.org/namespaces/inkscape"
   inkscape:version="1.0 (4035a4fb49, 2020-05-01)"
   sodipodi:docname="face.svg"
   id="svg6038"
   version="1.1"
   class="st4"
   color-interpolation-filters="sRGB"
   xml:space="preserve"
   viewBox="0 0 612 792"
   height="11in"
   width="8.5in"><metadata
   id="metadata6044"><rdf:RDF><cc:Work
       rdf:about=""><dc:format>image/svg+xml</dc:format><dc:type
         rdf:resource="http://purl.org/dc/dcmitype/StillImage" /></cc:Work></rdf:RDF></metadata><defs
   id="defs6042">
		
		
		
	
			
			
			
			
		</defs><sodipodi:namedview
   inkscape:current-layer="svg6038"
   inkscape:window-maximized="1"
   inkscape:window-y="-8"
   inkscape:window-x="1912"
   inkscape:cy="97.497737"
   inkscape:cx="79.972248"
   inkscape:zoom="4.5533391"
   showgrid="false"
   id="namedview6040"
   inkscape:window-height="1017"
   inkscape:window-width="1920"
   inkscape:pageshadow="2"
   inkscape:pageopacity="0"
   guidetolerance="10"
   gridtolerance="10"
   objecttolerance="10"
   borderopacity="1"
   bordercolor="#666666"
   pagecolor="#ffffff" />
	<v:documentProperties
   v:viewMarkup="false"
   v:langID="1033">
		<v:userDefs>
			<v:ud
   v:val="VT0(1):26"
   v:nameU="msvNoAutoConnect" />
		</v:userDefs>
	</v:documentProperties>

	<style
   id="style6010"
   type="text/css">
	<![CDATA[
		.st1 {stroke:#000000;stroke-linecap:round;stroke-linejoin:round;stroke-width:0.75}
		.st2 {fill:none;stroke:none;stroke-linecap:round;stroke-linejoin:round;stroke-width:0.75}
		.st3 {fill:#000000;font-family:Calibri;font-size:1.00001em}
		.st4 {fill:none;fill-rule:evenodd;font-size:12px;overflow:visible;stroke-linecap:square;stroke-miterlimit:3}
	]]>
	</style>

	<g
   style="stroke-width:2.25;stroke-miterlimit:4;stroke-dasharray:none;stroke:#ffffff;stroke-opacity:1"
   transform="rotate(45,930.57346,457.45615)"
   v:groupContext="shape"
   v:mID="165"
   id="shape165-2">
				<title
   id="title6016">Sheet.165</title>
				<path
   style="stroke-width:2.25;stroke-miterlimit:4;stroke-dasharray:none;stroke:#ffffff;stroke-opacity:1"
   id="path6018"
   class="st1"
   d="M 0,792 H 10.18" />
			</g><g
   style="stroke-width:2.25;stroke-miterlimit:4;stroke-dasharray:none;stroke:#ffffff;stroke-opacity:1"
   transform="rotate(135,178.17264,422.94781)"
   v:groupContext="shape"
   v:mID="166"
   id="shape166-5">
				<title
   id="title6021">Sheet.166</title>
				<path
   style="stroke-width:2.25;stroke-miterlimit:4;stroke-dasharray:none;stroke:#ffffff;stroke-opacity:1"
   id="path6023"
   class="st1"
   d="M 0,792 H 10.18" />
			</g><g
   transform="translate(18,-763.2)"
   v:groupContext="shape"
   v:mID="167"
   id="shape167-8">
				<title
   id="title6026">Sheet.167</title>
				<desc
   id="desc6028">Face</desc>
				<v:textBlock
   v:margins="rect(4,4,4,4)" />
				<v:textRect
   height="10.8"
   width="43.2"
   cy="786.6"
   cx="21.6" />
				<rect
   id="rect6030"
   class="st2"
   height="10.8"
   width="43.200001"
   y="781.20001"
   x="0" />
				<g
   class="st3"
   style="font-size:24px;font-family:Calibri;fill:#ffffff"
   id="text6032"
   aria-label="Face"><path
     id="path6633"
     style="font-style:normal;font-variant:normal;font-weight:bold;font-stretch:normal;font-size:24px;font-family:Calibri;-inkscape-font-specification:'Calibri Bold';fill:#ffffff"
     d="m 9.2448704,779.43115 q 0,0.35156 -0.035156,0.59766 -0.023437,0.23437 -0.09375,0.375 -0.058594,0.14062 -0.140625,0.21094 -0.082031,0.0703 -0.1875,0.0703 H 3.8308079 v 4.07812 h 4.6523437 q 0.1054688,0 0.1875,0.0586 0.082031,0.0586 0.140625,0.19922 0.070312,0.14062 0.09375,0.375 0.035156,0.23437 0.035156,0.58593 0,0.35157 -0.035156,0.58594 -0.023437,0.23438 -0.09375,0.38672 -0.058594,0.15234 -0.140625,0.22266 -0.082031,0.0586 -0.1875,0.0586 H 3.8308079 v 5.64844 q 0,0.1289 -0.070312,0.22265 -0.070312,0.0937 -0.2578125,0.16407 -0.1757813,0.0586 -0.46875,0.0937 -0.2929688,0.0352 -0.75,0.0352 -0.4453125,0 -0.75,-0.0352 -0.2929688,-0.0352 -0.46875,-0.0937 -0.17578129,-0.0703 -0.25781254,-0.16407 -0.0703125,-0.0937 -0.0703125,-0.22265 v -13.7461 q 0,-0.51562 0.2578125,-0.73828 0.26953124,-0.23437 0.65625004,-0.23437 h 7.1367187 q 0.1054688,0 0.1875,0.0703 0.082031,0.0586 0.140625,0.21094 0.070312,0.14062 0.09375,0.38672 0.035156,0.24609 0.035156,0.59765 z" /><path
     id="path6635"
     style="font-style:normal;font-variant:normal;font-weight:bold;font-stretch:normal;font-size:24px;font-family:Calibri;-inkscape-font-specification:'Calibri Bold';fill:#ffffff"
     d="m 19.826902,792.96631 q 0,0.16406 -0.117188,0.25781 -0.117187,0.0937 -0.375,0.12891 -0.246094,0.0469 -0.738281,0.0469 -0.527344,0 -0.773438,-0.0469 -0.234375,-0.0352 -0.339843,-0.12891 -0.09375,-0.0937 -0.09375,-0.25781 v -0.83203 q -0.644532,0.6914 -1.476563,1.07812 -0.820312,0.38672 -1.828125,0.38672 -0.832031,0 -1.535156,-0.22266 -0.691406,-0.21093 -1.207031,-0.63281 -0.503907,-0.43359 -0.785157,-1.0664 -0.28125,-0.63282 -0.28125,-1.47657 0,-0.91406 0.351563,-1.58203 0.363281,-0.67969 1.066406,-1.11328 0.714844,-0.44531 1.769531,-0.65625 1.054688,-0.21094 2.449219,-0.21094 h 1.019531 v -0.63281 q 0,-0.49219 -0.105468,-0.85547 -0.09375,-0.375 -0.328125,-0.62109 -0.222657,-0.2461 -0.609375,-0.36328 -0.375,-0.11719 -0.9375,-0.11719 -0.738282,0 -1.324219,0.16406 -0.574219,0.16406 -1.019531,0.36328 -0.445313,0.19922 -0.75,0.36328 -0.292969,0.16407 -0.480469,0.16407 -0.128906,0 -0.234375,-0.082 -0.09375,-0.082 -0.164063,-0.23438 -0.05859,-0.15234 -0.09375,-0.375 -0.03516,-0.22266 -0.03516,-0.49219 0,-0.36328 0.05859,-0.57422 0.05859,-0.21093 0.222656,-0.375 0.164063,-0.17578 0.574219,-0.375 0.410156,-0.21093 0.960937,-0.38671 0.550782,-0.17579 1.195313,-0.28125 0.65625,-0.11719 1.347656,-0.11719 1.230469,0 2.097656,0.24609 0.878907,0.23438 1.441407,0.73828 0.5625,0.49219 0.820312,1.27735 0.257813,0.78515 0.257813,1.86328 z m -2.894532,-4.47656 h -1.125 q -0.714843,0 -1.21875,0.10546 -0.503906,0.10547 -0.820312,0.31641 -0.316406,0.21094 -0.46875,0.51563 -0.140625,0.29296 -0.140625,0.67968 0,0.65625 0.410156,1.03125 0.421875,0.375 1.160156,0.375 0.621094,0 1.136719,-0.3164 0.527344,-0.31641 1.066406,-0.92578 z" /><path
     id="path6637"
     style="font-style:normal;font-variant:normal;font-weight:bold;font-stretch:normal;font-size:24px;font-family:Calibri;-inkscape-font-specification:'Calibri Bold';fill:#ffffff"
     d="m 30.690183,791.26709 q 0,0.30469 -0.02344,0.51562 -0.01172,0.19922 -0.04687,0.33985 -0.02344,0.14062 -0.07031,0.23437 -0.03516,0.082 -0.175781,0.22266 -0.140625,0.12891 -0.480469,0.32812 -0.339844,0.1875 -0.773438,0.33985 -0.433593,0.15234 -0.949218,0.24609 -0.503907,0.0937 -1.042969,0.0937 -1.207031,0 -2.144531,-0.375 -0.925782,-0.375 -1.558594,-1.10156 -0.632813,-0.73828 -0.960938,-1.79297 -0.316406,-1.05469 -0.316406,-2.41406 0,-1.57031 0.386719,-2.70703 0.398437,-1.14844 1.101562,-1.89844 0.703125,-0.75 1.664063,-1.11328 0.960937,-0.36328 2.109375,-0.36328 0.46875,0 0.914062,0.082 0.457032,0.082 0.84375,0.22265 0.398438,0.14063 0.703125,0.31641 0.316407,0.17578 0.445313,0.30469 0.128906,0.1289 0.175781,0.22265 0.05859,0.082 0.08203,0.22266 0.03516,0.14063 0.04687,0.35156 0.02344,0.19922 0.02344,0.49219 0,0.67969 -0.117188,0.96094 -0.117187,0.26953 -0.304687,0.26953 -0.199219,0 -0.421875,-0.16406 -0.222656,-0.16407 -0.527344,-0.36328 -0.304687,-0.19922 -0.726562,-0.36329 -0.421875,-0.16406 -1.007813,-0.16406 -1.148437,0 -1.757812,0.89063 -0.609375,0.8789 -0.609375,2.58984 0,0.84375 0.152343,1.48828 0.152344,0.64453 0.445313,1.07813 0.304687,0.43359 0.75,0.65625 0.457031,0.21093 1.054687,0.21093 0.609375,0 1.042969,-0.17578 0.445313,-0.1875 0.773438,-0.41015 0.328125,-0.22266 0.550781,-0.39844 0.222656,-0.1875 0.375,-0.1875 0.105469,0 0.175781,0.0586 0.07031,0.0586 0.105469,0.22266 0.04687,0.15234 0.07031,0.39844 0.02344,0.24609 0.02344,0.63281 z" /><path
     id="path6639"
     style="font-style:normal;font-variant:normal;font-weight:bold;font-stretch:normal;font-size:24px;font-family:Calibri;-inkscape-font-specification:'Calibri Bold';fill:#ffffff"
     d="m 42.467527,787.3999 q 0,0.53906 -0.246094,0.79688 -0.234375,0.25781 -0.65625,0.25781 h -6.363281 q 0,0.66797 0.152343,1.21875 0.164063,0.53906 0.503907,0.92578 0.351562,0.375 0.890625,0.57422 0.550781,0.19922 1.3125,0.19922 0.773437,0 1.359375,-0.10547 0.585937,-0.11719 1.007812,-0.24609 0.433594,-0.14063 0.714844,-0.2461 0.28125,-0.11719 0.457031,-0.11719 0.105469,0 0.175781,0.0469 0.07031,0.0352 0.117188,0.14062 0.04687,0.10547 0.05859,0.30469 0.02344,0.1875 0.02344,0.48047 0,0.25781 -0.01172,0.44531 -0.01172,0.17578 -0.03516,0.30469 -0.02344,0.12891 -0.07031,0.22266 -0.04687,0.082 -0.128907,0.16406 -0.07031,0.082 -0.410156,0.22266 -0.339844,0.14062 -0.867187,0.28125 -0.527344,0.1289 -1.207032,0.22265 -0.679687,0.10547 -1.453125,0.10547 -1.394531,0 -2.449218,-0.35156 -1.042969,-0.35156 -1.746094,-1.06641 -0.703125,-0.71484 -1.054688,-1.80469 -0.339843,-1.08984 -0.339843,-2.55468 0,-1.39453 0.363281,-2.50782 0.363281,-1.125 1.054687,-1.89843 0.691407,-0.78516 1.675782,-1.19532 0.996093,-0.41015 2.238281,-0.41015 1.3125,0 2.238281,0.38672 0.9375,0.38672 1.535156,1.07812 0.597657,0.67969 0.878907,1.61719 0.28125,0.9375 0.28125,2.03906 z m -2.859375,-0.84375 q 0.03516,-1.24219 -0.503907,-1.94531 -0.527343,-0.71484 -1.640625,-0.71484 -0.5625,0 -0.984375,0.21093 -0.410156,0.21094 -0.691406,0.57422 -0.269531,0.35156 -0.421875,0.84375 -0.140625,0.48047 -0.164062,1.03125 z" /></g>			</g>
</svg>
