<?xml version="1.0" encoding="UTF-8" standalone="no"?>
<svg
   xmlns:dc="http://purl.org/dc/elements/1.1/"
   xmlns:cc="http://creativecommons.org/ns#"
   xmlns:rdf="http://www.w3.org/1999/02/22-rdf-syntax-ns#"
   xmlns:svg="http://www.w3.org/2000/svg"
   xmlns="http://www.w3.org/2000/svg"
   xmlns:sodipodi="http://sodipodi.sourceforge.net/DTD/sodipodi-0.dtd"
   xmlns:inkscape="http://www.inkscape.org/namespaces/inkscape"
   sodipodi:docname="FPA.svg"
   inkscape:version="1.0 (4035a4fb49, 2020-05-01)"
   id="svg8"
   version="1.1"
   viewBox="0 0 210 297"
   height="297mm"
   width="210mm">
  <defs
     id="defs2">
    <rect
       id="rect1927"
       height="12.095238"
       width="17.292411"
       y="12.189732"
       x="25.513393" />
    <rect
       id="rect946"
       height="13.229167"
       width="21.450149"
       y="41.293899"
       x="42.333333" />
    <rect
       id="rect853"
       height="43.319856"
       width="69.838856"
       y="796.77637"
       x="8.5572511" />
    <rect
       id="rect847"
       height="39.366714"
       width="65.062142"
       y="795.9528"
       x="7.7336797" />
    <pattern
       id="pattern959"
       patternTransform="translate(112.72625,96.190568)"
       height="15.304717"
       width="34.777041"
       patternUnits="userSpaceOnUse">
      <g
         aria-label="FPA"
         transform="matrix(3.7795276,0,0,3.7795276,-161.65483,-175.83343)"
         id="text944"
         style="font-weight:bold;font-size:10.5833px;line-height:1.25;font-family:Calibri;-inkscape-font-specification:'Calibri Bold';white-space:pre;shape-inside:url(#rect946)">
        <path
           d="m 45.022192,46.876061 q 0,0.09302 -0.0093,0.15813 -0.0062,0.06201 -0.02481,0.09922 -0.0155,0.03721 -0.03721,0.05581 -0.0217,0.0186 -0.04961,0.0186 h -1.311547 v 1.079004 h 1.230932 q 0.02791,0 0.04961,0.0155 0.0217,0.0155 0.03721,0.05271 0.0186,0.03721 0.0248,0.09922 0.0093,0.06201 0.0093,0.15503 0,0.09302 -0.0093,0.155029 -0.0062,0.06201 -0.0248,0.102319 -0.0155,0.04031 -0.03721,0.05891 -0.0217,0.0155 -0.04961,0.0155 h -1.230932 v 1.494483 q 0,0.03411 -0.0186,0.05891 -0.0186,0.0248 -0.06821,0.04341 -0.04651,0.0155 -0.124023,0.02481 -0.07751,0.0093 -0.198438,0.0093 -0.117822,0 -0.198437,-0.0093 -0.07752,-0.0093 -0.124024,-0.02481 -0.04651,-0.0186 -0.06821,-0.04341 -0.0186,-0.02481 -0.0186,-0.05891 v -3.636988 q 0,-0.136425 0.06821,-0.195336 0.07131,-0.06201 0.173633,-0.06201 h 1.888256 q 0.02791,0 0.04961,0.0186 0.0217,0.0155 0.03721,0.05581 0.0186,0.03721 0.02481,0.102319 0.0093,0.06511 0.0093,0.15813 z"
           style="font-size:6.35px"
           id="path952" />
        <path
           d="m 48.432837,47.759728 q 0,0.337964 -0.10542,0.598413 -0.10542,0.260449 -0.306958,0.440283 -0.201538,0.176734 -0.496094,0.269751 -0.291455,0.09302 -0.68833,0.09302 h -0.334863 v 1.280542 q 0,0.03101 -0.0217,0.05581 -0.0186,0.02481 -0.06511,0.04031 -0.04651,0.0155 -0.124023,0.02481 -0.07751,0.0093 -0.198437,0.0093 -0.117823,0 -0.198438,-0.0093 -0.07751,-0.0093 -0.124023,-0.02481 -0.04651,-0.0155 -0.06511,-0.04031 -0.0186,-0.0248 -0.0186,-0.05581 v -3.609082 q 0,-0.145728 0.07441,-0.217041 0.07751,-0.07441 0.201538,-0.07441 h 0.945679 q 0.142627,0 0.269751,0.0124 0.130224,0.0093 0.310058,0.04651 0.179834,0.03411 0.362769,0.130225 0.186035,0.09612 0.316259,0.244946 0.130225,0.145727 0.198438,0.344165 0.06821,0.195337 0.06821,0.440283 z m -0.852661,0.05891 q 0,-0.21084 -0.07441,-0.347265 -0.07441,-0.136426 -0.182935,-0.201539 -0.10852,-0.06511 -0.229443,-0.08062 -0.117823,-0.0186 -0.244947,-0.0186 h -0.347265 v 1.361157 h 0.365869 q 0.195337,0 0.325562,-0.05271 0.133325,-0.05271 0.217041,-0.145728 0.08371,-0.09612 0.127124,-0.226342 0.04341,-0.133326 0.04341,-0.288355 z"
           style="font-size:6.35px"
           id="path954" />
        <path
           d="m 51.924096,50.249499 q 0.03721,0.111621 0.04651,0.176733 0.0093,0.06511 -0.02481,0.09922 -0.03411,0.03101 -0.120923,0.03721 -0.08682,0.0093 -0.238745,0.0093 -0.15813,0 -0.248046,-0.0062 -0.08682,-0.0031 -0.133326,-0.0155 -0.04651,-0.0155 -0.06511,-0.04031 -0.0186,-0.02481 -0.03101,-0.06511 L 50.838885,49.63869 H 49.332 l -0.254248,0.784448 q -0.0124,0.04341 -0.03411,0.07441 -0.0186,0.02791 -0.06511,0.04651 -0.04341,0.0155 -0.127124,0.0217 -0.08062,0.0062 -0.213941,0.0062 -0.142627,0 -0.223242,-0.0093 -0.08062,-0.0093 -0.111621,-0.04341 -0.03101,-0.03721 -0.0217,-0.102319 0.0093,-0.06511 0.04651,-0.173633 l 1.237133,-3.559472 q 0.0186,-0.05271 0.04341,-0.08372 0.0248,-0.03411 0.07751,-0.04961 0.05581,-0.0186 0.151929,-0.0217 0.09612,-0.0062 0.254248,-0.0062 0.182935,0 0.291455,0.0062 0.108521,0.0031 0.167432,0.0217 0.06201,0.0155 0.08682,0.04961 0.02791,0.03411 0.04651,0.09302 z m -1.841748,-2.942456 h -0.0031 l -0.567408,1.705322 h 1.137915 z"
           style="font-size:6.35px"
           id="path956" />
      </g>
    </pattern>
  </defs>
  <sodipodi:namedview
     inkscape:window-maximized="0"
     inkscape:window-y="96"
     inkscape:window-x="2496"
     inkscape:window-height="1030"
     inkscape:window-width="1424"
     showgrid="false"
     inkscape:document-rotation="0"
     inkscape:current-layer="layer1"
     inkscape:document-units="mm"
     inkscape:cy="152.98431"
     inkscape:cx="205.44535"
     inkscape:zoom="2.8"
     inkscape:pageshadow="2"
     inkscape:pageopacity="0.0"
     borderopacity="1.0"
     bordercolor="#666666"
     pagecolor="#ffffff"
     id="base" />
  <metadata
     id="metadata5">
    <rdf:RDF>
      <cc:Work
         rdf:about="">
        <dc:format>image/svg+xml</dc:format>
        <dc:type
           rdf:resource="http://purl.org/dc/dcmitype/StillImage" />
        <dc:title></dc:title>
      </cc:Work>
    </rdf:RDF>
  </metadata>
  <g
     id="layer1"
     inkscape:groupmode="layer"
     inkscape:label="Layer 1">
    <g
       style="font-weight:bold;font-size:10.5833px;line-height:1.25;font-family:Calibri;-inkscape-font-specification:'Calibri Bold';white-space:pre;shape-inside:url(#rect1927);fill:#ffffff;fill-opacity:1"
       id="text1925"
       aria-label="FPA">
      <path
         id="path1931"
         style="font-style:normal;font-variant:normal;font-weight:bold;font-stretch:normal;font-size:6.35px;font-family:Calibri;-inkscape-font-specification:'Calibri Bold';fill:#ffffff;fill-opacity:1"
         d="m 28.20188,17.772545 q 0,0.09302 -0.0093,0.15813 -0.0062,0.06201 -0.02481,0.09922 -0.0155,0.03721 -0.03721,0.05581 -0.0217,0.0186 -0.04961,0.0186 h -1.311548 v 1.079004 h 1.230933 q 0.02791,0 0.04961,0.0155 0.0217,0.0155 0.03721,0.05271 0.0186,0.03721 0.02481,0.09922 0.0093,0.06201 0.0093,0.155029 0,0.09302 -0.0093,0.155029 -0.0062,0.06201 -0.02481,0.10232 -0.0155,0.04031 -0.03721,0.05891 -0.0217,0.0155 -0.04961,0.0155 h -1.230933 v 1.494482 q 0,0.03411 -0.0186,0.05891 -0.0186,0.02481 -0.06821,0.04341 -0.04651,0.0155 -0.124024,0.02481 -0.07751,0.0093 -0.198437,0.0093 -0.117822,0 -0.198438,-0.0093 -0.07751,-0.0093 -0.124023,-0.02481 -0.04651,-0.0186 -0.06821,-0.04341 -0.0186,-0.02481 -0.0186,-0.05891 v -3.636987 q 0,-0.136426 0.06821,-0.195337 0.07131,-0.06201 0.173633,-0.06201 h 1.888257 q 0.0279,0 0.04961,0.0186 0.0217,0.0155 0.03721,0.05581 0.0186,0.03721 0.02481,0.10232 0.0093,0.06511 0.0093,0.158129 z" />
      <path
         id="path1933"
         style="font-style:normal;font-variant:normal;font-weight:bold;font-stretch:normal;font-size:6.35px;font-family:Calibri;-inkscape-font-specification:'Calibri Bold';fill:#ffffff;fill-opacity:1"
         d="m 31.612524,18.656212 q 0,0.337964 -0.10542,0.598413 -0.105419,0.26045 -0.306958,0.440284 -0.201538,0.176733 -0.496093,0.269751 -0.291455,0.09302 -0.68833,0.09302 h -0.334864 v 1.280542 q 0,0.03101 -0.0217,0.05581 -0.0186,0.0248 -0.06511,0.04031 -0.04651,0.0155 -0.124023,0.02481 -0.07752,0.0093 -0.198438,0.0093 -0.117822,0 -0.198437,-0.0093 -0.07752,-0.0093 -0.124024,-0.02481 -0.04651,-0.0155 -0.06511,-0.04031 -0.0186,-0.02481 -0.0186,-0.05581 v -3.609082 q 0,-0.145727 0.07441,-0.217041 0.07752,-0.07441 0.201538,-0.07441 h 0.945679 q 0.142627,0 0.269751,0.0124 0.130225,0.0093 0.310059,0.04651 0.179834,0.03411 0.362768,0.130225 0.186035,0.09612 0.31626,0.244946 0.130225,0.145728 0.198437,0.344165 0.06821,0.195337 0.06821,0.440283 z m -0.852661,0.05891 q 0,-0.21084 -0.07441,-0.347266 -0.07441,-0.136426 -0.182934,-0.201538 -0.108521,-0.06511 -0.229444,-0.08061 -0.117822,-0.0186 -0.244946,-0.0186 h -0.347266 v 1.361157 h 0.365869 q 0.195337,0 0.325562,-0.05271 0.133325,-0.05271 0.217041,-0.145727 0.08372,-0.09612 0.127124,-0.226343 0.04341,-0.133325 0.04341,-0.288354 z" />
      <path
         id="path1935"
         style="font-style:normal;font-variant:normal;font-weight:bold;font-stretch:normal;font-size:6.35px;font-family:Calibri;-inkscape-font-specification:'Calibri Bold';fill:#ffffff;fill-opacity:1"
         d="m 35.103784,21.145983 q 0.03721,0.111621 0.04651,0.176733 0.0093,0.06511 -0.02481,0.09922 -0.03411,0.03101 -0.120923,0.03721 -0.08682,0.0093 -0.238745,0.0093 -0.15813,0 -0.248047,-0.0062 -0.08682,-0.0031 -0.133325,-0.0155 -0.04651,-0.0155 -0.06511,-0.04031 -0.0186,-0.0248 -0.03101,-0.06511 l -0.269751,-0.806153 h -1.506885 l -0.254248,0.784449 q -0.0124,0.04341 -0.03411,0.07441 -0.0186,0.02791 -0.06511,0.04651 -0.04341,0.0155 -0.127124,0.0217 -0.08062,0.0062 -0.21394,0.0062 -0.142627,0 -0.223242,-0.0093 -0.08062,-0.0093 -0.111622,-0.04341 -0.03101,-0.03721 -0.0217,-0.102319 0.0093,-0.06511 0.04651,-0.173633 l 1.237134,-3.559473 q 0.0186,-0.05271 0.04341,-0.08372 0.02481,-0.03411 0.07751,-0.04961 0.05581,-0.0186 0.151928,-0.0217 0.09612,-0.0062 0.254248,-0.0062 0.182935,0 0.291456,0.0062 0.10852,0.0031 0.167431,0.0217 0.06201,0.0155 0.08682,0.04961 0.0279,0.03411 0.04651,0.09302 z m -1.841748,-2.942456 h -0.0031 l -0.567407,1.705322 h 1.137915 z" />
    </g>
  </g>
  <style
     type="text/css"
     id="style833">
	<![CDATA[
		.st1 {fill:none;stroke:#000000;stroke-linecap:round;stroke-linejoin:round;stroke-width:0.75}
		.st2 {fill:#000000;font-family:Calibri;font-size:1.00001em}
		.st3 {fill:none;fill-rule:evenodd;font-size:12px;overflow:visible;stroke-linecap:square;stroke-miterlimit:3}
	]]>
	</style>
  <style
     type="text/css"
     id="style2179">
	<![CDATA[
		.st1 {fill:none;stroke:#000000;stroke-linecap:round;stroke-linejoin:round;stroke-width:0.75}
		.st2 {fill:#000000;font-family:Calibri;font-size:1.00001em}
		.st3 {fill:none;fill-rule:evenodd;font-size:12px;overflow:visible;stroke-linecap:square;stroke-miterlimit:3}
	]]>
	</style>
  <style
     id="style2179-6"
     type="text/css">
	<![CDATA[
		.st1 {fill:none;stroke:#000000;stroke-linecap:round;stroke-linejoin:round;stroke-width:0.75}
		.st2 {fill:#000000;font-family:Calibri;font-size:1.00001em}
		.st3 {fill:none;fill-rule:evenodd;font-size:12px;overflow:visible;stroke-linecap:square;stroke-miterlimit:3}
	]]>
	</style>
</svg>
