<?xml version="1.0" encoding="UTF-8" standalone="no"?>
<svg
   xmlns:v="http://schemas.microsoft.com/visio/2003/SVGExtensions/"
   xmlns:dc="http://purl.org/dc/elements/1.1/"
   xmlns:cc="http://creativecommons.org/ns#"
   xmlns:rdf="http://www.w3.org/1999/02/22-rdf-syntax-ns#"
   xmlns:svg="http://www.w3.org/2000/svg"
   xmlns="http://www.w3.org/2000/svg"
   xmlns:sodipodi="http://sodipodi.sourceforge.net/DTD/sodipodi-0.dtd"
   xmlns:inkscape="http://www.inkscape.org/namespaces/inkscape"
   inkscape:version="1.0 (4035a4fb49, 2020-05-01)"
   sodipodi:docname="FreshAirBase.svg"
   id="svg2194"
   version="1.1"
   class="st3"
   color-interpolation-filters="sRGB"
   xml:space="preserve"
   viewBox="0 0 612 792"
   height="11in"
   width="8.5in"><metadata
   id="metadata2200"><rdf:RDF><cc:Work
       rdf:about=""><dc:format>image/svg+xml</dc:format><dc:type
         rdf:resource="http://purl.org/dc/dcmitype/StillImage" /><dc:title></dc:title></cc:Work></rdf:RDF></metadata><defs
   id="defs2198"><rect
   id="rect853"
   height="43.319856"
   width="69.838856"
   y="796.77637"
   x="8.5572511" /><rect
   id="rect847"
   height="39.366714"
   width="65.062142"
   y="795.9528"
   x="7.7336797" />
		
		
		
	</defs><sodipodi:namedview
   inkscape:current-layer="shape83-1"
   inkscape:window-maximized="1"
   inkscape:window-y="-9"
   inkscape:window-x="2391"
   inkscape:cy="24.283076"
   inkscape:cx="64.914327"
   inkscape:zoom="4.5533392"
   showgrid="false"
   id="namedview2196"
   inkscape:window-height="1271"
   inkscape:window-width="2400"
   inkscape:pageshadow="2"
   inkscape:pageopacity="0"
   guidetolerance="10"
   gridtolerance="10"
   objecttolerance="10"
   borderopacity="1"
   bordercolor="#666666"
   pagecolor="#ffffff"
   inkscape:document-rotation="0" />
	<v:documentProperties
   v:viewMarkup="false"
   v:langID="1033">
		<v:userDefs>
			<v:ud
   v:val="VT0(1):26"
   v:nameU="msvNoAutoConnect" />
		</v:userDefs>
	</v:documentProperties>

	<style
   id="style2179"
   type="text/css">
	<![CDATA[
		.st1 {fill:none;stroke:#000000;stroke-linecap:round;stroke-linejoin:round;stroke-width:0.75}
		.st2 {fill:#000000;font-family:Calibri;font-size:1.00001em}
		.st3 {fill:none;fill-rule:evenodd;font-size:12px;overflow:visible;stroke-linecap:square;stroke-miterlimit:3}
	]]>
	</style>

	<g
   id="shape83-1"
   v:mID="83"
   v:groupContext="shape"
   transform="translate(18.291177,-752.63294)"
   style="stroke-width:2.25;stroke-miterlimit:4;stroke-dasharray:none">
			<title
   id="title2183">Refuge Alternative</title>
			<desc
   id="desc2185">RA</desc>
			<v:textBlock
   v:margins="rect(4,4,4,4)" />
			<v:textRect
   cx="10.8"
   cy="781.2"
   width="21.6"
   height="21.6" />
			
			<g
   aria-label="RA"
   id="text2189"
   style="font-size:24px;font-family:Calibri;fill:#ffffff;stroke-width:0.75;stroke-miterlimit:4;stroke-dasharray:none;fill-opacity:1;stroke:#ffffff;stroke-opacity:1"
   class="st2"><g
     style="font-style:normal;font-variant:normal;font-weight:normal;font-stretch:normal;font-size:30px;line-height:1.25;font-family:Calibri;-inkscape-font-specification:Calibri;white-space:pre;shape-inside:url(#rect847);fill:#ffffff;fill-opacity:1;stroke:#ffffff;stroke-opacity:1;stroke-width:0.75;stroke-miterlimit:4;stroke-dasharray:none"
     id="text845" /><g
     style="font-style:normal;font-weight:normal;font-size:30px;line-height:1.25;font-family:sans-serif;white-space:pre;shape-inside:url(#rect853);fill:#ffffff;fill-opacity:1;stroke:#ffffff;stroke-opacity:1;stroke-width:0.75;stroke-miterlimit:4;stroke-dasharray:none"
     id="text851"
     aria-label="FAB"><path
       id="path858"
       style="font-style:normal;font-variant:normal;font-weight:bold;font-stretch:normal;font-family:Calibri;-inkscape-font-specification:'Calibri Bold';fill:#ffffff;stroke:#ffffff;stroke-opacity:1;stroke-width:0.75;stroke-miterlimit:4;stroke-dasharray:none;fill-opacity:1"
       d="m 21.256836,806.77421 q 0,0.43945 -0.04395,0.74707 -0.0293,0.29297 -0.117188,0.46875 -0.07324,0.17578 -0.175781,0.26367 -0.102539,0.0879 -0.234375,0.0879 h -6.196289 v 5.09766 h 5.815429 q 0.131836,0 0.234375,0.0732 0.10254,0.0732 0.175782,0.24902 0.08789,0.17578 0.117187,0.46875 0.04395,0.29297 0.04395,0.73242 0,0.43946 -0.04395,0.73242 -0.0293,0.29297 -0.117187,0.4834 -0.07324,0.19043 -0.175782,0.27832 -0.102539,0.0733 -0.234375,0.0733 h -5.815429 v 7.06054 q 0,0.16114 -0.08789,0.27832 -0.08789,0.11719 -0.322265,0.20508 -0.219727,0.0732 -0.585938,0.11719 -0.366211,0.0439 -0.9375,0.0439 -0.556641,0 -0.9375,-0.0439 -0.366211,-0.0439 -0.585937,-0.11719 -0.219727,-0.0879 -0.322266,-0.20508 -0.08789,-0.11718 -0.08789,-0.27832 V 806.408 q 0,-0.64454 0.322266,-0.92286 0.336914,-0.29296 0.820312,-0.29296 h 8.920899 q 0.131836,0 0.234375,0.0879 0.102539,0.0732 0.175781,0.26367 0.08789,0.17578 0.117188,0.4834 0.04395,0.30761 0.04395,0.74707 z" /><path
       id="path860"
       style="font-style:normal;font-variant:normal;font-weight:bold;font-stretch:normal;font-family:Calibri;-inkscape-font-specification:'Calibri Bold';fill:#ffffff;stroke:#ffffff;stroke-opacity:1;stroke-width:0.75;stroke-miterlimit:4;stroke-dasharray:none;fill-opacity:1"
       d="m 38.219727,822.71171 q 0.175781,0.52734 0.219726,0.83496 0.04395,0.30761 -0.117187,0.46875 -0.161133,0.14648 -0.571289,0.17578 -0.410157,0.0439 -1.12793,0.0439 -0.74707,0 -1.171875,-0.0293 -0.410156,-0.0147 -0.629883,-0.0733 -0.219727,-0.0732 -0.307617,-0.19042 -0.08789,-0.11719 -0.146485,-0.30762 l -1.274414,-3.8086 h -7.11914 l -1.201172,3.70606 q -0.05859,0.20508 -0.161133,0.35156 -0.08789,0.13184 -0.307617,0.21973 -0.205078,0.0732 -0.600586,0.10254 -0.380859,0.0293 -1.010742,0.0293 -0.673828,0 -1.054688,-0.0439 -0.380859,-0.0439 -0.527343,-0.20508 -0.146485,-0.17578 -0.10254,-0.4834 0.04395,-0.30762 0.219727,-0.82031 L 27.072266,805.866 q 0.08789,-0.24902 0.205078,-0.3955 0.117187,-0.16114 0.366211,-0.23438 0.263672,-0.0879 0.717773,-0.10254 0.454102,-0.0293 1.201172,-0.0293 0.864258,0 1.376953,0.0293 0.512695,0.0146 0.791016,0.10254 0.292968,0.0732 0.410156,0.23438 0.131836,0.16113 0.219727,0.43945 z m -8.701172,-13.90137 h -0.01465 l -2.680664,8.05664 h 5.375977 z" /><path
       id="path862"
       style="font-style:normal;font-variant:normal;font-weight:bold;font-stretch:normal;font-family:Calibri;-inkscape-font-specification:'Calibri Bold';fill:#ffffff;stroke:#ffffff;stroke-opacity:1;stroke-width:0.75;stroke-miterlimit:4;stroke-dasharray:none;fill-opacity:1"
       d="m 54.582031,818.46366 q 0,1.01074 -0.27832,1.83105 -0.27832,0.82032 -0.776367,1.4502 -0.483399,0.62988 -1.171875,1.08398 -0.673828,0.45411 -1.494141,0.74707 -0.820312,0.29297 -1.757812,0.43946 -0.922852,0.13183 -2.06543,0.13183 h -5.039063 q -0.483398,0 -0.820312,-0.27832 -0.322266,-0.29297 -0.322266,-0.9375 V 806.408 q 0,-0.64454 0.322266,-0.92286 0.336914,-0.29296 0.820312,-0.29296 h 4.760743 q 1.743164,0 2.944336,0.29296 1.21582,0.29297 2.036132,0.89356 0.834961,0.58594 1.274414,1.49414 0.439454,0.9082 0.439454,2.13867 0,0.68848 -0.175782,1.30371 -0.175781,0.60059 -0.512695,1.09863 -0.336914,0.49805 -0.834961,0.87891 -0.483398,0.38086 -1.113281,0.61524 0.805664,0.14648 1.479492,0.51269 0.688477,0.36621 1.186523,0.95215 0.512696,0.57129 0.805664,1.34766 0.292969,0.77636 0.292969,1.74316 z m -4.980469,-7.9834 q 0,-0.57129 -0.175781,-1.02539 -0.175781,-0.4541 -0.527344,-0.74707 -0.351562,-0.30762 -0.893554,-0.46875 -0.527344,-0.16113 -1.420899,-0.16113 h -1.948242 v 4.92187 h 2.15332 q 0.834961,0 1.333008,-0.19043 0.498047,-0.20508 0.820313,-0.54199 0.336914,-0.35156 0.498047,-0.80566 0.161132,-0.46875 0.161132,-0.98145 z m 0.981446,8.11524 q 0,-0.65918 -0.219727,-1.17188 -0.219726,-0.52734 -0.644531,-0.87891 -0.424805,-0.35156 -1.083984,-0.54199 -0.65918,-0.19043 -1.713868,-0.19043 h -2.285156 v 5.39063 h 2.783203 q 0.805664,0 1.347657,-0.16114 0.55664,-0.17578 0.952148,-0.49804 0.410156,-0.33692 0.629883,-0.82031 0.234375,-0.49805 0.234375,-1.12793 z" /></g></g>		</g>
</svg>
