<?xml version="1.0" encoding="UTF-8" standalone="no"?>
<!-- Generated by Microsoft Visio, SVG Export lc.svg Page-1 -->

<svg
   xmlns:v="http://schemas.microsoft.com/visio/2003/SVGExtensions/"
   xmlns:dc="http://purl.org/dc/elements/1.1/"
   xmlns:cc="http://creativecommons.org/ns#"
   xmlns:rdf="http://www.w3.org/1999/02/22-rdf-syntax-ns#"
   xmlns:svg="http://www.w3.org/2000/svg"
   xmlns="http://www.w3.org/2000/svg"
   xmlns:sodipodi="http://sodipodi.sourceforge.net/DTD/sodipodi-0.dtd"
   xmlns:inkscape="http://www.inkscape.org/namespaces/inkscape"
   width="8.5in"
   height="11in"
   viewBox="0 0 612 792"
   xml:space="preserve"
   color-interpolation-filters="sRGB"
   class="st4"
   version="1.1"
   id="svg3828"
   sodipodi:docname="lc.svg"
   inkscape:version="0.92.4 (5da689c313, 2019-01-14)"><metadata
   id="metadata3834"><rdf:RDF><cc:Work
       rdf:about=""><dc:format>image/svg+xml</dc:format><dc:type
         rdf:resource="http://purl.org/dc/dcmitype/StillImage" /></cc:Work></rdf:RDF></metadata><defs
   id="defs3832">
				
				
				
				
				
							</defs><sodipodi:namedview
   pagecolor="#ffffff"
   bordercolor="#666666"
   borderopacity="1"
   objecttolerance="10"
   gridtolerance="10"
   guidetolerance="10"
   inkscape:pageopacity="0"
   inkscape:pageshadow="2"
   inkscape:window-width="1040"
   inkscape:window-height="780"
   id="namedview3830"
   showgrid="false"
   inkscape:zoom="12.848485"
   inkscape:cx="33.30764"
   inkscape:cy="1022.6745"
   inkscape:window-x="435"
   inkscape:window-y="113"
   inkscape:window-maximized="0"
   inkscape:current-layer="group74-1" />
	<v:documentProperties
   v:langID="1033"
   v:viewMarkup="false">
		<v:userDefs>
			<v:ud
   v:nameU="msvNoAutoConnect"
   v:val="VT0(1):26" />
		</v:userDefs>
	</v:documentProperties>

	<style
   type="text/css"
   id="style3805">
	<![CDATA[
		.st1 {fill:none;stroke:none;stroke-linecap:round;stroke-linejoin:round;stroke-width:0.75}
		.st2 {fill:#000000;font-family:Calibri;font-size:1.00001em}
		.st3 {fill:none;stroke:#000000;stroke-linecap:round;stroke-linejoin:round;stroke-width:0.75}
		.st4 {fill:none;fill-rule:evenodd;font-size:12px;overflow:visible;stroke-linecap:square;stroke-miterlimit:3}
	]]>
	</style>

	<g
   v:mID="0"
   v:index="1"
   v:groupContext="foregroundPage"
   id="g3826">
		<title
   id="title3807">Page-1</title>
		<v:pageProperties
   v:drawingScale="1"
   v:pageScale="1"
   v:drawingUnits="19"
   v:shadowOffsetX="9"
   v:shadowOffsetY="-9" />
		<g
   id="group74-1"
   transform="translate(18,-759.6)"
   v:mID="74"
   v:groupContext="group">
			<title
   id="title3809">Line Curtain</title>
			<rect
   style="fill:none;stroke:none;stroke-width:0.75;stroke-linecap:round;stroke-linejoin:round"
   id="rect3815"
   class="st1"
   height="14.4"
   width="21.6"
   y="777.59998"
   x="0" /><g
   aria-label="LC"
   style="font-size:12.00012016px;font-family:Calibri;fill:#ffffff"
   id="text3817"><path
     d="m 10.019503,787.96057 q 0,0.11719 -0.01172,0.19922 -0.011719,0.0762 -0.041016,0.13476 -0.023438,0.0527 -0.064454,0.082 -0.035157,0.0234 -0.087891,0.0234 h -3.351596 q -0.134767,0 -0.2578151,-0.0879 -0.1171887,-0.0938 -0.1171887,-0.32227 v -7.0196 q 0,-0.0469 0.023438,-0.082 0.023438,-0.0352 0.082032,-0.0527 0.058594,-0.0234 0.1582047,-0.0352 0.09961,-0.0176 0.2402368,-0.0176 0.1464859,0 0.2402368,0.0176 0.09961,0.0117 0.1582047,0.0352 0.058594,0.0176 0.082032,0.0527 0.023438,0.0352 0.023438,0.082 v 6.55671 h 2.7187772 q 0.052735,0 0.087891,0.0293 0.041016,0.0234 0.064454,0.0762 0.029297,0.0469 0.041016,0.12891 0.01172,0.082 0.01172,0.19922 z"
     style="font-size:12.00012016px;font-family:Calibri;fill:#ffffff"
     id="path4683" /><path
     d="m 16.072297,787.32775 q 0,0.0938 -0.0059,0.16406 -0.0059,0.0703 -0.02344,0.12305 -0.01172,0.0527 -0.03516,0.0938 -0.02344,0.041 -0.08203,0.0996 -0.05859,0.0586 -0.246096,0.18164 -0.187502,0.11719 -0.468754,0.23438 -0.275394,0.11133 -0.638679,0.1875 -0.357425,0.082 -0.785164,0.082 -0.738288,0 -1.335951,-0.2461 -0.591802,-0.2461 -1.013682,-0.72657 -0.41602,-0.48047 -0.644537,-1.18361 -0.222659,-0.70899 -0.222659,-1.62892 0,-0.94337 0.240237,-1.68166 0.246096,-0.73828 0.685554,-1.24806 0.439457,-0.51563 1.048838,-0.78516 0.615241,-0.26953 1.359389,-0.26953 0.328128,0 0.638678,0.0645 0.31055,0.0586 0.574225,0.15235 0.263674,0.0938 0.468754,0.21679 0.205081,0.12305 0.281253,0.20508 0.08203,0.0762 0.10547,0.11719 0.02344,0.041 0.03516,0.0996 0.01758,0.0527 0.02344,0.12891 0.01172,0.0762 0.01172,0.18164 0,0.11719 -0.01172,0.19922 -0.01172,0.082 -0.03516,0.14063 -0.02344,0.0527 -0.05859,0.082 -0.0293,0.0234 -0.07617,0.0234 -0.08203,0 -0.228518,-0.11133 -0.146486,-0.11719 -0.380863,-0.25195 -0.228518,-0.14063 -0.562506,-0.25196 -0.328128,-0.11719 -0.791024,-0.11719 -0.503911,0 -0.919931,0.20508 -0.41016,0.19922 -0.703132,0.5918 -0.292971,0.39259 -0.457036,0.96095 -0.158204,0.56251 -0.158204,1.28908 0,0.72071 0.152345,1.27735 0.158205,0.55079 0.445317,0.92579 0.292972,0.36915 0.714851,0.56251 0.421879,0.1875 0.955088,0.1875 0.451176,0 0.785164,-0.11133 0.339847,-0.11133 0.574224,-0.24609 0.240237,-0.14063 0.392582,-0.25196 0.152346,-0.11133 0.240237,-0.11133 0.04102,0 0.07031,0.0176 0.0293,0.0176 0.04688,0.0703 0.01758,0.0469 0.02344,0.13477 0.01172,0.0879 0.01172,0.22266 z"
     style="font-size:12.00012016px;font-family:Calibri;fill:#ffffff"
     id="path4685" /></g>
			<g
   id="shape76-5"
   v:mID="76"
   v:groupContext="shape"
   style="stroke:#ffffff;stroke-opacity:1">
				<title
   id="title3820">Sheet.76</title>
				<ellipse
   cx="10.8"
   cy="784.8"
   rx="10.8"
   ry="7.2"
   class="st3"
   id="ellipse3822"
   style="stroke:#ffffff;stroke-opacity:1" />
			</g>
		</g>
	</g>
</svg>