<?xml version="1.0" encoding="UTF-8" standalone="no"?>
<svg
   xmlns:v="http://schemas.microsoft.com/visio/2003/SVGExtensions/"
   xmlns:dc="http://purl.org/dc/elements/1.1/"
   xmlns:cc="http://creativecommons.org/ns#"
   xmlns:rdf="http://www.w3.org/1999/02/22-rdf-syntax-ns#"
   xmlns:svg="http://www.w3.org/2000/svg"
   xmlns="http://www.w3.org/2000/svg"
   xmlns:sodipodi="http://sodipodi.sourceforge.net/DTD/sodipodi-0.dtd"
   xmlns:inkscape="http://www.inkscape.org/namespaces/inkscape"
   width="8.5in"
   height="11in"
   viewBox="0 0 612 792"
   xml:space="preserve"
   color-interpolation-filters="sRGB"
   class="st3"
   version="1.1"
   id="svg2194"
   sodipodi:docname="mobile_equipment.svg"
   inkscape:version="1.0 (4035a4fb49, 2020-05-01)"><metadata
   id="metadata2200"><rdf:RDF><cc:Work
       rdf:about=""><dc:format>image/svg+xml</dc:format><dc:type
         rdf:resource="http://purl.org/dc/dcmitype/StillImage" /><dc:title></dc:title></cc:Work></rdf:RDF></metadata><defs
   id="defs2198">
		
		
		
	</defs><sodipodi:namedview
   inkscape:document-rotation="0"
   pagecolor="#ffffff"
   bordercolor="#666666"
   borderopacity="1"
   objecttolerance="10"
   gridtolerance="10"
   guidetolerance="10"
   inkscape:pageopacity="0"
   inkscape:pageshadow="2"
   inkscape:window-width="1920"
   inkscape:window-height="1017"
   id="namedview2196"
   showgrid="false"
   inkscape:zoom="4.5533392"
   inkscape:cx="54.921661"
   inkscape:cy="52.316921"
   inkscape:window-x="1912"
   inkscape:window-y="-8"
   inkscape:window-maximized="1"
   inkscape:current-layer="shape83-1" />
	<v:documentProperties
   v:langID="1033"
   v:viewMarkup="false">
		<v:userDefs>
			<v:ud
   v:nameU="msvNoAutoConnect"
   v:val="VT0(1):26" />
		</v:userDefs>
	</v:documentProperties>

	<style
   type="text/css"
   id="style2179">
	<![CDATA[
		.st1 {fill:none;stroke:#000000;stroke-linecap:round;stroke-linejoin:round;stroke-width:0.75}
		.st2 {fill:#000000;font-family:Calibri;font-size:1.00001em}
		.st3 {fill:none;fill-rule:evenodd;font-size:12px;overflow:visible;stroke-linecap:square;stroke-miterlimit:3}
	]]>
	</style>

	<g
   style="stroke-width:2.25;stroke-miterlimit:4;stroke-dasharray:none"
   transform="translate(18.291177,-752.63294)"
   v:groupContext="shape"
   v:mID="83"
   id="shape83-1">
			<title
   id="title2183">Refuge Alternative</title>
			<desc
   id="desc2185">RA</desc>
			<v:textBlock
   v:margins="rect(4,4,4,4)" />
			<v:textRect
   height="21.6"
   width="21.6"
   cy="781.2"
   cx="10.8" />
			<rect
   style="stroke-width:5.02652;stroke-miterlimit:4;stroke-dasharray:none;stroke:#ffffff;stroke-opacity:1"
   id="rect2187"
   class="st1"
   height="30.703482"
   width="75.838615"
   y="762.5871"
   x="1.7376735" />
			<g
   class="st2"
   style="font-size:12px;font-family:Calibri;text-align:center;text-anchor:middle;fill:#ffffff;stroke-width:2.25;stroke-miterlimit:4;stroke-dasharray:none"
   id="text2189"
   aria-label="Mobile
Equipment"><path
     id="path5943"
     style="font-style:normal;font-variant:normal;font-weight:bold;font-stretch:normal;font-size:12px;font-family:Calibri;-inkscape-font-specification:'Calibri Bold';text-align:center;text-anchor:middle;fill:#ffffff"
     d="m 31.111706,773.88263 q 0,0.0586 -0.03516,0.10547 -0.0293,0.0469 -0.117188,0.0762 -0.08203,0.0293 -0.222656,0.0469 -0.140625,0.0176 -0.357422,0.0176 -0.210938,0 -0.351563,-0.0176 -0.140625,-0.0176 -0.222656,-0.0469 -0.08203,-0.0293 -0.117187,-0.0762 -0.03516,-0.0469 -0.03516,-0.10547 v -6.16992 h -0.01172 l -2.197266,6.16406 q -0.02344,0.0762 -0.07617,0.12891 -0.05273,0.0469 -0.146484,0.0762 -0.08789,0.0293 -0.228516,0.0351 -0.140625,0.0117 -0.339844,0.0117 -0.199218,0 -0.339843,-0.0176 -0.140625,-0.0117 -0.234375,-0.041 -0.08789,-0.0352 -0.140625,-0.082 -0.05274,-0.0469 -0.07031,-0.11133 l -2.121094,-6.16406 h -0.01172 v 6.16992 q 0,0.0586 -0.03516,0.10547 -0.0293,0.0469 -0.117187,0.0762 -0.08789,0.0293 -0.228516,0.0469 -0.134765,0.0176 -0.351562,0.0176 -0.210938,0 -0.351563,-0.0176 -0.140625,-0.0176 -0.228515,-0.0469 -0.08203,-0.0293 -0.117188,-0.0762 -0.0293,-0.0469 -0.0293,-0.10547 v -6.75586 q 0,-0.29883 0.158203,-0.45703 0.158204,-0.1582 0.421875,-0.1582 h 1.007813 q 0.269531,0 0.462891,0.0469 0.193359,0.041 0.333984,0.14649 0.140625,0.0996 0.234375,0.26953 0.09375,0.16406 0.164062,0.41015 l 1.640625,4.51758 h 0.02344 l 1.699219,-4.50586 q 0.07617,-0.24609 0.164062,-0.41601 0.09375,-0.16993 0.210938,-0.27539 0.123047,-0.10547 0.287109,-0.14649 0.164063,-0.0469 0.380859,-0.0469 h 1.03711 q 0.158203,0 0.269531,0.041 0.117188,0.041 0.1875,0.12305 0.07617,0.0762 0.111328,0.19336 0.04102,0.11133 0.04102,0.25781 z" /><path
     id="path5945"
     style="font-style:normal;font-variant:normal;font-weight:bold;font-stretch:normal;font-size:12px;font-family:Calibri;-inkscape-font-specification:'Calibri Bold';text-align:center;text-anchor:middle;fill:#ffffff"
     d="m 37.973034,771.22833 q 0,0.66797 -0.175781,1.21875 -0.175782,0.55078 -0.533203,0.94922 -0.357422,0.39844 -0.896485,0.61524 -0.539062,0.21679 -1.259765,0.21679 -0.697266,0 -1.212891,-0.19336 -0.515625,-0.19336 -0.855469,-0.5625 -0.339844,-0.36914 -0.503906,-0.9082 -0.164063,-0.53906 -0.164063,-1.23047 0,-0.66797 0.175782,-1.21875 0.18164,-0.55664 0.539062,-0.94922 0.357422,-0.39843 0.890625,-0.61523 0.539063,-0.2168 1.259766,-0.2168 0.703125,0 1.21875,0.19336 0.515625,0.1875 0.849609,0.55664 0.339844,0.36914 0.503906,0.9082 0.164063,0.53907 0.164063,1.23633 z m -1.517578,0.0586 q 0,-0.38672 -0.06445,-0.70899 -0.05859,-0.32812 -0.205078,-0.56836 -0.146485,-0.24023 -0.392579,-0.375 -0.240234,-0.13476 -0.609375,-0.13476 -0.328125,0 -0.574218,0.12304 -0.246094,0.11719 -0.404297,0.35157 -0.158203,0.22851 -0.240235,0.55664 -0.07617,0.32226 -0.07617,0.73828 0,0.38672 0.06445,0.71484 0.06445,0.32227 0.205078,0.5625 0.146484,0.24024 0.392578,0.375 0.246094,0.12891 0.609375,0.12891 0.333984,0 0.580078,-0.11719 0.246094,-0.12305 0.404297,-0.35156 0.158203,-0.22852 0.234375,-0.55078 0.07617,-0.32813 0.07617,-0.74414 z" /><path
     id="path5947"
     style="font-style:normal;font-variant:normal;font-weight:bold;font-stretch:normal;font-size:12px;font-family:Calibri;-inkscape-font-specification:'Calibri Bold';text-align:center;text-anchor:middle;fill:#ffffff"
     d="m 44.394909,771.21075 q 0,0.69727 -0.152344,1.25391 -0.152344,0.55664 -0.439453,0.94922 -0.287109,0.39258 -0.708984,0.60352 -0.416016,0.21093 -0.949219,0.21093 -0.263672,0 -0.492188,-0.0527 -0.228515,-0.0469 -0.439453,-0.1582 -0.205078,-0.11133 -0.410156,-0.28125 -0.199219,-0.16993 -0.410156,-0.41016 v 0.56836 q 0,0.0644 -0.03516,0.11133 -0.0293,0.041 -0.105469,0.0703 -0.07031,0.0293 -0.19336,0.041 -0.123046,0.0117 -0.298828,0.0117 -0.18164,0 -0.304687,-0.0117 -0.117188,-0.0117 -0.19336,-0.041 -0.07031,-0.0293 -0.09961,-0.0703 -0.0293,-0.0469 -0.0293,-0.11133 v -7.70508 q 0,-0.0586 0.03516,-0.10547 0.03516,-0.0469 0.117188,-0.0762 0.08789,-0.0352 0.228516,-0.0527 0.140625,-0.0176 0.357421,-0.0176 0.216797,0 0.357422,0.0176 0.140625,0.0176 0.222657,0.0527 0.08789,0.0293 0.123046,0.0762 0.03516,0.0469 0.03516,0.10547 v 2.88867 q 0.199218,-0.19922 0.398437,-0.33984 0.199219,-0.14063 0.398438,-0.22852 0.199218,-0.0937 0.410156,-0.13476 0.210937,-0.041 0.445312,-0.041 0.580079,0 0.984375,0.23438 0.404297,0.22851 0.65625,0.62109 0.257813,0.39258 0.375,0.91992 0.117188,0.52149 0.117188,1.10156 z m -1.529297,0.10547 q 0,-0.33398 -0.05273,-0.64453 -0.04687,-0.31054 -0.169922,-0.55078 -0.123047,-0.24023 -0.322266,-0.38086 -0.193359,-0.14648 -0.492187,-0.14648 -0.146485,0 -0.28711,0.041 -0.140625,0.041 -0.292968,0.14063 -0.146485,0.0996 -0.304688,0.25781 -0.158203,0.1582 -0.333984,0.39258 v 1.73437 q 0.310547,0.39844 0.591797,0.60938 0.287109,0.20508 0.597656,0.20508 0.287109,0 0.486328,-0.14649 0.199219,-0.14648 0.328125,-0.38086 0.134766,-0.23437 0.193359,-0.5332 0.05859,-0.29883 0.05859,-0.59766 z" /><path
     id="path5949"
     style="font-style:normal;font-variant:normal;font-weight:bold;font-stretch:normal;font-size:12px;font-family:Calibri;-inkscape-font-specification:'Calibri Bold';text-align:center;text-anchor:middle;fill:#ffffff"
     d="m 47.055065,773.89435 q 0,0.0586 -0.03516,0.10547 -0.03516,0.041 -0.123047,0.0703 -0.08203,0.0293 -0.222656,0.041 -0.140625,0.0176 -0.357422,0.0176 -0.216797,0 -0.357422,-0.0176 -0.140625,-0.0117 -0.228516,-0.041 -0.08203,-0.0293 -0.117187,-0.0703 -0.03516,-0.0469 -0.03516,-0.10547 v -5.21485 q 0,-0.0586 0.03516,-0.0996 0.03516,-0.0469 0.117187,-0.0762 0.08789,-0.0352 0.228516,-0.0527 0.140625,-0.0176 0.357422,-0.0176 0.216797,0 0.357422,0.0176 0.140625,0.0176 0.222656,0.0527 0.08789,0.0293 0.123047,0.0762 0.03516,0.041 0.03516,0.0996 z m 0.111328,-6.9961 q 0,0.44532 -0.18164,0.61524 -0.181641,0.16992 -0.673828,0.16992 -0.498047,0 -0.673829,-0.16406 -0.169921,-0.16406 -0.169921,-0.5918 0,-0.44531 0.175781,-0.61523 0.18164,-0.17578 0.679687,-0.17578 0.492188,0 0.667969,0.16992 0.175781,0.16406 0.175781,0.59179 z" /><path
     id="path5951"
     style="font-style:normal;font-variant:normal;font-weight:bold;font-stretch:normal;font-size:12px;font-family:Calibri;-inkscape-font-specification:'Calibri Bold';text-align:center;text-anchor:middle;fill:#ffffff"
     d="m 50.00819,773.89435 q 0,0.0586 -0.03516,0.10547 -0.03516,0.041 -0.123047,0.0703 -0.08203,0.0293 -0.222656,0.041 -0.140625,0.0176 -0.357422,0.0176 -0.216797,0 -0.357422,-0.0176 -0.140625,-0.0117 -0.228516,-0.041 -0.08203,-0.0293 -0.117187,-0.0703 -0.03516,-0.0469 -0.03516,-0.10547 v -7.70508 q 0,-0.0586 0.03516,-0.10547 0.03516,-0.0469 0.117187,-0.0762 0.08789,-0.0352 0.228516,-0.0527 0.140625,-0.0176 0.357422,-0.0176 0.216797,0 0.357422,0.0176 0.140625,0.0176 0.222656,0.0527 0.08789,0.0293 0.123047,0.0762 0.03516,0.0469 0.03516,0.10547 z" /><path
     id="path5953"
     style="font-style:normal;font-variant:normal;font-weight:bold;font-stretch:normal;font-size:12px;font-family:Calibri;-inkscape-font-specification:'Calibri Bold';text-align:center;text-anchor:middle;fill:#ffffff"
     d="m 56.312878,771.12872 q 0,0.26953 -0.123047,0.39844 -0.117188,0.12891 -0.328125,0.12891 h -3.181641 q 0,0.33398 0.07617,0.60937 0.08203,0.26953 0.251953,0.46289 0.175781,0.1875 0.445313,0.28711 0.27539,0.0996 0.65625,0.0996 0.386718,0 0.679687,-0.0527 0.292969,-0.0586 0.503906,-0.12305 0.216797,-0.0703 0.357422,-0.12305 0.140625,-0.0586 0.228516,-0.0586 0.05273,0 0.08789,0.0234 0.03516,0.0176 0.05859,0.0703 0.02344,0.0527 0.0293,0.15234 0.01172,0.0937 0.01172,0.24024 0,0.1289 -0.0059,0.22265 -0.0059,0.0879 -0.01758,0.15235 -0.01172,0.0644 -0.03516,0.11133 -0.02344,0.041 -0.06445,0.082 -0.03516,0.041 -0.205078,0.11133 -0.169922,0.0703 -0.433594,0.14062 -0.263672,0.0645 -0.603515,0.11133 -0.339844,0.0527 -0.726563,0.0527 -0.697266,0 -1.224609,-0.17578 -0.521485,-0.17578 -0.873047,-0.5332 -0.351563,-0.35742 -0.527344,-0.90235 -0.169922,-0.54492 -0.169922,-1.27734 0,-0.69726 0.181641,-1.25391 0.18164,-0.5625 0.527344,-0.94921 0.345703,-0.39258 0.83789,-0.59766 0.498047,-0.20508 1.119141,-0.20508 0.65625,0 1.11914,0.19336 0.46875,0.19336 0.767579,0.53906 0.298828,0.33985 0.439453,0.8086 0.140625,0.46875 0.140625,1.01953 z m -1.429688,-0.42187 q 0.01758,-0.6211 -0.251953,-0.97266 -0.263672,-0.35742 -0.820312,-0.35742 -0.28125,0 -0.492188,0.10547 -0.205078,0.10547 -0.345703,0.28711 -0.134766,0.17578 -0.210938,0.42187 -0.07031,0.24024 -0.08203,0.51563 z" /><path
     id="path5955"
     style="font-style:normal;font-variant:normal;font-weight:bold;font-stretch:normal;font-family:Calibri;-inkscape-font-specification:'Calibri Bold';fill:#ffffff"
     d="m 17.28944,788.49005 q 0,0.16992 -0.01758,0.28711 -0.01172,0.11133 -0.04102,0.18164 -0.0293,0.0703 -0.07617,0.10547 -0.04102,0.0293 -0.09375,0.0293 h -3.808594 q -0.19336,0 -0.328125,-0.11133 -0.128906,-0.11719 -0.128906,-0.375 v -6.60938 q 0,-0.25781 0.128906,-0.36914 0.134765,-0.11718 0.328125,-0.11718 h 3.785156 q 0.05273,0 0.09375,0.0293 0.04102,0.0293 0.07031,0.10547 0.0293,0.0703 0.04101,0.1875 0.01758,0.11133 0.01758,0.28711 0,0.16406 -0.01758,0.28125 -0.01172,0.11133 -0.04101,0.18164 -0.0293,0.0703 -0.07031,0.10547 -0.04102,0.0293 -0.09375,0.0293 h -2.707031 v 1.85156 h 2.291015 q 0.05274,0 0.09375,0.0352 0.04687,0.0293 0.07617,0.0996 0.0293,0.0645 0.04102,0.18164 0.01758,0.11132 0.01758,0.27539 0,0.16992 -0.01758,0.28125 -0.01172,0.11132 -0.04102,0.18164 -0.0293,0.0644 -0.07617,0.0937 -0.04101,0.0293 -0.09375,0.0293 h -2.291015 v 2.13868 h 2.730469 q 0.05273,0 0.09375,0.0352 0.04687,0.0293 0.07617,0.0996 0.0293,0.0703 0.04102,0.1875 0.01758,0.11133 0.01758,0.28125 z" /><path
     id="path5957"
     style="font-style:normal;font-variant:normal;font-weight:bold;font-stretch:normal;font-family:Calibri;-inkscape-font-specification:'Calibri Bold';fill:#ffffff"
     d="m 23.359753,790.96857 q 0,0.0586 -0.03516,0.10547 -0.03516,0.0469 -0.117187,0.0762 -0.08203,0.0351 -0.222656,0.0527 -0.140625,0.0176 -0.357422,0.0176 -0.216797,0 -0.357422,-0.0176 -0.140625,-0.0176 -0.228516,-0.0527 -0.08203,-0.0293 -0.117187,-0.0762 -0.0293,-0.0469 -0.0293,-0.10547 v -2.48438 q -0.210938,0.19336 -0.410156,0.33985 -0.199219,0.14062 -0.398438,0.23437 -0.199219,0.0879 -0.410156,0.12891 -0.210938,0.041 -0.445313,0.041 -0.574218,0 -0.978515,-0.22851 -0.404297,-0.23438 -0.66211,-0.62696 -0.251953,-0.39257 -0.36914,-0.91406 -0.117188,-0.52734 -0.117188,-1.10742 0,-0.69727 0.152344,-1.25391 0.152344,-0.55664 0.445313,-0.94922 0.292968,-0.39257 0.720703,-0.60351 0.427734,-0.21094 0.990234,-0.21094 0.216797,0 0.416016,0.0469 0.199218,0.041 0.398437,0.15234 0.199219,0.10547 0.410156,0.28125 0.216797,0.16992 0.47461,0.42188 v -0.56836 q 0,-0.0586 0.0293,-0.0996 0.03516,-0.0469 0.105468,-0.0762 0.07617,-0.0293 0.19336,-0.041 0.117187,-0.0176 0.304687,-0.0176 0.175782,0 0.292969,0.0176 0.123047,0.0117 0.193359,0.041 0.07031,0.0293 0.09961,0.0762 0.0293,0.041 0.0293,0.0996 z m -1.464844,-5.56641 q -0.316406,-0.39844 -0.609375,-0.60937 -0.287109,-0.21094 -0.603516,-0.21094 -0.287109,0 -0.498047,0.14648 -0.205078,0.14063 -0.333984,0.38086 -0.123047,0.24024 -0.1875,0.53906 -0.05859,0.29297 -0.05859,0.60352 0,0.32813 0.05274,0.64453 0.05273,0.31055 0.169922,0.55078 0.123046,0.24024 0.322265,0.38672 0.199219,0.14649 0.503906,0.14649 0.152344,0 0.292969,-0.041 0.146485,-0.0469 0.292969,-0.14648 0.152344,-0.0996 0.310547,-0.25782 0.158203,-0.16406 0.345703,-0.39843 z" /><path
     id="path5959"
     style="font-style:normal;font-variant:normal;font-weight:bold;font-stretch:normal;font-family:Calibri;-inkscape-font-specification:'Calibri Bold';fill:#ffffff"
     d="m 29.805065,788.89435 q 0,0.0586 -0.0293,0.10547 -0.0293,0.041 -0.105468,0.0703 -0.07031,0.0293 -0.19336,0.041 -0.117187,0.0176 -0.298828,0.0176 -0.193359,0 -0.316406,-0.0176 -0.117188,-0.0117 -0.1875,-0.041 -0.07031,-0.0293 -0.09961,-0.0703 -0.0293,-0.0469 -0.0293,-0.10547 v -0.60352 q -0.433594,0.46875 -0.884766,0.70313 -0.445313,0.23437 -0.925781,0.23437 -0.539063,0 -0.908203,-0.17578 -0.363282,-0.17578 -0.591797,-0.48047 -0.222657,-0.30468 -0.322266,-0.70312 -0.09375,-0.4043 -0.09375,-1.00196 v -3.19921 q 0,-0.0586 0.0293,-0.0996 0.03516,-0.0469 0.117187,-0.0762 0.08789,-0.0293 0.228516,-0.041 0.146484,-0.0176 0.357422,-0.0176 0.216797,0 0.357422,0.0176 0.140625,0.0117 0.222656,0.041 0.08789,0.0293 0.123047,0.0762 0.03516,0.041 0.03516,0.0996 v 2.95312 q 0,0.41016 0.05274,0.62695 0.05273,0.2168 0.158203,0.375 0.111328,0.15235 0.27539,0.24024 0.169922,0.082 0.392578,0.082 0.28125,0 0.5625,-0.20508 0.28711,-0.20508 0.609375,-0.59765 v -3.47461 q 0,-0.0586 0.0293,-0.0996 0.03516,-0.0469 0.117188,-0.0762 0.08789,-0.0293 0.228515,-0.041 0.140625,-0.0176 0.357422,-0.0176 0.216797,0 0.357422,0.0176 0.140625,0.0117 0.222656,0.041 0.08203,0.0293 0.117188,0.0762 0.03516,0.041 0.03516,0.0996 z" /><path
     id="path5961"
     style="font-style:normal;font-variant:normal;font-weight:bold;font-stretch:normal;font-family:Calibri;-inkscape-font-specification:'Calibri Bold';fill:#ffffff"
     d="m 32.769909,788.89435 q 0,0.0586 -0.03516,0.10547 -0.03516,0.041 -0.123047,0.0703 -0.08203,0.0293 -0.222656,0.041 -0.140625,0.0176 -0.357422,0.0176 -0.216797,0 -0.357422,-0.0176 -0.140625,-0.0117 -0.228516,-0.041 -0.08203,-0.0293 -0.117187,-0.0703 -0.03516,-0.0469 -0.03516,-0.10547 v -5.21485 q 0,-0.0586 0.03516,-0.0996 0.03516,-0.0469 0.117187,-0.0762 0.08789,-0.0352 0.228516,-0.0527 0.140625,-0.0176 0.357422,-0.0176 0.216797,0 0.357422,0.0176 0.140625,0.0176 0.222656,0.0527 0.08789,0.0293 0.123047,0.0762 0.03516,0.041 0.03516,0.0996 z m 0.111328,-6.9961 q 0,0.44532 -0.181641,0.61524 -0.18164,0.16992 -0.673828,0.16992 -0.498047,0 -0.673828,-0.16406 -0.169922,-0.16406 -0.169922,-0.5918 0,-0.44531 0.175782,-0.61523 0.18164,-0.17578 0.679687,-0.17578 0.492188,0 0.667969,0.16992 0.175781,0.16406 0.175781,0.59179 z" /><path
     id="path5963"
     style="font-style:normal;font-variant:normal;font-weight:bold;font-stretch:normal;font-family:Calibri;-inkscape-font-specification:'Calibri Bold';fill:#ffffff"
     d="m 39.50819,786.2049 q 0,0.69726 -0.152344,1.25976 -0.146484,0.55664 -0.433593,0.94922 -0.28711,0.39258 -0.714844,0.60352 -0.427734,0.21093 -0.978516,0.21093 -0.228515,0 -0.421875,-0.0469 -0.1875,-0.041 -0.36914,-0.12891 -0.175782,-0.0937 -0.351563,-0.22851 -0.175781,-0.13477 -0.363281,-0.31641 v 2.46094 q 0,0.0586 -0.03516,0.10547 -0.03516,0.0469 -0.123047,0.0762 -0.08203,0.0351 -0.222656,0.0527 -0.140625,0.0176 -0.357422,0.0176 -0.216797,0 -0.357422,-0.0176 -0.140625,-0.0176 -0.228516,-0.0527 -0.08203,-0.0293 -0.117187,-0.0762 -0.03516,-0.0469 -0.03516,-0.10547 v -7.30078 q 0,-0.0586 0.0293,-0.0996 0.0293,-0.0469 0.09961,-0.0762 0.07617,-0.0293 0.193359,-0.041 0.123047,-0.0176 0.304688,-0.0176 0.175781,0 0.292968,0.0176 0.123047,0.0117 0.19336,0.041 0.07617,0.0293 0.105468,0.0762 0.0293,0.041 0.0293,0.0996 v 0.61523 q 0.228516,-0.23437 0.445313,-0.41016 0.222656,-0.18164 0.451172,-0.29882 0.228515,-0.12305 0.46875,-0.18164 0.246093,-0.0586 0.521484,-0.0586 0.574219,0 0.978516,0.22852 0.404297,0.22265 0.65625,0.61523 0.257812,0.39258 0.375,0.91406 0.117187,0.52149 0.117187,1.11329 z m -1.535156,0.10546 q 0,-0.33398 -0.05273,-0.63867 -0.04687,-0.31054 -0.169922,-0.55078 -0.117188,-0.24023 -0.316407,-0.38086 -0.193359,-0.14648 -0.486328,-0.14648 -0.146484,0 -0.292968,0.0469 -0.140625,0.041 -0.292969,0.14063 -0.146485,0.0996 -0.304688,0.25781 -0.158203,0.1582 -0.333984,0.39258 v 1.72265 q 0.310547,0.39258 0.591797,0.60938 0.28125,0.21094 0.585937,0.21094 0.28711,0 0.486328,-0.14649 0.205079,-0.14648 0.333985,-0.38086 0.128906,-0.24023 0.1875,-0.53906 0.06445,-0.29883 0.06445,-0.59766 z" /><path
     id="path5965"
     style="font-style:normal;font-variant:normal;font-weight:bold;font-stretch:normal;font-family:Calibri;-inkscape-font-specification:'Calibri Bold';fill:#ffffff"
     d="m 49.006237,788.89435 q 0,0.0586 -0.03516,0.10547 -0.03516,0.041 -0.117188,0.0703 -0.08203,0.0293 -0.222656,0.041 -0.140625,0.0176 -0.357422,0.0176 -0.222656,0 -0.363281,-0.0176 -0.140625,-0.0117 -0.228516,-0.041 -0.08203,-0.0293 -0.117187,-0.0703 -0.0293,-0.0469 -0.0293,-0.10547 v -3.09961 q 0,-0.26367 -0.05273,-0.48047 -0.04687,-0.2168 -0.152344,-0.36914 -0.09961,-0.1582 -0.257813,-0.24023 -0.152343,-0.0879 -0.36914,-0.0879 -0.263672,0 -0.533203,0.20508 -0.269532,0.20508 -0.585938,0.59766 v 3.47461 q 0,0.0586 -0.03516,0.10547 -0.03516,0.041 -0.123047,0.0703 -0.08203,0.0293 -0.222656,0.041 -0.140625,0.0176 -0.351563,0.0176 -0.216797,0 -0.357422,-0.0176 -0.140625,-0.0117 -0.228515,-0.041 -0.08203,-0.0293 -0.117188,-0.0703 -0.03516,-0.0469 -0.03516,-0.10547 v -3.09961 q 0,-0.26367 -0.05273,-0.48047 -0.04687,-0.2168 -0.146485,-0.36914 -0.09961,-0.1582 -0.257812,-0.24023 -0.158203,-0.0879 -0.369141,-0.0879 -0.269531,0 -0.539062,0.20508 -0.269532,0.20508 -0.580079,0.59766 v 3.47461 q 0,0.0586 -0.03516,0.10547 -0.03516,0.041 -0.123047,0.0703 -0.08203,0.0293 -0.222656,0.041 -0.140625,0.0176 -0.357422,0.0176 -0.216797,0 -0.357422,-0.0176 -0.140625,-0.0117 -0.228515,-0.041 -0.08203,-0.0293 -0.117188,-0.0703 -0.03516,-0.0469 -0.03516,-0.10547 v -5.22656 q 0,-0.0586 0.0293,-0.0996 0.0293,-0.0469 0.105469,-0.0762 0.07617,-0.0293 0.193359,-0.041 0.123047,-0.0176 0.304687,-0.0176 0.1875,0 0.310547,0.0176 0.123047,0.0117 0.1875,0.041 0.07031,0.0293 0.09961,0.0762 0.0293,0.041 0.0293,0.0996 v 0.60351 q 0.433593,-0.46875 0.861328,-0.70312 0.433593,-0.23438 0.902343,-0.23438 0.322266,0 0.580079,0.0703 0.257812,0.0645 0.457031,0.19336 0.205078,0.12305 0.351562,0.29883 0.146485,0.17578 0.246094,0.39258 0.234375,-0.25195 0.457031,-0.43359 0.228516,-0.18164 0.445313,-0.29297 0.222656,-0.11719 0.439453,-0.16992 0.222656,-0.0586 0.451172,-0.0586 0.521484,0 0.878906,0.17578 0.357422,0.17578 0.574219,0.48047 0.222656,0.29883 0.316406,0.70313 0.09375,0.40429 0.09375,0.85547 z" /><path
     id="path5967"
     style="font-style:normal;font-variant:normal;font-weight:bold;font-stretch:normal;font-family:Calibri;-inkscape-font-specification:'Calibri Bold';fill:#ffffff"
     d="m 55.293346,786.12872 q 0,0.26953 -0.123046,0.39844 -0.117188,0.12891 -0.328125,0.12891 h -3.181641 q 0,0.33398 0.07617,0.60937 0.08203,0.26953 0.251953,0.46289 0.175781,0.1875 0.445312,0.28711 0.275391,0.0996 0.65625,0.0996 0.386719,0 0.679688,-0.0527 0.292969,-0.0586 0.503906,-0.12305 0.216797,-0.0703 0.357422,-0.12305 0.140625,-0.0586 0.228516,-0.0586 0.05273,0 0.08789,0.0234 0.03516,0.0176 0.05859,0.0703 0.02344,0.0527 0.0293,0.15234 0.01172,0.0937 0.01172,0.24024 0,0.1289 -0.0059,0.22265 -0.0059,0.0879 -0.01758,0.15235 -0.01172,0.0644 -0.03516,0.11133 -0.02344,0.041 -0.06445,0.082 -0.03516,0.041 -0.205078,0.11133 -0.169922,0.0703 -0.433594,0.14062 -0.263672,0.0645 -0.603516,0.11133 -0.339843,0.0527 -0.726562,0.0527 -0.697266,0 -1.22461,-0.17578 -0.521484,-0.17578 -0.873046,-0.5332 -0.351563,-0.35742 -0.527344,-0.90235 -0.169922,-0.54492 -0.169922,-1.27734 0,-0.69726 0.181641,-1.25391 0.18164,-0.5625 0.527343,-0.94921 0.345703,-0.39258 0.837891,-0.59766 0.498047,-0.20508 1.119141,-0.20508 0.65625,0 1.11914,0.19336 0.46875,0.19336 0.767578,0.53906 0.298828,0.33985 0.439453,0.8086 0.140625,0.46875 0.140625,1.01953 z m -1.429687,-0.42187 q 0.01758,-0.6211 -0.251953,-0.97266 -0.263672,-0.35742 -0.820313,-0.35742 -0.28125,0 -0.492187,0.10547 -0.205078,0.10547 -0.345703,0.28711 -0.134766,0.17578 -0.210938,0.42187 -0.07031,0.24024 -0.08203,0.51563 z" /><path
     id="path5969"
     style="font-style:normal;font-variant:normal;font-weight:bold;font-stretch:normal;font-family:Calibri;-inkscape-font-specification:'Calibri Bold';fill:#ffffff"
     d="m 61.504284,788.89435 q 0,0.0586 -0.03516,0.10547 -0.03516,0.041 -0.117188,0.0703 -0.08203,0.0293 -0.228515,0.041 -0.140625,0.0176 -0.351563,0.0176 -0.216797,0 -0.363281,-0.0176 -0.140625,-0.0117 -0.222656,-0.041 -0.08203,-0.0293 -0.117188,-0.0703 -0.03516,-0.0469 -0.03516,-0.10547 v -2.98242 q 0,-0.38086 -0.05859,-0.59766 -0.05273,-0.2168 -0.158203,-0.36914 -0.105469,-0.1582 -0.275391,-0.24023 -0.164062,-0.0879 -0.386718,-0.0879 -0.28125,0 -0.56836,0.20508 -0.287109,0.20508 -0.597656,0.59766 v 3.47461 q 0,0.0586 -0.03516,0.10547 -0.03516,0.041 -0.123047,0.0703 -0.08203,0.0293 -0.222656,0.041 -0.140625,0.0176 -0.357422,0.0176 -0.216797,0 -0.357422,-0.0176 -0.140625,-0.0117 -0.228516,-0.041 -0.08203,-0.0293 -0.117187,-0.0703 -0.03516,-0.0469 -0.03516,-0.10547 v -5.22656 q 0,-0.0586 0.0293,-0.0996 0.0293,-0.0469 0.105469,-0.0762 0.07617,-0.0293 0.193359,-0.041 0.123047,-0.0176 0.304688,-0.0176 0.1875,0 0.310547,0.0176 0.123047,0.0117 0.1875,0.041 0.07031,0.0293 0.09961,0.0762 0.0293,0.041 0.0293,0.0996 v 0.60351 q 0.433594,-0.46875 0.878906,-0.70312 0.451172,-0.23438 0.9375,-0.23438 0.533203,0 0.896485,0.17578 0.36914,0.17578 0.591797,0.48047 0.228515,0.29883 0.328125,0.70313 0.09961,0.40429 0.09961,0.97265 z" /><path
     id="path5971"
     style="font-style:normal;font-variant:normal;font-weight:bold;font-stretch:normal;font-family:Calibri;-inkscape-font-specification:'Calibri Bold';fill:#ffffff"
     d="m 65.933971,788.37872 q 0,0.25782 -0.03516,0.39844 -0.0293,0.13477 -0.08203,0.19336 -0.05273,0.0527 -0.158203,0.0996 -0.09961,0.041 -0.240235,0.0703 -0.134765,0.0352 -0.298828,0.0527 -0.158203,0.0176 -0.322265,0.0176 -0.439453,0 -0.761719,-0.11132 -0.322266,-0.11133 -0.533203,-0.33985 -0.210938,-0.23437 -0.310547,-0.58593 -0.09961,-0.35157 -0.09961,-0.83204 v -2.67773 h -0.626954 q -0.111328,0 -0.169921,-0.13477 -0.05859,-0.14062 -0.05859,-0.46289 0,-0.16992 0.01172,-0.28711 0.01758,-0.11718 0.04687,-0.18164 0.0293,-0.0703 0.07031,-0.0996 0.04687,-0.0293 0.105469,-0.0293 h 0.621094 v -1.16602 q 0,-0.0586 0.0293,-0.10547 0.03516,-0.0469 0.117188,-0.0762 0.08789,-0.0352 0.228516,-0.0469 0.146484,-0.0176 0.357421,-0.0176 0.216797,0 0.357422,0.0176 0.146485,0.0117 0.228516,0.0469 0.08203,0.0293 0.117187,0.0762 0.03516,0.0469 0.03516,0.10547 v 1.16602 h 1.136718 q 0.05859,0 0.09961,0.0293 0.04687,0.0293 0.07617,0.0996 0.0293,0.0645 0.04102,0.18164 0.01758,0.11719 0.01758,0.28711 0,0.32227 -0.05859,0.46289 -0.05859,0.13477 -0.169922,0.13477 h -1.142578 v 2.45508 q 0,0.42773 0.134765,0.64453 0.134766,0.21094 0.480469,0.21094 0.117188,0 0.210938,-0.0176 0.09375,-0.0234 0.164062,-0.0469 0.07617,-0.0293 0.123047,-0.0469 0.05273,-0.0234 0.09375,-0.0234 0.03516,0 0.06445,0.0234 0.03516,0.0176 0.05273,0.082 0.01758,0.0586 0.0293,0.16406 0.01758,0.10547 0.01758,0.26953 z" /></g>		</g>
</svg>
