<?xml version="1.0" encoding="UTF-8" standalone="no"?>
<!-- Generated by Microsoft Visio, SVG Export barricade.svg Page-1 -->

<svg
   width="8.5in"
   height="11in"
   viewBox="0 0 612 792"
   xml:space="preserve"
   color-interpolation-filters="sRGB"
   class="st4"
   version="1.1"
   id="svg4742"
   sodipodi:docname="overcast_door_bottom.svg"
   inkscape:version="1.3 (0e150ed6c4, 2023-07-21)"
   xmlns:inkscape="http://www.inkscape.org/namespaces/inkscape"
   xmlns:sodipodi="http://sodipodi.sourceforge.net/DTD/sodipodi-0.dtd"
   xmlns="http://www.w3.org/2000/svg"
   xmlns:svg="http://www.w3.org/2000/svg"
   xmlns:rdf="http://www.w3.org/1999/02/22-rdf-syntax-ns#"
   xmlns:cc="http://creativecommons.org/ns#"
   xmlns:dc="http://purl.org/dc/elements/1.1/"
   xmlns:v="http://schemas.microsoft.com/visio/2003/SVGExtensions/"><metadata
   id="metadata4748"><rdf:RDF><cc:Work
       rdf:about=""><dc:format>image/svg+xml</dc:format><dc:type
         rdf:resource="http://purl.org/dc/dcmitype/StillImage" /></cc:Work></rdf:RDF></metadata><defs
   id="defs4746" /><sodipodi:namedview
   pagecolor="#ffffff"
   bordercolor="#666666"
   borderopacity="1"
   objecttolerance="10"
   gridtolerance="10"
   guidetolerance="10"
   inkscape:pageopacity="0"
   inkscape:pageshadow="2"
   inkscape:window-width="1920"
   inkscape:window-height="1017"
   id="namedview4744"
   showgrid="false"
   inkscape:zoom="2.6457624"
   inkscape:cx="196.16274"
   inkscape:cy="153.26395"
   inkscape:window-x="-8"
   inkscape:window-y="-8"
   inkscape:window-maximized="1"
   inkscape:current-layer="g1"
   inkscape:showpageshadow="2"
   inkscape:pagecheckerboard="0"
   inkscape:deskcolor="#d1d1d1"
   inkscape:document-units="in" />&#10;	<v:documentProperties
   v:langID="1033"
   v:viewMarkup="false">&#10;		<v:userDefs>&#10;			<v:ud
   v:nameU="msvNoAutoConnect"
   v:val="VT0(1):26" />&#10;		</v:userDefs>&#10;	</v:documentProperties>&#10;&#10;	<style
   type="text/css"
   id="style4719">&#10;	<![CDATA[
		.st1 {stroke:#ffffff;stroke-linecap:round;stroke-linejoin:round;stroke-width:0.75}
		.st2 {fill:none;stroke:#ffffff;stroke-linecap:round;stroke-linejoin:round;stroke-width:0.75}
		.st3 {fill:#ffffff;font-family:Calibri;font-size:1.99999em}
		.st4 {fill:none;fill-rule:evenodd;font-size:12px;overflow:visible;stroke-linecap:square;stroke-miterlimit:3}
	]]>&#10;	</style>&#10;&#10;	<g
   v:mID="0"
   v:index="1"
   v:groupContext="foregroundPage"
   id="g4740"
   style="stroke:#000000;stroke-opacity:1;stroke-width:1.875;stroke-miterlimit:3;stroke-dasharray:none">&#10;		<title
   id="title4721">Page-1</title>&#10;		<v:pageProperties
   v:drawingScale="1"
   v:pageScale="1"
   v:drawingUnits="19"
   v:shadowOffsetX="9"
   v:shadowOffsetY="-9" />&#10;		<g
   id="group230-1"
   transform="translate(-751.2,90) rotate(-90)"
   v:mID="230"
   v:groupContext="group"
   style="stroke:#000000;stroke-opacity:1;stroke-width:1.875;stroke-miterlimit:3;stroke-dasharray:none">&#10;			<title
   id="title4723">Barricade</title>&#10;			&#10;			&#10;		<g
   id="g1"
   style="fill:#808080;fill-opacity:0.50156248"><path
     id="rect2"
     style="fill:#ffffff;fill-opacity:0;stroke-width:2.232;stroke-linecap:round;stroke-linejoin:round;stroke:#ffffff;stroke-opacity:1"
     d="M 839.95509,-71.497765 H 766.78084 L 839.95509,1.5373688 H 766.64172 Z"
     sodipodi:nodetypes="ccccc"
     transform="rotate(90)" /><g
     id="g3"
     style="fill:#ffffff;fill-opacity:1;stroke:#ffffff;stroke-opacity:1;stroke-width:0.03790748;stroke-dasharray:none"
     transform="matrix(0,2.0532508,-1.7570057,0,11.353587,785.24952)"><g
       id="text2"
       class="st2"
       style="fill:#ffffff;fill-opacity:1;stroke:#ffffff;stroke-opacity:1;stroke-width:0.03790748;stroke-dasharray:none"><path
         style="color:#000000;stroke:#ffffff;stroke-linecap:round;stroke-linejoin:round;fill:#ffffff;fill-opacity:1;stroke-opacity:1;stroke-width:0.03790748;stroke-dasharray:none"
         d="m 12.522948,7.2326239 q 0,0.9843832 -0.251956,1.7226706 -0.251955,0.732428 -0.738287,1.2187605 -0.480473,0.480472 -1.183604,0.720709 Q 9.6459705,11.135 8.6733061,11.135 H 7.067824 q -0.1347668,0 -0.2578147,-0.08789 Q 6.6928209,10.95336 6.6928209,10.724842 V 3.9630654 q 0,-0.2285175 0.1171884,-0.3164089 0.1230479,-0.093751 0.2578147,-0.093751 h 1.7168112 q 0.9843832,0 1.6640768,0.2578147 0.679693,0.2519552 1.136728,0.7324279 0.462894,0.4746134 0.697271,1.1543066 0.240237,0.6796931 0.240237,1.5351692 z m -1.060556,0.041016 q 0,-0.6152395 -0.152345,-1.1425877 Q 11.157702,5.5978446 10.829574,5.2111227 10.507306,4.8244007 10.009255,4.607602 9.5112037,4.3908033 8.7260409,4.3908033 H 7.7006418 v 5.9004397 h 1.037118 q 0.7265686,0 1.2246196,-0.181642 Q 10.46043,9.9279589 10.794418,9.5529558 11.128405,9.1779526 11.292469,8.615448 11.462392,8.0470838 11.462392,7.2736399 Z"
         id="path2" /><path
         style="color:#000000;fill:#ffffff;stroke:#ffffff;stroke-linecap:round;stroke-linejoin:round;fill-opacity:1;stroke-opacity:1;stroke-width:0.03790748;stroke-dasharray:none"
         d="m 7.0683594,3.1777344 c -0.1753144,0 -0.3483735,0.066911 -0.4824219,0.1679687 C 6.3830122,3.4978973 6.3183594,3.7464433 6.3183594,3.9628906 v 6.7617184 c 0,0.216448 0.063627,0.459887 0.2578125,0.615235 a 0.3750375,0.3750375 0 0 0 0.015625,0.01172 c 0.1347229,0.09623 0.3051977,0.158203 0.4765625,0.158203 h 1.6054687 c 0.6793157,0 1.2780593,-0.0825 1.7968749,-0.259766 0.516403,-0.176438 0.965233,-0.447655 1.328125,-0.810547 C 12.166711,10.07157 12.441193,9.6124485 12.625,9.078125 a 0.3750375,0.3750375 0 0 0 0,-0.00195 c 0.184425,-0.5404058 0.273437,-1.1555011 0.273438,-1.84375 0,-0.6040297 -0.08591,-1.1574096 -0.261719,-1.65625 C 12.465045,5.0783182 12.204553,4.6422606 11.857422,4.2851562 l -0.002,-0.00195 C 11.510656,3.9213346 11.079615,3.6460465 10.582031,3.4609375 c -5.4e-4,-2.049e-4 -0.0014,2.046e-4 -0.002,0 C 10.071171,3.2681965 9.4734184,3.1777344 8.7851563,3.1777344 Z m 0,0.75 h 1.7167969 c 0.6235167,0 1.1342502,0.083789 1.5312497,0.234375 a 0.3750375,0.3750375 0 0 0 0.002,0 c 0.40597,0.1504889 0.732826,0.3619023 0.996094,0.6386718 a 0.3750375,0.3750375 0 0 0 0.002,0.00391 c 0.26821,0.2749998 0.47111,0.6089928 0.611328,1.015625 a 0.3750375,0.3750375 0 0 0 0.002,0.00195 c 0.143684,0.4065219 0.21875,0.8749422 0.21875,1.4101563 0,0.6242607 -0.08091,1.1575861 -0.232422,1.6015625 -0.152133,0.4422461 -0.367878,0.793659 -0.648438,1.0742187 C 10.98984,10.18594 10.649619,10.395185 10.228516,10.539063 9.809825,10.682115 9.291397,10.759766 8.6738281,10.759766 H 7.0683594 c -0.0044,0 -0.015594,-0.0074 -0.021484,-0.0098 0.023829,0.02519 0.021484,0.05281 0.021484,-0.02539 V 3.9628906 c 0,-0.088242 0.013471,-0.050631 -0.033203,-0.015625 a 0.3750375,0.3750375 0 0 0 0.00195,-0.00195 c 0.029536,-0.022503 0.028362,-0.017578 0.03125,-0.017578 z m 0.6328125,0.087891 a 0.3750375,0.3750375 0 0 0 -0.375,0.375 v 5.900391 a 0.3750375,0.3750375 0 0 0 0.375,0.375 h 1.0371094 c 0.5156285,0 0.9663372,-0.06387 1.3535157,-0.205078 0.384725,-0.140312 0.71819,-0.361523 0.982422,-0.6582036 0.263939,-0.2963532 0.455846,-0.6616533 0.578125,-1.0800781 v -0.00195 c 0.126306,-0.4232299 0.185547,-0.9048949 0.185547,-1.4472656 0,-0.4411116 -0.05561,-0.8571718 -0.167969,-1.2460938 -0.114269,-0.399942 -0.298368,-0.7562382 -0.552734,-1.0566406 l -0.002,-0.00195 C 10.861883,4.6654269 10.537044,4.428579 10.158203,4.2636719 9.7600479,4.0903573 9.2845187,4.015625 8.7265625,4.015625 Z m 0.375,0.75 h 0.6503906 c 0.4889264,0 0.8669,0.069797 1.1328125,0.1855469 0.284356,0.1237786 0.505555,0.2886968 0.681641,0.5 a 0.3750375,0.3750375 0 0 0 0.002,0.00195 c 0.182266,0.2148138 0.317645,0.4711335 0.40625,0.78125 0.09077,0.3142083 0.138672,0.6598556 0.138672,1.0390625 0,0.4881667 -0.05439,0.9001926 -0.154297,1.234375 a 0.3750375,0.3750375 0 0 0 -0.002,0.00195 C 10.835145,8.8406084 10.694677,9.0995005 10.513672,9.3027344 10.332587,9.5060573 10.113326,9.6559348 9.8339844,9.7578125 9.5570955,9.8587954 9.1914099,9.9160156 8.7382813,9.9160156 H 8.0761719 Z"
         id="path3" /></g></g></g></g>&#10;	</g>&#10;</svg>
