<?xml version="1.0" encoding="UTF-8" standalone="no"?>
<svg
   xmlns:v="http://schemas.microsoft.com/visio/2003/SVGExtensions/"
   xmlns:dc="http://purl.org/dc/elements/1.1/"
   xmlns:cc="http://creativecommons.org/ns#"
   xmlns:rdf="http://www.w3.org/1999/02/22-rdf-syntax-ns#"
   xmlns:svg="http://www.w3.org/2000/svg"
   xmlns="http://www.w3.org/2000/svg"
   xmlns:sodipodi="http://sodipodi.sourceforge.net/DTD/sodipodi-0.dtd"
   xmlns:inkscape="http://www.inkscape.org/namespaces/inkscape"
   width="8.5in"
   height="11in"
   viewBox="0 0 612 792"
   xml:space="preserve"
   color-interpolation-filters="sRGB"
   class="st3"
   version="1.1"
   id="svg2194"
   sodipodi:docname="power_center.svg"
   inkscape:version="1.0 (4035a4fb49, 2020-05-01)"><metadata
   id="metadata2200"><rdf:RDF><cc:Work
       rdf:about=""><dc:format>image/svg+xml</dc:format><dc:type
         rdf:resource="http://purl.org/dc/dcmitype/StillImage" /><dc:title></dc:title></cc:Work></rdf:RDF></metadata><defs
   id="defs2198">
		
		
		
	</defs><sodipodi:namedview
   inkscape:document-rotation="0"
   pagecolor="#ffffff"
   bordercolor="#666666"
   borderopacity="1"
   objecttolerance="10"
   gridtolerance="10"
   guidetolerance="10"
   inkscape:pageopacity="0"
   inkscape:pageshadow="2"
   inkscape:window-width="1920"
   inkscape:window-height="1017"
   id="namedview2196"
   showgrid="false"
   inkscape:zoom="12.878788"
   inkscape:cx="33.654078"
   inkscape:cy="37.290218"
   inkscape:window-x="1912"
   inkscape:window-y="-8"
   inkscape:window-maximized="1"
   inkscape:current-layer="shape83-1" />
	<v:documentProperties
   v:langID="1033"
   v:viewMarkup="false">
		<v:userDefs>
			<v:ud
   v:nameU="msvNoAutoConnect"
   v:val="VT0(1):26" />
		</v:userDefs>
	</v:documentProperties>

	<style
   type="text/css"
   id="style2179">
	<![CDATA[
		.st1 {fill:none;stroke:#000000;stroke-linecap:round;stroke-linejoin:round;stroke-width:0.75}
		.st2 {fill:#000000;font-family:Calibri;font-size:1.00001em}
		.st3 {fill:none;fill-rule:evenodd;font-size:12px;overflow:visible;stroke-linecap:square;stroke-miterlimit:3}
	]]>
	</style>

	<g
   style="stroke-width:2.25;stroke-miterlimit:4;stroke-dasharray:none"
   transform="translate(18.291177,-752.63294)"
   v:groupContext="shape"
   v:mID="83"
   id="shape83-1">
			<title
   id="title2183">Refuge Alternative</title>
			<desc
   id="desc2185">RA</desc>
			<v:textBlock
   v:margins="rect(4,4,4,4)" />
			<v:textRect
   height="21.6"
   width="21.6"
   cy="781.2"
   cx="10.8" />
			<rect
   style="stroke-width:3.46276;stroke-miterlimit:4;stroke-dasharray:none;stroke:#ffffff;stroke-opacity:1"
   id="rect2187"
   class="st1"
   height="32.267242"
   width="34.247238"
   y="761.80518"
   x="0.95579189" />
			<g
   class="st2"
   style="font-size:24px;font-family:Calibri;fill:#ffffff;stroke-width:2.25;stroke-miterlimit:4;stroke-dasharray:none"
   id="text2189"
   aria-label="PC"><path
     id="path2798"
     style="font-style:normal;font-variant:normal;font-weight:bold;font-stretch:normal;font-size:24px;font-family:Calibri;-inkscape-font-specification:'Calibri Bold';fill:#ffffff"
     d="m 16.745745,774.24139 q 0,1.27735 -0.398438,2.26172 -0.398437,0.98438 -1.160156,1.66407 -0.761719,0.66796 -1.875,1.01953 -1.101563,0.35156 -2.601563,0.35156 H 9.4449635 v 4.83984 q 0,0.11719 -0.082031,0.21094 -0.070312,0.0937 -0.2460937,0.15234 -0.1757813,0.0586 -0.46875,0.0937 -0.2929688,0.0352 -0.75,0.0352 -0.4453125,0 -0.75,-0.0352 -0.2929688,-0.0352 -0.46875,-0.0937 -0.1757813,-0.0586 -0.2460938,-0.15234 -0.070312,-0.0937 -0.070312,-0.21094 v -13.64062 q 0,-0.55078 0.28125,-0.82031 0.2929688,-0.28125 0.7617188,-0.28125 h 3.574219 q 0.539062,0 1.019531,0.0469 0.492187,0.0352 1.171875,0.17578 0.679687,0.12891 1.371094,0.49219 0.703125,0.36328 1.195312,0.92578 0.492188,0.55078 0.75,1.30078 0.257813,0.73828 0.257813,1.66406 z m -3.222657,0.22266 q 0,-0.79687 -0.28125,-1.3125 -0.28125,-0.51562 -0.691406,-0.76172 -0.410156,-0.24609 -0.867187,-0.30469 -0.445313,-0.0703 -0.925782,-0.0703 H 9.4449635 v 5.14453 h 1.3828125 q 0.738281,0 1.230469,-0.19922 0.503906,-0.19921 0.820312,-0.55078 0.316406,-0.36328 0.480469,-0.85547 0.164062,-0.5039 0.164062,-1.08984 z" /><path
     id="path2800"
     style="font-style:normal;font-variant:normal;font-weight:bold;font-stretch:normal;font-size:24px;font-family:Calibri;-inkscape-font-specification:'Calibri Bold';fill:#ffffff"
     d="m 29.648088,782.50311 q 0,0.29297 -0.02344,0.50391 -0.01172,0.19922 -0.04687,0.35156 -0.03516,0.14063 -0.09375,0.2461 -0.05859,0.10546 -0.1875,0.24609 -0.128906,0.12891 -0.503906,0.33984 -0.363282,0.21094 -0.902344,0.41016 -0.527344,0.1875 -1.21875,0.31641 -0.679688,0.1289 -1.476563,0.1289 -1.558593,0 -2.8125,-0.48047 -1.253906,-0.48047 -2.132812,-1.42968 -0.878906,-0.96094 -1.347656,-2.39063 -0.46875,-1.42969 -0.46875,-3.32812 0,-1.9336 0.515625,-3.4336 0.515625,-1.5 1.441406,-2.51953 0.925781,-1.01953 2.214844,-1.54687 1.300781,-0.52735 2.859375,-0.52735 0.632812,0 1.21875,0.10547 0.585937,0.10547 1.078125,0.28125 0.503906,0.16406 0.902343,0.38672 0.398438,0.22266 0.550782,0.38672 0.164062,0.15234 0.222656,0.25781 0.05859,0.10547 0.09375,0.26953 0.03516,0.16406 0.04687,0.38672 0.02344,0.22266 0.02344,0.55078 0,0.35156 -0.02344,0.59766 -0.02344,0.24609 -0.08203,0.39844 -0.05859,0.15234 -0.140625,0.22265 -0.08203,0.0703 -0.1875,0.0703 -0.175782,0 -0.445313,-0.19921 -0.269531,-0.21094 -0.703125,-0.45704 -0.421875,-0.25781 -1.019531,-0.45703 -0.585938,-0.21093 -1.40625,-0.21093 -0.902344,0 -1.617188,0.375 -0.703125,0.36328 -1.207031,1.05468 -0.492187,0.67969 -0.75,1.65235 -0.257812,0.97265 -0.257812,2.1914 0,1.33594 0.269531,2.32032 0.28125,0.97265 0.785156,1.60546 0.515625,0.63282 1.230469,0.94922 0.726562,0.30469 1.628906,0.30469 0.820313,0 1.417969,-0.1875 0.597656,-0.19922 1.019531,-0.43359 0.433594,-0.23438 0.703125,-0.42188 0.28125,-0.1875 0.433594,-0.1875 0.117187,0 0.1875,0.0469 0.07031,0.0469 0.117187,0.1875 0.04687,0.14062 0.07031,0.39843 0.02344,0.2461 0.02344,0.66797 z" /></g>		</g>
</svg>
