<?xml version="1.0" encoding="UTF-8" standalone="no"?>
<svg
   sodipodi:docname="ra-door-top.svg"
   inkscape:version="1.3 (0e150ed6c4, 2023-07-21)"
   id="svg918"
   version="1.1"
   viewBox="0 0 210 297"
   height="297mm"
   width="210mm"
   xmlns:inkscape="http://www.inkscape.org/namespaces/inkscape"
   xmlns:sodipodi="http://sodipodi.sourceforge.net/DTD/sodipodi-0.dtd"
   xmlns="http://www.w3.org/2000/svg"
   xmlns:svg="http://www.w3.org/2000/svg"
   xmlns:rdf="http://www.w3.org/1999/02/22-rdf-syntax-ns#"
   xmlns:cc="http://creativecommons.org/ns#"
   xmlns:dc="http://purl.org/dc/elements/1.1/">
  <defs
     id="defs912" />
  <sodipodi:namedview
     inkscape:window-maximized="0"
     inkscape:window-y="0"
     inkscape:window-x="474"
     inkscape:window-height="1024"
     inkscape:window-width="1424"
     showgrid="false"
     inkscape:document-rotation="0"
     inkscape:current-layer="layer1"
     inkscape:document-units="mm"
     inkscape:cy="110.01144"
     inkscape:cx="150.66987"
     inkscape:zoom="5.3494438"
     inkscape:pageshadow="2"
     inkscape:pageopacity="0.0"
     borderopacity="1.0"
     bordercolor="#666666"
     pagecolor="#ffffff"
     id="base"
     inkscape:showpageshadow="2"
     inkscape:pagecheckerboard="0"
     inkscape:deskcolor="#d1d1d1" />
  <metadata
     id="metadata915">
    <rdf:RDF>
      <cc:Work
         rdf:about="">
        <dc:format>image/svg+xml</dc:format>
        <dc:type
           rdf:resource="http://purl.org/dc/dcmitype/StillImage" />
      </cc:Work>
    </rdf:RDF>
  </metadata>
  <g
     id="layer1"
     inkscape:groupmode="layer"
     inkscape:label="Layer 1">
    <rect
       style="fill:none;fill-opacity:1;stroke:#ffffff;stroke-width:0.79375;stroke-linecap:round;stroke-linejoin:round;stroke-miterlimit:4;stroke-dasharray:none;stroke-opacity:1"
       id="rect902"
       width="12.527429"
       height="13.33555"
       x="33.013405"
       y="28.459555"
       ry="3.5527137e-15" />
    <g
       style="font-style:normal;font-variant:normal;font-weight:normal;font-stretch:normal;font-size:10.5833px;line-height:1.25;font-family:Calibri;-inkscape-font-specification:Calibri;fill:#ffffff;stroke:#ffffff;stroke-width:0.595312;stroke-miterlimit:4;stroke-dasharray:none;stroke-opacity:1"
       id="text906"
       aria-label="RA"
       transform="translate(-3.0656143,4.5762464)">
      <path
         id="path1508"
         style="font-style:normal;font-variant:normal;font-weight:normal;font-stretch:normal;font-family:Calibri;-inkscape-font-specification:Calibri;fill:#ffffff;stroke:#ffffff;stroke-width:0.595312;stroke-opacity:1"
         d="m 41.510729,35.442031 q 0,0.04134 -0.0155,0.07235 -0.0155,0.03101 -0.06718,0.05168 -0.05168,0.02067 -0.144694,0.03101 -0.09302,0.01033 -0.248046,0.01033 -0.134358,0 -0.222208,-0.01033 -0.08268,-0.01033 -0.134358,-0.03101 -0.05168,-0.02584 -0.08268,-0.06718 -0.02584,-0.04134 -0.04651,-0.103353 l -0.614947,-1.576126 q -0.10852,-0.268716 -0.227376,-0.490924 -0.113688,-0.227376 -0.273884,-0.387572 -0.160196,-0.165364 -0.377237,-0.253214 -0.21704,-0.09302 -0.52193,-0.09302 h -0.594277 v 2.847362 q 0,0.04134 -0.02584,0.07235 -0.02067,0.03101 -0.07235,0.05168 -0.04651,0.0155 -0.134358,0.02584 -0.08268,0.0155 -0.211873,0.0155 -0.129191,0 -0.21704,-0.0155 -0.08268,-0.01034 -0.134359,-0.02584 -0.05168,-0.02067 -0.07235,-0.05168 -0.02067,-0.03101 -0.02067,-0.07235 v -6.190817 q 0,-0.201537 0.103353,-0.279052 0.10852,-0.08268 0.227375,-0.08268 h 1.421098 q 0.253213,0 0.418577,0.0155 0.170532,0.01033 0.30489,0.02584 0.387572,0.06718 0.682127,0.211873 0.299722,0.144694 0.50126,0.366901 0.201537,0.222208 0.299722,0.511596 0.103353,0.284219 0.103353,0.63045 0,0.335896 -0.09302,0.604612 -0.08785,0.263549 -0.258381,0.470254 -0.170532,0.201538 -0.408242,0.351399 -0.237711,0.149861 -0.532266,0.253214 0.165364,0.07235 0.299722,0.186034 0.134359,0.10852 0.248046,0.263549 0.118856,0.155029 0.222208,0.356566 0.103353,0.201538 0.206705,0.454752 l 0.599445,1.472773 q 0.07235,0.186035 0.09302,0.263549 0.02067,0.07235 0.02067,0.113688 z m -1.338415,-4.697373 q 0,-0.392739 -0.1757,-0.661456 -0.175699,-0.273884 -0.589109,-0.39274 -0.129191,-0.03617 -0.294555,-0.05168 -0.160196,-0.0155 -0.423745,-0.0155 h -0.749306 v 2.253086 h 0.868161 q 0.351399,0 0.604613,-0.08268 0.258381,-0.08785 0.428913,-0.237711 0.170531,-0.155029 0.248046,-0.361734 0.08268,-0.206705 0.08268,-0.449584 z" />
      <path
         id="path1510"
         style="font-style:normal;font-variant:normal;font-weight:normal;font-stretch:normal;font-family:Calibri;-inkscape-font-specification:Calibri;fill:#ffffff;stroke:#ffffff;stroke-width:0.595312;stroke-opacity:1"
         d="m 47.804898,35.261164 q 0.04134,0.113688 0.04134,0.186035 0.0052,0.06718 -0.03617,0.103352 -0.04134,0.03617 -0.139526,0.04651 -0.09302,0.01033 -0.253214,0.01033 -0.160196,0 -0.258381,-0.01033 -0.09302,-0.0052 -0.144694,-0.02067 -0.04651,-0.02067 -0.07235,-0.05168 -0.02067,-0.03101 -0.04134,-0.07751 l -0.573607,-1.627803 h -2.780183 l -0.547769,1.607132 q -0.0155,0.04651 -0.04134,0.08268 -0.02584,0.03101 -0.07751,0.05684 -0.04651,0.02067 -0.139526,0.03101 -0.08785,0.01033 -0.232543,0.01033 -0.149861,0 -0.248046,-0.0155 -0.09302,-0.01034 -0.134359,-0.04651 -0.03617,-0.03617 -0.03617,-0.103353 0.0052,-0.07235 0.04651,-0.186035 l 2.24275,-6.211487 q 0.02067,-0.05684 0.05168,-0.09302 0.03617,-0.03617 0.09819,-0.05684 0.06718,-0.02067 0.165364,-0.02584 0.103352,-0.01034 0.258381,-0.01034 0.165364,0 0.273884,0.01034 0.108521,0.0052 0.1757,0.02584 0.06718,0.02067 0.103352,0.06201 0.03617,0.03617 0.05684,0.09302 z M 44.92653,29.778312 h -0.0052 l -1.152381,3.333119 h 2.325432 z" />
    </g>
    <g
       style="font-style:normal;font-variant:normal;font-weight:normal;font-stretch:normal;font-size:7.05556px;line-height:1.25;font-family:Calibri;-inkscape-font-specification:Calibri;fill:#ffffff;stroke:#ffffff;stroke-width:0.595312;stroke-miterlimit:4;stroke-dasharray:none;stroke-opacity:1"
       id="text910"
       aria-label="D"
       transform="translate(-12.219758,-6.9989333)">
      <path
         id="path1513"
         style="font-style:normal;font-variant:normal;font-weight:normal;font-stretch:normal;font-size:7.05556px;font-family:Calibri;-inkscape-font-specification:Calibri;fill:#ffffff;stroke:#ffffff;stroke-width:0.595312;stroke-miterlimit:4;stroke-dasharray:none;stroke-opacity:1"
         d="m 53.416696,35.249141 q 0,0.578776 -0.148139,1.012858 -0.148139,0.430638 -0.434083,0.716581 -0.282498,0.282498 -0.695909,0.423747 -0.413412,0.141249 -0.985298,0.141249 H 50.20931 q -0.07924,0 -0.151584,-0.05168 -0.0689,-0.05512 -0.0689,-0.18948 v -3.975643 q 0,-0.134359 0.0689,-0.186035 0.07235,-0.05512 0.151584,-0.05512 h 1.009414 q 0.578776,0 0.978407,0.151585 0.399632,0.148139 0.668349,0.430637 0.272163,0.279053 0.409967,0.678684 0.141249,0.399631 0.141249,0.902617 z m -0.623563,0.02412 q 0,-0.361735 -0.08957,-0.671794 -0.08957,-0.313504 -0.282498,-0.54088 -0.189481,-0.227376 -0.482314,-0.354845 -0.292833,-0.127469 -0.754476,-0.127469 h -0.602892 v 3.469214 h 0.609782 q 0.427192,0 0.720025,-0.106798 0.292834,-0.106798 0.489204,-0.327285 0.196371,-0.220486 0.292833,-0.551215 0.09991,-0.334175 0.09991,-0.788928 z" />
    </g>
  </g>
</svg>
