<?xml version="1.0" encoding="UTF-8" standalone="no"?>
<svg
   xmlns:v="http://schemas.microsoft.com/visio/2003/SVGExtensions/"
   xmlns:dc="http://purl.org/dc/elements/1.1/"
   xmlns:cc="http://creativecommons.org/ns#"
   xmlns:rdf="http://www.w3.org/1999/02/22-rdf-syntax-ns#"
   xmlns:svg="http://www.w3.org/2000/svg"
   xmlns="http://www.w3.org/2000/svg"
   xmlns:sodipodi="http://sodipodi.sourceforge.net/DTD/sodipodi-0.dtd"
   xmlns:inkscape="http://www.inkscape.org/namespaces/inkscape"
   width="8.5in"
   height="11in"
   viewBox="0 0 612 792"
   xml:space="preserve"
   color-interpolation-filters="sRGB"
   class="st3"
   version="1.1"
   id="svg2194"
   sodipodi:docname="refuge_chamber.svg"
   inkscape:version="1.0 (4035a4fb49, 2020-05-01)"><metadata
   id="metadata2200"><rdf:RDF><cc:Work
       rdf:about=""><dc:format>image/svg+xml</dc:format><dc:type
         rdf:resource="http://purl.org/dc/dcmitype/StillImage" /><dc:title></dc:title></cc:Work></rdf:RDF></metadata><defs
   id="defs2198">
		
		
		
	</defs><sodipodi:namedview
   inkscape:document-rotation="0"
   pagecolor="#ffffff"
   bordercolor="#666666"
   borderopacity="1"
   objecttolerance="10"
   gridtolerance="10"
   guidetolerance="10"
   inkscape:pageopacity="0"
   inkscape:pageshadow="2"
   inkscape:window-width="2400"
   inkscape:window-height="1271"
   id="namedview2196"
   showgrid="false"
   inkscape:zoom="12.878788"
   inkscape:cx="44.912902"
   inkscape:cy="39.688855"
   inkscape:window-x="2391"
   inkscape:window-y="-9"
   inkscape:window-maximized="1"
   inkscape:current-layer="shape83-1" />
	<v:documentProperties
   v:langID="1033"
   v:viewMarkup="false">
		<v:userDefs>
			<v:ud
   v:nameU="msvNoAutoConnect"
   v:val="VT0(1):26" />
		</v:userDefs>
	</v:documentProperties>

	<style
   type="text/css"
   id="style2179">
	<![CDATA[
		.st1 {fill:none;stroke:#000000;stroke-linecap:round;stroke-linejoin:round;stroke-width:0.75}
		.st2 {fill:#000000;font-family:Calibri;font-size:1.00001em}
		.st3 {fill:none;fill-rule:evenodd;font-size:12px;overflow:visible;stroke-linecap:square;stroke-miterlimit:3}
	]]>
	</style>

	<g
   style="stroke-width:2.25;stroke-miterlimit:4;stroke-dasharray:none"
   transform="translate(18.291177,-752.63294)"
   v:groupContext="shape"
   v:mID="83"
   id="shape83-1"><g
   style="font-style:normal;font-variant:normal;font-weight:bold;font-stretch:normal;font-size:24px;line-height:1.25;font-family:Calibri;-inkscape-font-specification:'Calibri, Bold';font-variant-ligatures:normal;font-variant-caps:normal;font-variant-numeric:normal;font-variant-east-asian:normal;fill:#ffffff;stroke-width:1.6875;fill-opacity:1"
   id="text2914"
   aria-label="RC"><path
     id="path2916"
     style="font-style:normal;font-variant:normal;font-weight:bold;font-stretch:normal;font-size:24px;font-family:Calibri;-inkscape-font-specification:'Calibri, Bold';font-variant-ligatures:normal;font-variant-caps:normal;font-variant-numeric:normal;font-variant-east-asian:normal;fill:#ffffff;stroke-width:1.6875;fill-opacity:1"
     d="m 16.857049,784.38043 q 0,0.12891 -0.04687,0.22266 -0.04687,0.082 -0.222657,0.14062 -0.175781,0.0586 -0.515625,0.082 -0.339843,0.0234 -0.925781,0.0234 -0.492187,0 -0.785156,-0.0234 -0.292969,-0.0234 -0.46875,-0.082 -0.164063,-0.0703 -0.234375,-0.16406 -0.07031,-0.10547 -0.117188,-0.24609 l -1.359375,-3.38672 q -0.246093,-0.57422 -0.480468,-1.01953 -0.234375,-0.44532 -0.527344,-0.73828 -0.28125,-0.30469 -0.65625,-0.45704 -0.375,-0.15234 -0.8671875,-0.15234 H 8.68908 v 5.77734 q 0,0.11719 -0.082031,0.21094 -0.070312,0.0937 -0.2460937,0.15235 -0.1757813,0.0586 -0.46875,0.0937 -0.2929688,0.0352 -0.75,0.0352 -0.4453125,0 -0.75,-0.0352 -0.2929688,-0.0352 -0.46875,-0.0937 -0.1757813,-0.0586 -0.2460938,-0.15235 -0.070312,-0.0937 -0.070312,-0.21094 v -13.76953 q 0,-0.51562 0.2578125,-0.73828 0.2695313,-0.23437 0.65625,-0.23437 h 3.9257808 q 0.597657,0 0.984375,0.0234 0.386719,0.0234 0.703125,0.0586 0.914063,0.1289 1.640625,0.44531 0.738282,0.31641 1.242188,0.83203 0.515625,0.50391 0.785156,1.20703 0.269531,0.69141 0.269531,1.59375 0,0.76172 -0.199218,1.39453 -0.1875,0.6211 -0.5625,1.11329 -0.375,0.49218 -0.925782,0.85546 -0.550781,0.36329 -1.253906,0.58594 0.339844,0.16406 0.632813,0.39844 0.304687,0.23437 0.5625,0.57422 0.269531,0.32812 0.503906,0.76172 0.234375,0.42187 0.457031,0.96093 l 1.277344,2.98829 q 0.175781,0.44531 0.234375,0.65625 0.05859,0.19921 0.05859,0.3164 z m -3.972657,-10.28906 q 0,-0.75 -0.339843,-1.26563 -0.339844,-0.51562 -1.113282,-0.72656 -0.234375,-0.0586 -0.539062,-0.0937 -0.292969,-0.0352 -0.820313,-0.0352 H 8.68908 v 4.30078 h 1.570312 q 0.65625,0 1.148438,-0.15235 0.492187,-0.16406 0.820312,-0.44531 0.328125,-0.29297 0.492188,-0.69141 0.164062,-0.39843 0.164062,-0.89062 z" /><path
     id="path2918"
     style="font-style:normal;font-variant:normal;font-weight:bold;font-stretch:normal;font-size:24px;font-family:Calibri;-inkscape-font-specification:'Calibri, Bold';font-variant-ligatures:normal;font-variant-caps:normal;font-variant-numeric:normal;font-variant-east-asian:normal;fill:#ffffff;stroke-width:1.6875;fill-opacity:1"
     d="m 29.40783,782.48199 q 0,0.29297 -0.02344,0.50391 -0.01172,0.19922 -0.04687,0.35156 -0.03516,0.14063 -0.09375,0.2461 -0.05859,0.10547 -0.1875,0.24609 -0.128906,0.12891 -0.503906,0.33984 -0.363281,0.21094 -0.902344,0.41016 -0.527343,0.1875 -1.21875,0.31641 -0.679687,0.1289 -1.476562,0.1289 -1.558594,0 -2.8125,-0.48047 -1.253906,-0.48046 -2.132813,-1.42968 -0.878906,-0.96094 -1.347656,-2.39063 -0.46875,-1.42969 -0.46875,-3.32812 0,-1.9336 0.515625,-3.4336 0.515625,-1.5 1.441406,-2.51953 0.925782,-1.01953 2.214844,-1.54687 1.300781,-0.52735 2.859375,-0.52735 0.632813,0 1.21875,0.10547 0.585938,0.10547 1.078125,0.28125 0.503906,0.16406 0.902344,0.38672 0.398437,0.22266 0.550781,0.38672 0.164063,0.15234 0.222656,0.25781 0.05859,0.10547 0.09375,0.26953 0.03516,0.16407 0.04687,0.38672 0.02344,0.22266 0.02344,0.55078 0,0.35157 -0.02344,0.59766 -0.02344,0.24609 -0.08203,0.39844 -0.05859,0.15234 -0.140625,0.22265 -0.08203,0.0703 -0.1875,0.0703 -0.175781,0 -0.445312,-0.19922 -0.269532,-0.21094 -0.703125,-0.45703 -0.421875,-0.25782 -1.019532,-0.45704 -0.585937,-0.21093 -1.40625,-0.21093 -0.902343,0 -1.617187,0.375 -0.703125,0.36328 -1.207031,1.05468 -0.492188,0.67969 -0.75,1.65235 -0.257813,0.97265 -0.257813,2.1914 0,1.33594 0.269531,2.32032 0.28125,0.97265 0.785157,1.60547 0.515625,0.63281 1.230468,0.94921 0.726563,0.30469 1.628907,0.30469 0.820312,0 1.417968,-0.1875 0.597657,-0.19922 1.019532,-0.43359 0.433593,-0.23438 0.703125,-0.42188 0.28125,-0.1875 0.433593,-0.1875 0.117188,0 0.1875,0.0469 0.07031,0.0469 0.117188,0.1875 0.04687,0.14062 0.07031,0.39844 0.02344,0.24609 0.02344,0.66796 z" /></g>
			<title
   id="title2183">Refuge Alternative</title>
			<desc
   id="desc2185">RA</desc>
			<v:textBlock
   v:margins="rect(4,4,4,4)" />
			<v:textRect
   height="21.6"
   width="21.6"
   cy="781.2"
   cx="10.8" />
			<rect
   style="stroke-width:3.46276;stroke-miterlimit:4;stroke-dasharray:none;fill:none;stroke:#ffffff;stroke-opacity:1"
   id="rect2187"
   class="st1"
   height="32.267242"
   width="34.247238"
   y="761.80518"
   x="0.95579189" />
					</g>
</svg>
