<?xml version="1.0" encoding="UTF-8" standalone="no"?>
<svg
   xmlns:v="http://schemas.microsoft.com/visio/2003/SVGExtensions/"
   xmlns:dc="http://purl.org/dc/elements/1.1/"
   xmlns:cc="http://creativecommons.org/ns#"
   xmlns:rdf="http://www.w3.org/1999/02/22-rdf-syntax-ns#"
   xmlns:svg="http://www.w3.org/2000/svg"
   xmlns="http://www.w3.org/2000/svg"
   xmlns:sodipodi="http://sodipodi.sourceforge.net/DTD/sodipodi-0.dtd"
   xmlns:inkscape="http://www.inkscape.org/namespaces/inkscape"
   inkscape:version="1.0 (4035a4fb49, 2020-05-01)"
   sodipodi:docname="refuge_alternative.svg"
   id="svg2194"
   version="1.1"
   class="st3"
   color-interpolation-filters="sRGB"
   xml:space="preserve"
   viewBox="0 0 612 792"
   height="11in"
   width="8.5in"><metadata
   id="metadata2200"><rdf:RDF><cc:Work
       rdf:about=""><dc:format>image/svg+xml</dc:format><dc:type
         rdf:resource="http://purl.org/dc/dcmitype/StillImage" /><dc:title></dc:title></cc:Work></rdf:RDF></metadata><defs
   id="defs2198">
		
		
		
	</defs><sodipodi:namedview
   inkscape:current-layer="shape83-1"
   inkscape:window-maximized="1"
   inkscape:window-y="-8"
   inkscape:window-x="1912"
   inkscape:cy="37.290218"
   inkscape:cx="48.601137"
   inkscape:zoom="12.878788"
   showgrid="false"
   id="namedview2196"
   inkscape:window-height="1017"
   inkscape:window-width="1920"
   inkscape:pageshadow="2"
   inkscape:pageopacity="0"
   guidetolerance="10"
   gridtolerance="10"
   objecttolerance="10"
   borderopacity="1"
   bordercolor="#666666"
   pagecolor="#ffffff" />
	<v:documentProperties
   v:viewMarkup="false"
   v:langID="1033">
		<v:userDefs>
			<v:ud
   v:val="VT0(1):26"
   v:nameU="msvNoAutoConnect" />
		</v:userDefs>
	</v:documentProperties>

	<style
   id="style2179"
   type="text/css">
	<![CDATA[
		.st1 {fill:none;stroke:#000000;stroke-linecap:round;stroke-linejoin:round;stroke-width:0.75}
		.st2 {fill:#000000;font-family:Calibri;font-size:1.00001em}
		.st3 {fill:none;fill-rule:evenodd;font-size:12px;overflow:visible;stroke-linecap:square;stroke-miterlimit:3}
	]]>
	</style>

	<g
   id="shape83-1"
   v:mID="83"
   v:groupContext="shape"
   transform="translate(18.291177,-752.63294)"
   style="stroke-width:2.25;stroke-miterlimit:4;stroke-dasharray:none">
			<title
   id="title2183">Refuge Alternative</title>
			<desc
   id="desc2185">RA</desc>
			<v:textBlock
   v:margins="rect(4,4,4,4)" />
			<v:textRect
   cx="10.8"
   cy="781.2"
   width="21.6"
   height="21.6" />
			<rect
   x="0.95579189"
   y="761.80518"
   width="34.247238"
   height="32.267242"
   class="st1"
   id="rect2187"
   style="stroke-width:3.46276;stroke-miterlimit:4;stroke-dasharray:none;fill:none;stroke:#ffffff;stroke-opacity:1" />
			<g
   class="st2"
   style="font-size:24px;font-family:Calibri;fill:#ffffff;stroke-width:2.25;stroke-miterlimit:4;stroke-dasharray:none;stroke:none;stroke-opacity:1"
   id="text2189"
   aria-label="RA"><path
     id="path2771"
     style="font-style:normal;font-variant:normal;font-weight:bold;font-stretch:normal;font-size:24px;font-family:Calibri;-inkscape-font-specification:'Calibri Bold';stroke:none;stroke-opacity:1;fill:#ffffff"
     d="m 16.972344,784.40155 q 0,0.12891 -0.04687,0.22266 -0.04687,0.082 -0.222656,0.14062 -0.175782,0.0586 -0.515625,0.082 -0.339844,0.0234 -0.925782,0.0234 -0.492187,0 -0.785156,-0.0234 -0.292969,-0.0234 -0.46875,-0.082 -0.164062,-0.0703 -0.234375,-0.16406 -0.07031,-0.10547 -0.117187,-0.24609 l -1.359375,-3.38672 q -0.246094,-0.57422 -0.480469,-1.01953 -0.234375,-0.44532 -0.527344,-0.73829 -0.28125,-0.30468 -0.65625,-0.45703 -0.375,-0.15234 -0.8671873,-0.15234 H 8.8043752 v 5.77734 q 0,0.11719 -0.082031,0.21094 -0.070312,0.0937 -0.2460937,0.15234 -0.1757813,0.0586 -0.46875,0.0937 -0.2929688,0.0352 -0.75,0.0352 -0.4453125,0 -0.75,-0.0352 -0.2929688,-0.0352 -0.46875,-0.0937 -0.1757813,-0.0586 -0.2460938,-0.15234 -0.070312,-0.0937 -0.070312,-0.21094 v -13.76953 q 0,-0.51562 0.2578125,-0.73828 0.2695313,-0.23437 0.65625,-0.23437 h 3.9257816 q 0.597656,0 0.984375,0.0234 0.386718,0.0234 0.703125,0.0586 0.914062,0.1289 1.640625,0.44531 0.738281,0.31641 1.242187,0.83203 0.515625,0.50391 0.785156,1.20703 0.269532,0.69141 0.269532,1.59375 0,0.76172 -0.199219,1.39453 -0.1875,0.6211 -0.5625,1.11328 -0.375,0.49219 -0.925781,0.85547 -0.550782,0.36328 -1.253907,0.58594 0.339844,0.16406 0.632813,0.39844 0.304687,0.23437 0.5625,0.57422 0.269531,0.32812 0.503906,0.76172 0.234375,0.42187 0.457031,0.96093 l 1.277344,2.98828 q 0.175781,0.44532 0.234375,0.65625 0.05859,0.19922 0.05859,0.31641 z m -3.972656,-10.28906 q 0,-0.75 -0.339844,-1.26563 -0.339844,-0.51562 -1.113281,-0.72656 -0.234375,-0.0586 -0.539063,-0.0937 -0.292969,-0.0352 -0.820312,-0.0352 H 8.8043752 v 4.30079 h 1.5703128 q 0.65625,0 1.148437,-0.15235 0.492188,-0.16406 0.820313,-0.44531 0.328125,-0.29297 0.492187,-0.69141 0.164063,-0.39843 0.164063,-0.89062 z" /><path
     id="path2773"
     style="font-style:normal;font-variant:normal;font-weight:bold;font-stretch:normal;font-size:24px;font-family:Calibri;-inkscape-font-specification:'Calibri Bold';stroke:none;stroke-opacity:1;fill:#ffffff"
     d="m 31.644219,783.65155 q 0.140625,0.42188 0.175781,0.66797 0.03516,0.24609 -0.09375,0.375 -0.128906,0.11719 -0.457031,0.14062 -0.328125,0.0352 -0.902344,0.0352 -0.597656,0 -0.9375,-0.0234 -0.328125,-0.0117 -0.503906,-0.0586 -0.175781,-0.0586 -0.246094,-0.15234 -0.07031,-0.0937 -0.117187,-0.2461 l -1.019532,-3.04687 h -5.695312 l -0.960938,2.96484 q -0.04687,0.16406 -0.128906,0.28125 -0.07031,0.10547 -0.246094,0.17578 -0.164062,0.0586 -0.480468,0.082 -0.304688,0.0234 -0.808594,0.0234 -0.539063,0 -0.84375,-0.0352 -0.304688,-0.0352 -0.421875,-0.16406 -0.117188,-0.14062 -0.08203,-0.38672 0.03516,-0.24609 0.175781,-0.65625 l 4.675781,-13.45312 q 0.07031,-0.19922 0.164063,-0.31641 0.09375,-0.1289 0.292968,-0.1875 0.210938,-0.0703 0.574219,-0.082 0.363281,-0.0234 0.960938,-0.0234 0.691406,0 1.101562,0.0234 0.410156,0.0117 0.632813,0.082 0.234375,0.0586 0.328125,0.1875 0.105468,0.12891 0.175781,0.35156 z m -6.960938,-11.12109 h -0.01172 l -2.144532,6.44531 h 4.300782 z" /></g>		</g>
</svg>
