<?xml version="1.0" encoding="UTF-8" standalone="no"?>
<svg
   xmlns:v="http://schemas.microsoft.com/visio/2003/SVGExtensions/"
   xmlns:dc="http://purl.org/dc/elements/1.1/"
   xmlns:cc="http://creativecommons.org/ns#"
   xmlns:rdf="http://www.w3.org/1999/02/22-rdf-syntax-ns#"
   xmlns:svg="http://www.w3.org/2000/svg"
   xmlns="http://www.w3.org/2000/svg"
   xmlns:sodipodi="http://sodipodi.sourceforge.net/DTD/sodipodi-0.dtd"
   xmlns:inkscape="http://www.inkscape.org/namespaces/inkscape"
   width="8.5in"
   height="11in"
   viewBox="0 0 612 792"
   xml:space="preserve"
   color-interpolation-filters="sRGB"
   class="st4"
   version="1.1"
   id="svg64"
   sodipodi:docname="regulator.svg"
   inkscape:version="1.0 (4035a4fb49, 2020-05-01)"><metadata
   id="metadata70"><rdf:RDF><cc:Work
       rdf:about=""><dc:format>image/svg+xml</dc:format><dc:type
         rdf:resource="http://purl.org/dc/dcmitype/StillImage" /><dc:title /></cc:Work></rdf:RDF></metadata><defs
   id="defs68">
			
			
			
		</defs><sodipodi:namedview
   inkscape:document-rotation="0"
   pagecolor="#ffffff"
   bordercolor="#666666"
   borderopacity="1"
   objecttolerance="10"
   gridtolerance="10"
   guidetolerance="10"
   inkscape:pageopacity="0"
   inkscape:pageshadow="2"
   inkscape:window-width="1920"
   inkscape:window-height="1017"
   id="namedview66"
   showgrid="false"
   inkscape:zoom="5.6568543"
   inkscape:cx="23.232812"
   inkscape:cy="31.435725"
   inkscape:window-x="1912"
   inkscape:window-y="-8"
   inkscape:window-maximized="1"
   inkscape:current-layer="g62" />
	<v:documentProperties
   v:langID="1033"
   v:viewMarkup="false">
		<v:userDefs>
			<v:ud
   v:nameU="msvNoAutoConnect"
   v:val="VT0(1):26" />
		</v:userDefs>
	</v:documentProperties>

	<style
   type="text/css"
   id="style41">
	<![CDATA[
		.st1 {stroke:#000000;stroke-linecap:round;stroke-linejoin:round;stroke-width:0.75}
		.st2 {fill:none;stroke:none;stroke-linecap:round;stroke-linejoin:round;stroke-width:0.75}
		.st3 {fill:#000000;font-family:Calibri;font-size:1.99999em}
		.st4 {fill:none;fill-rule:evenodd;font-size:12px;overflow:visible;stroke-linecap:square;stroke-miterlimit:3}
	]]>
	</style>

	<g
   v:mID="0"
   v:index="1"
   v:groupContext="foregroundPage"
   id="g62"
   style="stroke-width:2.25;stroke-miterlimit:4;stroke-dasharray:none">
		<title
   id="title43">Page-1</title>
		<v:pageProperties
   v:drawingScale="1"
   v:pageScale="1"
   v:drawingUnits="19"
   v:shadowOffsetX="9"
   v:shadowOffsetY="-9" />
		
	<text
   xml:space="preserve"
   style="font-weight:bold;font-size:30px;line-height:1.25;font-family:Calibri;-inkscape-font-specification:'Calibri Bold';stroke-width:1.6875"
   x="21.248142"
   y="53.861572"
   id="text3836"><tspan
     sodipodi:role="line"
     id="tspan3834"
     x="21.248142"
     y="53.861572"
     style="stroke-width:1.6875" /></text><g
   id="shape215-2-0"
   v:mID="215"
   v:groupContext="shape"
   transform="rotate(-90,-334.79973,424.94332)"
   style="stroke:#ff0000;stroke-width:2.25;stroke-miterlimit:4;stroke-dasharray:none;stroke-opacity:1"><title
     id="title47-9">Sheet.215</title><path
     d="M -0.39774756,791.46967 H 71.602252"
     class="st1"
     id="path49-9"
     style="fill:none;fill-opacity:1;stroke:#ffffff;stroke-width:2.25;stroke-miterlimit:4;stroke-dasharray:none;stroke-opacity:1" /></g><g
   id="shape215-2-5"
   v:mID="215"
   v:groupContext="shape"
   transform="rotate(-90,-336.73499,427.26199)"
   style="stroke:#ff0000;stroke-width:2.25;stroke-miterlimit:4;stroke-dasharray:none;stroke-opacity:1"><title
     id="title47-7">Sheet.215</title><path
     d="M 0,792 H 72"
     class="st1"
     id="path49-4"
     style="fill:none;fill-opacity:1;stroke:#ffffff;stroke-width:2.25;stroke-miterlimit:4;stroke-dasharray:none;stroke-opacity:1" /></g><g
   aria-label="R"
   id="text3910"
   style="font-weight:bold;font-size:30px;line-height:1.25;font-family:Calibri;-inkscape-font-specification:'Calibri Bold';stroke-width:2.25;stroke-miterlimit:4;stroke-dasharray:none;fill:#ffffff;fill-opacity:1"
   transform="rotate(-89.975212,57.347658,58.638288)"><path
     d="m 68.53418,39.908203 q 0,0.161133 -0.05859,0.27832 -0.05859,0.102539 -0.27832,0.175782 -0.219727,0.07324 -0.644532,0.102539 -0.424804,0.0293 -1.157226,0.0293 -0.615235,0 -0.981446,-0.0293 -0.36621,-0.0293 -0.585937,-0.102539 -0.205078,-0.08789 -0.292969,-0.205078 -0.08789,-0.131836 -0.146484,-0.307618 l -1.699219,-4.233398 q -0.307617,-0.717774 -0.600586,-1.274414 -0.292969,-0.556641 -0.65918,-0.922852 -0.351562,-0.380859 -0.820312,-0.571289 -0.46875,-0.190429 -1.083984,-0.190429 h -1.201172 v 7.221679 q 0,0.146485 -0.102539,0.263672 -0.08789,0.117188 -0.307618,0.19043 -0.219726,0.07324 -0.585937,0.117187 -0.366211,0.04395 -0.9375,0.04395 -0.556641,0 -0.9375,-0.04395 -0.366211,-0.04395 -0.585938,-0.117187 -0.219726,-0.07324 -0.307617,-0.19043 -0.08789,-0.117187 -0.08789,-0.263672 V 22.666992 q 0,-0.644531 0.322265,-0.922851 0.336914,-0.292969 0.820313,-0.292969 h 4.907226 q 0.747071,0 1.230469,0.0293 0.483399,0.0293 0.878906,0.07324 1.142578,0.161133 2.050782,0.556641 0.922851,0.395507 1.552734,1.040039 0.644531,0.629882 0.981445,1.508789 0.336914,0.864257 0.336914,1.992187 0,0.952149 -0.249023,1.743164 -0.234375,0.776367 -0.703125,1.391602 -0.46875,0.615234 -1.157227,1.069336 -0.688476,0.454101 -1.567382,0.732422 0.424804,0.205078 0.791015,0.498046 0.38086,0.292969 0.703125,0.717774 0.336914,0.410156 0.629883,0.952148 0.292969,0.527344 0.571289,1.201172 l 1.59668,3.735352 q 0.219726,0.55664 0.292968,0.820312 0.07324,0.249024 0.07324,0.395508 z M 63.568359,27.046875 q 0,-0.9375 -0.424804,-1.582031 -0.424805,-0.644532 -1.391602,-0.908203 -0.292969,-0.07324 -0.673828,-0.117188 -0.366211,-0.04395 -1.025391,-0.04395 h -1.728515 v 5.375976 h 1.96289 q 0.820313,0 1.435547,-0.190429 0.615235,-0.205078 1.025391,-0.556641 0.410156,-0.366211 0.615234,-0.864258 0.205078,-0.498047 0.205078,-1.113281 z"
     style="stroke-width:2.25;stroke-miterlimit:4;stroke-dasharray:none;fill:#ffffff;fill-opacity:1"
     id="path3912" /></g></g>
</svg>
