<?xml version="1.0" encoding="UTF-8" standalone="no"?>
<svg
   xmlns:v="http://schemas.microsoft.com/visio/2003/SVGExtensions/"
   xmlns:dc="http://purl.org/dc/elements/1.1/"
   xmlns:cc="http://creativecommons.org/ns#"
   xmlns:rdf="http://www.w3.org/1999/02/22-rdf-syntax-ns#"
   xmlns:svg="http://www.w3.org/2000/svg"
   xmlns="http://www.w3.org/2000/svg"
   xmlns:sodipodi="http://sodipodi.sourceforge.net/DTD/sodipodi-0.dtd"
   xmlns:inkscape="http://www.inkscape.org/namespaces/inkscape"
   inkscape:version="1.0 (4035a4fb49, 2020-05-01)"
   sodipodi:docname="runthru_curtain.svg"
   id="svg64"
   version="1.1"
   class="st4"
   color-interpolation-filters="sRGB"
   xml:space="preserve"
   viewBox="0 0 612 792"
   height="11in"
   width="8.5in"><metadata
   id="metadata70"><rdf:RDF><cc:Work
       rdf:about=""><dc:format>image/svg+xml</dc:format><dc:type
         rdf:resource="http://purl.org/dc/dcmitype/StillImage" /><dc:title></dc:title></cc:Work></rdf:RDF></metadata><defs
   id="defs68"><rect
   id="rect865"
   height="36.338824"
   width="34.009412"
   y="939.63529"
   x="47.138823" /><inkscape:path-effect
   lpeversion="1"
   is_visible="true"
   id="path-effect861"
   effect="spiro" /><inkscape:path-effect
   lpeversion="1"
   is_visible="true"
   id="path-effect857"
   effect="spiro" />
			
			
			
		</defs><sodipodi:namedview
   inkscape:current-layer="shape215-2"
   inkscape:window-maximized="1"
   inkscape:window-y="-9"
   inkscape:window-x="2391"
   inkscape:cy="115.52688"
   inkscape:cx="164.56241"
   inkscape:zoom="3.219697"
   showgrid="false"
   id="namedview66"
   inkscape:window-height="1271"
   inkscape:window-width="2400"
   inkscape:pageshadow="2"
   inkscape:pageopacity="0"
   guidetolerance="10"
   gridtolerance="10"
   objecttolerance="10"
   borderopacity="1"
   bordercolor="#666666"
   pagecolor="#ffffff"
   inkscape:document-rotation="0" />
	<v:documentProperties
   v:viewMarkup="false"
   v:langID="1033">
		<v:userDefs>
			<v:ud
   v:val="VT0(1):26"
   v:nameU="msvNoAutoConnect" />
		</v:userDefs>
	</v:documentProperties>

	<style
   id="style41"
   type="text/css">
	<![CDATA[
		.st1 {stroke:#000000;stroke-linecap:round;stroke-linejoin:round;stroke-width:0.75}
		.st2 {fill:none;stroke:none;stroke-linecap:round;stroke-linejoin:round;stroke-width:0.75}
		.st3 {fill:#000000;font-family:Calibri;font-size:1.99999em}
		.st4 {fill:none;fill-rule:evenodd;font-size:12px;overflow:visible;stroke-linecap:square;stroke-miterlimit:3}
	]]>
	</style>

	<g
   style="stroke-width:2.25;stroke-miterlimit:4;stroke-dasharray:none"
   id="g62"
   v:groupContext="foregroundPage"
   v:index="1"
   v:mID="0">
		<title
   id="title43">Page-1</title>
		<v:pageProperties
   v:shadowOffsetY="-9"
   v:shadowOffsetX="9"
   v:drawingUnits="19"
   v:pageScale="1"
   v:drawingScale="1" />
		<g
   id="shape215-2"
   v:mID="215"
   v:groupContext="shape"
   transform="rotate(-90,-336.3,426.3)"
   style="stroke:#ff0000;stroke-width:2.25;stroke-miterlimit:4;stroke-dasharray:none;stroke-opacity:1">
				<title
   id="title47">Sheet.215</title>
				
			<path
   sodipodi:nodetypes="cssc"
   inkscape:path-effect="#path-effect861"
   inkscape:original-d="m 72.465882,918.72 c -7.899574,2.1584 -12.770162,3.15133 -20.668234,5.30823 -7.898074,2.1569 -18.893267,-9.13496 -28.185884,-8.61882 -73.232689,4.06754 -15.4313366,1.43134 -23.14588165,3.31059"
   id="path859"
   d="m 72.465882,918.72 c -5.954044,4.16904 -13.442108,6.0922 -20.668234,5.30823 -9.79173,-1.06231 -18.508216,-6.78873 -28.185884,-8.61882 C 15.813788,913.93478 7.5378122,915.1185 0.46588235,918.72"
   style="fill:none;stroke:#fffffe;stroke-width:2.25;stroke-linecap:round;stroke-linejoin:miter;stroke-miterlimit:4;stroke-dasharray:none;stroke-opacity:1" /><g
   style="font-style:normal;font-weight:normal;font-size:30px;line-height:1.25;font-family:sans-serif;white-space:pre;shape-inside:url(#rect865);fill:#ffffff;fill-opacity:1;stroke:#6cfffe;stroke-opacity:1"
   id="text863"
   transform="translate(-17.70353,-37.037648)"
   aria-label="C"><path
     id="path869"
     style="font-style:normal;font-variant:normal;font-weight:bold;font-stretch:normal;font-family:Calibri;-inkscape-font-specification:'Calibri Bold';stroke:#fffffe;stroke-opacity:1;fill:#ffffff;stroke-width:1.5;stroke-miterlimit:4;stroke-dasharray:none"
     d="m 62.314453,964.13358 q 0,0.36621 -0.0293,0.62988 -0.01465,0.24903 -0.05859,0.43946 -0.04395,0.17578 -0.117187,0.30761 -0.07324,0.13184 -0.234375,0.30762 -0.161133,0.16113 -0.629883,0.42481 -0.454101,0.26367 -1.12793,0.51269 -0.659179,0.23438 -1.523437,0.39551 -0.849609,0.16113 -1.845703,0.16113 -1.948242,0 -3.515625,-0.60058 -1.567383,-0.60059 -2.666016,-1.78711 -1.098633,-1.20117 -1.68457,-2.98828 -0.585938,-1.78711 -0.585938,-4.16016 0,-2.41699 0.644532,-4.29199 0.644531,-1.875 1.801757,-3.14942 1.157227,-1.27441 2.768555,-1.93359 1.625977,-0.65918 3.574219,-0.65918 0.791016,0 1.523437,0.13184 0.732422,0.13183 1.347657,0.35156 0.629882,0.20508 1.127929,0.4834 0.498047,0.27832 0.688477,0.4834 0.205078,0.19042 0.27832,0.32226 0.07324,0.13184 0.117188,0.33691 0.04395,0.20508 0.05859,0.4834 0.0293,0.27832 0.0293,0.68848 0,0.43945 -0.0293,0.74707 -0.0293,0.30762 -0.102539,0.49805 -0.07324,0.19043 -0.175781,0.27832 -0.102539,0.0879 -0.234375,0.0879 -0.219726,0 -0.55664,-0.24903 -0.336915,-0.26367 -0.878907,-0.57128 -0.527343,-0.32227 -1.274414,-0.57129 -0.732422,-0.26368 -1.757812,-0.26368 -1.12793,0 -2.021485,0.46875 -0.878906,0.45411 -1.508789,1.31836 -0.615234,0.84961 -0.9375,2.06543 -0.322265,1.21582 -0.322265,2.73926 0,1.66992 0.336914,2.90039 0.351562,1.21582 0.981445,2.00684 0.644531,0.79101 1.538086,1.18652 0.908203,0.38086 2.036133,0.38086 1.02539,0 1.772461,-0.23437 0.74707,-0.24903 1.274414,-0.542 0.541992,-0.29297 0.878906,-0.52734 0.351563,-0.23438 0.541992,-0.23438 0.146485,0 0.234375,0.0586 0.08789,0.0586 0.146485,0.23437 0.05859,0.17578 0.08789,0.49805 0.0293,0.30762 0.0293,0.83496 z" /></g></g>
	</g>
</svg>
