<?xml version="1.0" encoding="UTF-8" standalone="no"?>
<svg
   xmlns:v="http://schemas.microsoft.com/visio/2003/SVGExtensions/"
   xmlns:dc="http://purl.org/dc/elements/1.1/"
   xmlns:cc="http://creativecommons.org/ns#"
   xmlns:rdf="http://www.w3.org/1999/02/22-rdf-syntax-ns#"
   xmlns:svg="http://www.w3.org/2000/svg"
   xmlns="http://www.w3.org/2000/svg"
   xmlns:sodipodi="http://sodipodi.sourceforge.net/DTD/sodipodi-0.dtd"
   xmlns:inkscape="http://www.inkscape.org/namespaces/inkscape"
   width="8.5in"
   height="11in"
   viewBox="0 0 612 792"
   xml:space="preserve"
   color-interpolation-filters="sRGB"
   class="st3"
   version="1.1"
   id="svg2194"
   sodipodi:docname="scoop.svg"
   inkscape:version="1.0 (4035a4fb49, 2020-05-01)"><metadata
   id="metadata2200"><rdf:RDF><cc:Work
       rdf:about=""><dc:format>image/svg+xml</dc:format><dc:type
         rdf:resource="http://purl.org/dc/dcmitype/StillImage" /><dc:title></dc:title></cc:Work></rdf:RDF></metadata><defs
   id="defs2198"><rect
   id="rect3342"
   height="49.150588"
   width="55.148823"
   y="756.65118"
   x="-11.244706" /><rect
   id="rect3331"
   height="40.881176"
   width="53.634705"
   y="803.47235"
   x="54.328234" /><rect
   id="rect3325"
   height="40.298823"
   width="52.935882"
   y="767.19176"
   x="-10.662354" />
		
		
		
	</defs><sodipodi:namedview
   inkscape:document-rotation="0"
   pagecolor="#ffffff"
   bordercolor="#666666"
   borderopacity="1"
   objecttolerance="10"
   gridtolerance="10"
   guidetolerance="10"
   inkscape:pageopacity="0"
   inkscape:pageshadow="2"
   inkscape:window-width="2400"
   inkscape:window-height="1271"
   id="namedview2196"
   showgrid="false"
   inkscape:zoom="12.878788"
   inkscape:cx="48.601137"
   inkscape:cy="37.290218"
   inkscape:window-x="2391"
   inkscape:window-y="-9"
   inkscape:window-maximized="1"
   inkscape:current-layer="shape83-1" />
	<v:documentProperties
   v:langID="1033"
   v:viewMarkup="false">
		<v:userDefs>
			<v:ud
   v:nameU="msvNoAutoConnect"
   v:val="VT0(1):26" />
		</v:userDefs>
	</v:documentProperties>

	<style
   type="text/css"
   id="style2179">
	<![CDATA[
		.st1 {fill:none;stroke:#000000;stroke-linecap:round;stroke-linejoin:round;stroke-width:0.75}
		.st2 {fill:#000000;font-family:Calibri;font-size:1.00001em}
		.st3 {fill:none;fill-rule:evenodd;font-size:12px;overflow:visible;stroke-linecap:square;stroke-miterlimit:3}
	]]>
	</style>

	<g
   style="stroke-width:2.25;stroke-miterlimit:4;stroke-dasharray:none"
   transform="translate(18.291177,-752.63294)"
   v:groupContext="shape"
   v:mID="83"
   id="shape83-1">
			<title
   id="title2183">Refuge Alternative</title>
			<desc
   id="desc2185">RA</desc>
			<v:textBlock
   v:margins="rect(4,4,4,4)" />
			<v:textRect
   height="21.6"
   width="21.6"
   cy="781.2"
   cx="10.8" />
			<rect
   style="stroke-width:3.46276;stroke-miterlimit:4;stroke-dasharray:none;fill:none;stroke:#ffffff;stroke-opacity:1"
   id="rect2187"
   class="st1"
   height="32.267242"
   width="34.247238"
   y="761.80518"
   x="0.95579189" />
					<text
   style="fill:black;fill-opacity:1;line-height:1.25;stroke:none;font-family:sans-serif;font-style:normal;font-weight:normal;font-size:30px;white-space:pre;shape-inside:url(#rect3331);"
   id="text3329"
   xml:space="preserve" /><g
   style="font-style:normal;font-weight:normal;font-size:30px;line-height:1.25;font-family:sans-serif;white-space:pre;shape-inside:url(#rect3325);fill:#ffffff;fill-opacity:1;stroke:#ffffff;stroke-opacity:1"
   id="text3323"
   transform="translate(13.568823,-7.1047058)"
   aria-label="SC"><path
     id="path3335"
     style="font-style:normal;font-variant:normal;font-weight:bold;font-stretch:normal;font-family:Calibri;-inkscape-font-specification:'Calibri Bold';stroke:#ffffff;stroke-opacity:1;fill:#ffffff;fill-opacity:1"
     d="m 2.6386719,788.87772 q 0,1.49414 -0.5566406,2.62207 -0.5566407,1.12793 -1.50878911,1.88965 -0.95214844,0.74707 -2.22656249,1.12793 -1.2744141,0.38086 -2.7246094,0.38086 -0.9814453,0 -1.8310547,-0.16113 -0.8349609,-0.16114 -1.4794922,-0.38086 -0.6445312,-0.23438 -1.0839843,-0.4834 -0.4248047,-0.24902 -0.6152344,-0.43945 -0.1904297,-0.19043 -0.2783203,-0.542 -0.073242,-0.36621 -0.073242,-1.04004 0,-0.4541 0.029297,-0.76171 0.029297,-0.30762 0.087891,-0.49805 0.073242,-0.19043 0.1757812,-0.26367 0.1171875,-0.0879 0.2636719,-0.0879 0.2050781,0 0.5712891,0.24902 0.3808593,0.23438 0.9667969,0.52734 0.5859375,0.29297 1.3916015,0.542 0.8203125,0.23437 1.8896485,0.23437 0.7031249,0 1.2597656,-0.16113 0.5566406,-0.17578 0.9375,-0.4834 0.3955078,-0.30762 0.6005859,-0.76172 0.2050781,-0.4541 0.2050781,-1.01074 0,-0.64453 -0.3515625,-1.09863 -0.3515625,-0.46875 -0.9228515,-0.82032 -0.5566407,-0.36621 -1.2744141,-0.67382 -0.7177734,-0.32227 -1.4794922,-0.67383 -0.7617187,-0.35157 -1.4794922,-0.79102 -0.7177734,-0.4541 -1.2890625,-1.06933 -0.5566406,-0.62989 -0.9082031,-1.4795 -0.3515625,-0.84961 -0.3515625,-2.03613 0,-1.3623 0.4980469,-2.38769 0.5126953,-1.04004 1.3623047,-1.71387 0.8642578,-0.68848 2.0214844,-1.02539 1.171875,-0.33692 2.4755859,-0.33692 0.6738281,0 1.3476562,0.10254 0.6738282,0.10254 1.25976566,0.27832 0.5859375,0.17578 1.04003906,0.39551 0.45410158,0.21973 0.60058598,0.36621 0.1464843,0.14649 0.1904296,0.24903 0.058594,0.10253 0.087891,0.27832 0.043945,0.16113 0.058594,0.4248 0.014649,0.24902 0.014649,0.62988 0,0.42481 -0.029297,0.71778 -0.014648,0.29297 -0.073242,0.48339 -0.043945,0.19043 -0.1464844,0.27833 -0.087891,0.0879 -0.2490234,0.0879 -0.16113282,0 -0.51269533,-0.20508 -0.3515625,-0.20508 -0.86425781,-0.43946 -0.51269531,-0.24902 -1.18652346,-0.43945 -0.6738281,-0.20508 -1.4794922,-0.20508 -0.6298828,0 -1.0986328,0.16114 -0.46875,0.14648 -0.7910156,0.4248 -0.3076172,0.26367 -0.46875,0.64453 -0.1464844,0.38086 -0.1464844,0.80567 0,0.62988 0.3369141,1.09863 0.3515625,0.4541 0.9228516,0.82031 0.5859374,0.35156 1.3183593,0.67383 0.7324219,0.30762 1.4941407,0.65918 0.7617187,0.35156 1.49414057,0.80566 0.73242188,0.43946 1.30371093,1.06934 0.5712891,0.61523 0.9228516,1.46484 0.3515625,0.83496 0.3515625,1.97754 z" /><path
     id="path3337"
     style="font-style:normal;font-variant:normal;font-weight:bold;font-stretch:normal;font-family:Calibri;-inkscape-font-specification:'Calibri Bold';stroke:#ffffff;stroke-opacity:1;fill:#ffffff;fill-opacity:1"
     d="m 18.693359,791.69022 q 0,0.36621 -0.0293,0.62988 -0.01465,0.24903 -0.05859,0.43946 -0.04395,0.17578 -0.117188,0.30762 -0.07324,0.13183 -0.234375,0.30761 -0.161133,0.16114 -0.629883,0.42481 -0.454101,0.26367 -1.127929,0.51269 -0.65918,0.23438 -1.523438,0.39551 -0.849609,0.16113 -1.845703,0.16113 -1.948242,0 -3.5156249,-0.60058 -1.5673828,-0.60059 -2.6660156,-1.78711 -1.0986328,-1.20117 -1.6845703,-2.98828 -0.5859375,-1.78711 -0.5859375,-4.16016 0,-2.41699 0.6445312,-4.29199 0.6445313,-1.875 1.8017578,-3.14942 1.1572266,-1.27441 2.7685547,-1.93359 1.6259766,-0.65918 3.5742186,-0.65918 0.791016,0 1.523438,0.13184 0.732422,0.13183 1.347656,0.35156 0.629883,0.20508 1.12793,0.4834 0.498046,0.27832 0.688476,0.4834 0.205078,0.19043 0.27832,0.32226 0.07324,0.13184 0.117188,0.33692 0.04395,0.20507 0.05859,0.48339 0.0293,0.27832 0.0293,0.68848 0,0.43945 -0.0293,0.74707 -0.0293,0.30762 -0.102539,0.49805 -0.07324,0.19043 -0.175782,0.27832 -0.102539,0.0879 -0.234375,0.0879 -0.219726,0 -0.55664,-0.24902 -0.336914,-0.26368 -0.878906,-0.57129 -0.527344,-0.32227 -1.274414,-0.57129 -0.732422,-0.26367 -1.757813,-0.26367 -1.12793,0 -2.021484,0.46875 -0.878907,0.4541 -1.508789,1.31835 -0.6152348,0.84961 -0.9375004,2.06543 -0.3222657,1.21582 -0.3222657,2.73926 0,1.66992 0.3369141,2.90039 0.3515625,1.21582 0.981445,2.00684 0.644532,0.79101 1.538086,1.18652 0.908203,0.38086 2.036133,0.38086 1.025391,0 1.772461,-0.23437 0.74707,-0.24903 1.274414,-0.542 0.541992,-0.29296 0.878906,-0.52734 0.351563,-0.23437 0.541992,-0.23437 0.146485,0 0.234375,0.0586 0.08789,0.0586 0.146485,0.23437 0.05859,0.17579 0.08789,0.49805 0.0293,0.30762 0.0293,0.83496 z" /></g><text
   style="fill:#ffffff;fill-opacity:1;line-height:1.25;stroke:#ffffff;font-family:sans-serif;font-style:normal;font-weight:normal;font-size:30px;white-space:pre;shape-inside:url(#rect3342);stroke-opacity:1;"
   id="text3340"
   xml:space="preserve" /></g>
</svg>
