<?xml version="1.0" encoding="UTF-8" standalone="no"?>
<!-- Created with Inkscape (http://www.inkscape.org/) -->

<svg
   width="210mm"
   height="297mm"
   viewBox="0 0 210 297"
   version="1.1"
   id="svg1"
   inkscape:version="1.3 (0e150ed6c4, 2023-07-21)"
   sodipodi:docname="smoke.svg"
   xmlns:inkscape="http://www.inkscape.org/namespaces/inkscape"
   xmlns:sodipodi="http://sodipodi.sourceforge.net/DTD/sodipodi-0.dtd"
   xmlns="http://www.w3.org/2000/svg"
   xmlns:svg="http://www.w3.org/2000/svg">
  <sodipodi:namedview
     id="namedview1"
     pagecolor="#000000"
     bordercolor="#000000"
     borderopacity="0.25"
     inkscape:showpageshadow="2"
     inkscape:pageopacity="0.0"
     inkscape:pagecheckerboard="0"
     inkscape:deskcolor="#d1d1d1"
     inkscape:document-units="mm"
     inkscape:zoom="8.0445305"
     inkscape:cx="259.92816"
     inkscape:cy="179.31438"
     inkscape:window-width="1920"
     inkscape:window-height="986"
     inkscape:window-x="-11"
     inkscape:window-y="1581"
     inkscape:window-maximized="1"
     inkscape:current-layer="layer1" />
  <defs
     id="defs1">
    <clipPath
       clipPathUnits="userSpaceOnUse"
       id="clipEmfPath1">
      <path
         d="M 0,0 L 38.229921,0 L 38.229921,68.96378 L 0,68.96378 z"
         id="path1" />
    </clipPath>
    <pattern
       id="EMFhbasepattern"
       patternUnits="userSpaceOnUse"
       width="6"
       height="6"
       x="0"
       y="0" />
  </defs>
  <g
     inkscape:label="Layer 1"
     inkscape:groupmode="layer"
     id="layer1">
    <path
       style="fill:none;stroke:#fcfcfc;stroke-width:0.7874;stroke-linecap:round;stroke-linejoin:round;stroke-miterlimit:4;stroke-dasharray:none;stroke-opacity:1"
       d="m 77.221212,42.048763 c 0,-1.19 -1.92135,-2.144479 -4.28896,-2.144479 -2.3676,0 -4.28896,0.954479 -4.28896,2.144479 0,1.177604 1.92136,2.144479 4.28896,2.144479 2.36761,0 4.28896,-0.966875 4.28896,-2.144479"
       id="path2" />
    <path
       style="fill:none;stroke:#fcfcfc;stroke-width:0.7874;stroke-linecap:round;stroke-linejoin:round;stroke-miterlimit:4;stroke-dasharray:none;stroke-opacity:1"
       d="m 77.221212,47.763242 c 0,-1.19 -1.92135,-2.144479 -4.28896,-2.144479 -2.3676,0 -4.28896,0.954479 -4.28896,2.144479 0,1.177604 1.92136,2.132083 4.28896,2.132083 2.36761,0 4.28896,-0.954479 4.28896,-2.132083"
       id="path3" />
    <path
       style="fill:none;stroke:#fcfcfc;stroke-width:2.97600004;stroke-linecap:round;stroke-linejoin:round;stroke-miterlimit:4;stroke-dasharray:none;stroke-opacity:1"
       clip-path="url(#clipEmfPath1)"
       d="m 34.294488,34.435039 c 0.983858,0 1.780315,-4.872441 1.780315,-10.869291"
       id="path4"
       transform="matrix(0.26458333,0,0,0.26458333,68.147462,38.6647)" />
    <path
       style="fill:none;stroke:#fcfcfc;stroke-width:2.97600004;stroke-linecap:round;stroke-linejoin:round;stroke-miterlimit:4;stroke-dasharray:none;stroke-opacity:1"
       clip-path="url(#clipEmfPath1)"
       d="m 34.294488,12.790157 c 0.983858,0 1.780315,4.825591 1.780315,10.775591"
       id="path5"
       transform="matrix(0.26458333,0,0,0.26458333,68.147462,38.6647)" />
    <path
       style="fill:none;stroke:#fcfcfc;stroke-width:2.97600004;stroke-linecap:round;stroke-linejoin:round;stroke-miterlimit:4;stroke-dasharray:none;stroke-opacity:1"
       clip-path="url(#clipEmfPath1)"
       d="m 34.294488,12.790157 c 0.983858,0 1.780315,-4.8724405 1.780315,-10.9161413"
       id="path6"
       transform="matrix(0.26458333,0,0,0.26458333,68.147462,38.6647)" />
    <path
       style="fill:none;stroke:#fcfcfc;stroke-width:0.7874;stroke-linecap:round;stroke-linejoin:round;stroke-miterlimit:4;stroke-dasharray:none;stroke-opacity:1"
       d="m 77.221212,53.440533 c 0,-1.177604 -1.92135,-2.132083 -4.28896,-2.132083 -2.3676,0 -4.28896,0.954479 -4.28896,2.132083 0,1.19 1.92136,2.144479 4.28896,2.144479 2.36761,0 4.28896,-0.954479 4.28896,-2.144479"
       id="path7" />
    <path
       style="fill:none;stroke:#fcfcfc;stroke-width:2.97600004;stroke-linecap:round;stroke-linejoin:round;stroke-miterlimit:4;stroke-dasharray:none;stroke-opacity:1"
       clip-path="url(#clipEmfPath1)"
       d="m 34.294488,55.93937 c 0.983858,0 1.780315,-4.872441 1.780315,-10.869291"
       id="path8"
       transform="matrix(0.26458333,0,0,0.26458333,68.147462,38.6647)" />
    <path
       style="fill:none;stroke:#fcfcfc;stroke-width:2.97600004;stroke-linecap:round;stroke-linejoin:round;stroke-miterlimit:4;stroke-dasharray:none;stroke-opacity:1"
       clip-path="url(#clipEmfPath1)"
       d="m 34.294488,34.294488 c 0.983858,0 1.780315,4.825591 1.780315,10.775591"
       id="path9"
       transform="matrix(0.26458333,0,0,0.26458333,68.147462,38.6647)" />
    <path
       style="fill:none;stroke:#fcfcfc;stroke-width:2.97600004;stroke-linecap:round;stroke-linejoin:round;stroke-miterlimit:4;stroke-dasharray:none;stroke-opacity:1"
       clip-path="url(#clipEmfPath1)"
       d="m 34.294488,55.93937 c 0.983858,0 1.780315,4.825591 1.780315,10.822441"
       id="path10"
       transform="matrix(0.26458333,0,0,0.26458333,68.147462,38.6647)" />
  </g>
</svg>
