<?xml version="1.0" encoding="UTF-8"?>
<svg id="Layer_1" data-name="Layer 1" xmlns="http://www.w3.org/2000/svg" viewBox="0 0 600 600">
  <defs>
    <style>
      .cls-1 {
        stroke-dasharray: 19.66 19.66;
      }

      .cls-1, .cls-2, .cls-3, .cls-4 {
        stroke: #000;
        stroke-miterlimit: 10;
      }

      .cls-1, .cls-2, .cls-4 {
        stroke-width: 14px;
      }

      .cls-1, .cls-5, .cls-3, .cls-4 {
        fill: none;
      }

      .cls-3 {
        stroke-width: 20px;
      }
    </style>
  </defs>
  <g>
    <line class="cls-4" x1="300" y1="122.85" x2="300" y2="132.85"/>
    <line class="cls-1" x1="300" y1="152.51" x2="300" y2="535.82"/>
    <line class="cls-4" x1="300" y1="545.65" x2="300" y2="555.65"/>
  </g>
  <path class="cls-4" d="M62.75,485.53h195.59c2.1,0,3.81-1.71,3.81-3.81V195.97c0-3.75-4.84-5.24-6.95-2.15L59.61,479.57c-1.73,2.53.08,5.96,3.14,5.96Z"/>
  <path class="cls-2" d="M537.25,483.15h-195.59c-2.1,0-3.81-1.71-3.81-3.81V193.58c0-3.75,4.84-5.24,6.95-2.15l195.59,285.75c1.73,2.53-.08,5.96-3.14,5.96Z"/>
  <g>
    <path class="cls-3" d="M417.11,141.81c-10.15-55.47-58.68-97.45-117.11-97.45"/>
    <polygon points="469.94 54.61 451.81 46.11 410.07 135.45 324.01 87.29 314.25 104.77 419.08 163.4 469.94 54.61"/>
  </g>
  <path class="cls-3" d="M180.94,163.41c0-65.81,53.25-119.06,119.06-119.06"/>
  <rect class="cls-5" width="600" height="600"/>
</svg>