<?xml version="1.0" encoding="UTF-8"?>
<svg id="Layer_2" data-name="Layer 2" xmlns="http://www.w3.org/2000/svg" viewBox="0 0 124 124">
  <defs>
    <style>
      .cls-1 {
        fill: #fff;
      }

      .cls-2 {
        fill: blue;
      }

      .cls-3 {
        fill: #680a84;
        stroke: #fff;
        stroke-miterlimit: 10;
        stroke-width: .5px;
      }
    </style>
  </defs>
  <g id="Layer_1-2" data-name="Layer 1">
    <g>
      <rect x=".5" y=".5" width="123" height="123"/>
      <path d="m123,1v122H1V1h122m1-1H0v124h124V0h0Z"/>
    </g>
  </g>
  <g id="Layer_2-2" data-name="Layer 2">
    <rect class="cls-3" x="72.5" y="60.4" width="18" height="4"/>
    <rect class="cls-3" x="31.5" y="60.4" width="18" height="4"/>
    <g>
      <path class="cls-2" d="m62,35.75c-6.75,0-12.25-2.58-12.25-5.75.02-2,.02-4,0-5.97,0-3.2,5.49-5.78,12.25-5.78s12.25,2.58,12.25,5.75c-.02,2-.02,4,0,5.97,0,3.2-5.5,5.78-12.25,5.78Z"/>
      <path class="cls-1" d="m62,18.5c6.5,0,12,2.52,12,5.53-.02,1.97-.02,3.97,0,5.97,0,2.98-5.5,5.5-12,5.5s-12-2.52-12-5.53c.02-1.97.02-3.97,0-5.97,0-2.98,5.5-5.5,12-5.5m0-.5c-6.9,0-12.5,2.69-12.5,6,0,.01,0,.02,0,.03.02,1.98.02,3.95,0,5.93,0,.01,0,.02,0,.03,0,3.31,5.6,6,12.5,6s12.5-2.69,12.5-6c0-.01,0-.02,0-.03-.02-1.98-.02-3.95,0-5.93,0-.01,0-.02,0-.03,0-3.31-5.6-6-12.5-6h0Z"/>
    </g>
    <rect class="cls-3" x="49.59" y="40.91" width="24.81" height="4" transform="translate(104.91 -19.09) rotate(90)"/>
    <g>
      <path class="cls-2" d="m102.5,71.15c-6.75,0-12.25-2.58-12.25-5.75.02-2,.02-4,0-5.97,0-3.2,5.49-5.78,12.25-5.78s12.25,2.58,12.25,5.75c-.02,2-.02,4,0,5.97,0,3.2-5.5,5.78-12.25,5.78Z"/>
      <path class="cls-1" d="m102.5,53.9c6.5,0,12,2.52,12,5.53-.02,1.97-.02,3.97,0,5.97,0,2.98-5.5,5.5-12,5.5s-12-2.52-12-5.53c.02-1.97.02-3.97,0-5.97,0-2.98,5.5-5.5,12-5.5m0-.5c-6.9,0-12.5,2.69-12.5,6,0,.01,0,.02,0,.03.02,1.98.02,3.95,0,5.93,0,.01,0,.02,0,.03,0,3.31,5.6,6,12.5,6s12.5-2.69,12.5-6c0-.01,0-.02,0-.03-.02-1.98-.02-3.95,0-5.93,0-.01,0-.02,0-.03,0-3.31-5.6-6-12.5-6h0Z"/>
    </g>
    <g>
      <path class="cls-2" d="m21.5,71.15c-6.75,0-12.25-2.58-12.25-5.75.02-2,.02-4,0-5.97,0-3.2,5.49-5.78,12.25-5.78s12.25,2.58,12.25,5.75c-.02,2-.02,4,0,5.97,0,3.2-5.5,5.78-12.25,5.78Z"/>
      <path class="cls-1" d="m21.5,53.9c6.5,0,12,2.52,12,5.53-.02,1.97-.02,3.97,0,5.97,0,2.98-5.5,5.5-12,5.5s-12-2.52-12-5.53c.02-1.97.02-3.97,0-5.97,0-2.98,5.5-5.5,12-5.5m0-.5c-6.9,0-12.5,2.69-12.5,6,0,.01,0,.02,0,.03.02,1.98.02,3.95,0,5.93,0,.01,0,.02,0,.03,0,3.31,5.6,6,12.5,6s12.5-2.69,12.5-6c0-.01,0-.02,0-.03-.02-1.98-.02-3.95,0-5.93,0-.01,0-.02,0-.03,0-3.31-5.6-6-12.5-6h0Z"/>
    </g>
    <g>
      <path class="cls-2" d="m62,71.15c-6.75,0-12.25-2.58-12.25-5.75.02-2,.02-4,0-5.97,0-3.2,5.49-5.78,12.25-5.78s12.25,2.58,12.25,5.75c-.02,2-.02,4,0,5.97,0,3.2-5.5,5.78-12.25,5.78Z"/>
      <path class="cls-1" d="m62,53.9c6.5,0,12,2.52,12,5.53-.02,1.97-.02,3.97,0,5.97,0,2.98-5.5,5.5-12,5.5s-12-2.52-12-5.53c.02-1.97.02-3.97,0-5.97,0-2.98,5.5-5.5,12-5.5m0-.5c-6.9,0-12.5,2.69-12.5,6,0,.01,0,.02,0,.03.02,1.98.02,3.95,0,5.93,0,.01,0,.02,0,.03,0,3.31,5.6,6,12.5,6s12.5-2.69,12.5-6c0-.01,0-.02,0-.03-.02-1.98-.02-3.95,0-5.93,0-.01,0-.02,0-.03,0-3.31-5.6-6-12.5-6h0Z"/>
    </g>
    <rect class="cls-3" x="50" y="76.5" width="24" height="4" transform="translate(140.5 16.5) rotate(90)"/>
    <g>
      <path class="cls-2" d="m62,106.54c-6.75,0-12.25-2.58-12.25-5.75.02-2,.02-4,0-5.97,0-3.2,5.49-5.78,12.25-5.78s12.25,2.58,12.25,5.75c-.02,2-.02,4,0,5.97,0,3.2-5.5,5.78-12.25,5.78Z"/>
      <path class="cls-1" d="m62,89.29c6.5,0,12,2.52,12,5.53-.02,1.97-.02,3.97,0,5.97,0,2.98-5.5,5.5-12,5.5s-12-2.52-12-5.53c.02-1.97.02-3.97,0-5.97,0-2.98,5.5-5.5,12-5.5m0-.5c-6.9,0-12.5,2.69-12.5,6,0,.01,0,.02,0,.03.02,1.98.02,3.95,0,5.93,0,.01,0,.02,0,.03,0,3.31,5.6,6,12.5,6s12.5-2.69,12.5-6c0-.01,0-.02,0-.03-.02-1.98-.02-3.95,0-5.93,0-.01,0-.02,0-.03,0-3.31-5.6-6-12.5-6h0Z"/>
    </g>
  </g>
</svg>