<?xml version="1.0" encoding="UTF-8"?>
<svg id="Layer_2" data-name="Layer 2" xmlns="http://www.w3.org/2000/svg" viewBox="0 0 124 124">
  <defs>
    <style>
      .cls-1 {
        fill: #680a84;
        stroke: #fff;
        stroke-miterlimit: 10;
        stroke-width: 3.25px;
      }

      .cls-2, .cls-3, .cls-4 {
        stroke-width: 0px;
      }

      .cls-3 {
        fill: #fff;
      }

      .cls-4 {
        fill: blue;
      }
    </style>
  </defs>
  <g id="Layer_1-2" data-name="Layer 1">
    <g>
      <rect class="cls-2" x=".5" y=".5" width="123" height="123"/>
      <path class="cls-2" d="m123,1v122H1V1h122m1-1H0v124h124V0h0Z"/>
    </g>
  </g>
  <g id="Layer_2-2" data-name="Layer 2">
    <rect class="cls-1" x="32" y="90" width="59" height="7.5"/>
    <rect class="cls-1" x="4.26" y="56.78" width="68.83" height="7.08" transform="translate(-32.89 63.65) rotate(-60)"/>
    <g>
      <path class="cls-4" d="m22.5,102.6c-8.36,0-13.5-3.18-13.5-5.47.03-2.48.03-4.98,0-7.45,0-2.3,5.14-5.48,13.5-5.48s13.5,3.18,13.5,5.47c-.03,2.48-.03,4.98,0,7.45,0,2.3-5.14,5.48-13.5,5.48Z"/>
      <path class="cls-3" d="m22.5,86.21c7.13,0,11.13,2.52,11.5,3.51-.03,2.45-.03,4.93,0,7.37-.37.99-4.37,3.51-11.5,3.51s-11.13-2.52-11.5-3.51c.03-2.45.03-4.93,0-7.37.37-.99,4.37-3.51,11.5-3.51m0-4c-8.56,0-15.5,3.34-15.5,7.47,0,.01,0,.03,0,.04.03,2.47.03,4.92,0,7.38,0,.01,0,.03,0,.04,0,4.12,6.94,7.47,15.5,7.47s15.5-3.34,15.5-7.47c0-.01,0-.03,0-.04-.03-2.47-.03-4.92,0-7.38,0-.01,0-.03,0-.04,0-4.12-6.94-7.47-15.5-7.47h0Z"/>
    </g>
    <rect class="cls-1" x="49.37" y="54.21" width="69.46" height="7.2" transform="translate(76.09 159.55) rotate(-120)"/>
    <g>
      <path class="cls-4" d="m102.5,102.6c-8.36,0-13.5-3.18-13.5-5.47.03-2.48.03-4.98,0-7.45,0-2.3,5.14-5.48,13.5-5.48s13.5,3.18,13.5,5.47c-.03,2.48-.03,4.98,0,7.45,0,2.3-5.14,5.48-13.5,5.48Z"/>
      <path class="cls-3" d="m102.5,86.21c7.13,0,11.13,2.52,11.5,3.51-.03,2.45-.03,4.93,0,7.37-.37.99-4.37,3.51-11.5,3.51s-11.13-2.52-11.5-3.51c.03-2.45.03-4.93,0-7.37.37-.99,4.37-3.51,11.5-3.51m0-4c-8.56,0-15.5,3.34-15.5,7.47,0,.01,0,.03,0,.04.03,2.47.03,4.92,0,7.38,0,.01,0,.03,0,.04,0,4.12,6.94,7.47,15.5,7.47s15.5-3.34,15.5-7.47c0-.01,0-.03,0-.04-.03-2.47-.03-4.92,0-7.38,0-.01,0-.03,0-.04,0-4.12-6.94-7.47-15.5-7.47h0Z"/>
    </g>
    <g>
      <path class="cls-4" d="m61.5,31.81c-8.36,0-13.5-3.18-13.5-5.47.03-2.48.03-4.98,0-7.45,0-2.3,5.14-5.48,13.5-5.48s13.5,3.18,13.5,5.47c-.03,2.48-.03,4.98,0,7.45,0,2.3-5.14,5.48-13.5,5.48Z"/>
      <path class="cls-3" d="m61.5,15.41c7.13,0,11.13,2.52,11.5,3.51-.03,2.45-.03,4.93,0,7.37-.37.99-4.37,3.51-11.5,3.51s-11.13-2.52-11.5-3.51c.03-2.45.03-4.93,0-7.37.37-.99,4.37-3.51,11.5-3.51m0-4c-8.56,0-15.5,3.34-15.5,7.47,0,.01,0,.03,0,.04.03,2.47.03,4.92,0,7.38,0,.01,0,.03,0,.04,0,4.12,6.94,7.47,15.5,7.47s15.5-3.34,15.5-7.47c0-.01,0-.03,0-.04-.03-2.47-.03-4.92,0-7.38,0-.01,0-.03,0-.04,0-4.12-6.94-7.47-15.5-7.47h0Z"/>
    </g>
  </g>
</svg>