<?xml version="1.0" encoding="UTF-8"?>
<svg id="Layer_2" data-name="Layer 2" xmlns="http://www.w3.org/2000/svg" viewBox="0 0 124 124">
  <defs>
    <style>
      .cls-1, .cls-2, .cls-3 {
        stroke-width: 0px;
      }

      .cls-2 {
        fill: #fff;
      }

      .cls-3 {
        fill: blue;
      }

      .cls-4 {
        fill: #680a84;
        stroke: #fff;
        stroke-miterlimit: 10;
        stroke-width: 2px;
      }
    </style>
  </defs>
  <g id="Layer_1-2" data-name="Layer 1">
    <g>
      <rect class="cls-1" x=".5" y=".5" width="123" height="123"/>
      <path class="cls-1" d="m123,1v122H1V1h122m1-1H0v124h124V0h0Z"/>
    </g>
  </g>
  <g id="Layer_2-2" data-name="Layer 2">
    <rect class="cls-4" x="32" y="90" width="59" height="6"/>
    <rect class="cls-4" x="3.8" y="57.04" width="68.83" height="6" transform="translate(-32.89 63.11) rotate(-60)"/>
    <g>
      <path class="cls-3" d="m22.5,103.6c-8.67,0-14.5-3.34-14.5-6.47.03-2.49.03-4.98,0-7.44,0-3.15,5.83-6.5,14.5-6.5s14.5,3.34,14.5,6.47c-.03,2.49-.03,4.98,0,7.44,0,3.15-5.83,6.5-14.5,6.5Z"/>
      <path class="cls-2" d="m22.5,84.21c8.36,0,13.5,3.18,13.5,5.48-.03,2.46-.03,4.96,0,7.45,0,2.28-5.14,5.47-13.5,5.47s-13.5-3.18-13.5-5.48c.03-2.46.03-4.96,0-7.45,0-2.28,5.14-5.47,13.5-5.47m0-2c-8.56,0-15.5,3.34-15.5,7.47,0,.01,0,.03,0,.04.03,2.47.03,4.92,0,7.38,0,.01,0,.03,0,.04,0,4.12,6.94,7.47,15.5,7.47s15.5-3.34,15.5-7.47c0-.01,0-.03,0-.04-.03-2.47-.03-4.92,0-7.38,0-.01,0-.03,0-.04,0-4.12-6.94-7.47-15.5-7.47h0Z"/>
    </g>
    <rect class="cls-4" x="49.22" y="54.89" width="69.46" height="6" transform="translate(75.79 159.55) rotate(-120)"/>
    <g>
      <path class="cls-3" d="m102.5,103.6c-8.67,0-14.5-3.34-14.5-6.47.03-2.49.03-4.98,0-7.44,0-3.15,5.83-6.5,14.5-6.5s14.5,3.34,14.5,6.47c-.03,2.49-.03,4.98,0,7.44,0,3.15-5.83,6.5-14.5,6.5Z"/>
      <path class="cls-2" d="m102.5,84.21c8.36,0,13.5,3.18,13.5,5.48-.03,2.46-.03,4.96,0,7.45,0,2.28-5.14,5.47-13.5,5.47s-13.5-3.18-13.5-5.48c.03-2.46.03-4.96,0-7.45,0-2.28,5.14-5.47,13.5-5.47m0-2c-8.56,0-15.5,3.34-15.5,7.47,0,.01,0,.03,0,.04.03,2.47.03,4.92,0,7.38,0,.01,0,.03,0,.04,0,4.12,6.94,7.47,15.5,7.47s15.5-3.34,15.5-7.47c0-.01,0-.03,0-.04-.03-2.47-.03-4.92,0-7.38,0-.01,0-.03,0-.04,0-4.12-6.94-7.47-15.5-7.47h0Z"/>
    </g>
    <g>
      <path class="cls-3" d="m61.5,32.81c-8.67,0-14.5-3.34-14.5-6.47.03-2.49.03-4.98,0-7.44,0-3.15,5.83-6.5,14.5-6.5s14.5,3.34,14.5,6.47c-.03,2.49-.03,4.98,0,7.44,0,3.15-5.83,6.49-14.5,6.49Z"/>
      <path class="cls-2" d="m61.5,13.41c8.36,0,13.5,3.18,13.5,5.48-.03,2.46-.03,4.96,0,7.45,0,2.28-5.14,5.47-13.5,5.47s-13.5-3.18-13.5-5.48c.03-2.46.03-4.96,0-7.45,0-2.28,5.14-5.47,13.5-5.47m0-2c-8.56,0-15.5,3.34-15.5,7.47,0,.01,0,.03,0,.04.03,2.47.03,4.92,0,7.38,0,.01,0,.03,0,.04,0,4.12,6.94,7.47,15.5,7.47s15.5-3.34,15.5-7.47c0-.01,0-.03,0-.04-.03-2.47-.03-4.92,0-7.38,0-.01,0-.03,0-.04,0-4.12-6.94-7.47-15.5-7.47h0Z"/>
    </g>
  </g>
</svg>