<?xml version="1.0" encoding="UTF-8"?>
<svg id="Layer_2" data-name="Layer 2" xmlns="http://www.w3.org/2000/svg" viewBox="0 0 124 124">
  <defs>
    <style>
      .cls-1, .cls-2 {
        stroke-width: 3px;
      }

      .cls-1, .cls-2, .cls-3 {
        fill: none;
        stroke-miterlimit: 10;
      }

      .cls-1, .cls-3 {
        stroke: #fff;
      }

      .cls-2 {
        stroke: #0ed9f1;
      }

      .cls-3 {
        stroke-width: 3.5px;
      }
    </style>
  </defs>
  <g id="Layer_1-2" data-name="Layer 1">
    <g>
      <rect x=".5" y=".5" width="123" height="123"/>
      <path d="m123,1v122H1V1h122m1-1H0v124h124V0h0Z"/>
    </g>
    <path class="cls-3" d="m61.18,49.36c-5.13.47-9.8,5.47-8.23,10.76"/>
    <path class="cls-3" d="m49.41,78.37c7.49,3.25,17.38,1.9,23.12-4.13,6.15-6.48,5.09-15.76-1.61-21.36"/>
    <path class="cls-3" d="m36.51,61.55c.45,3.69,2.06,7.18,4.29,10.13"/>
    <path class="cls-3" d="m47.14,41.84c-3.47,2.23-6.5,5.22-8.48,8.85"/>
    <path class="cls-3" d="m68.34,37.32c-3.76-.66-7.65-.45-11.35.41"/>
    <path class="cls-3" d="m40.3,90.55c11.87,6.67,26.97,6.58,38.25-1.33,10.36-7.26,15.75-19.8,11.82-32.12-2.03-6.35-6.28-11.91-11.84-15.59"/>
    <path class="cls-3" d="m24.34,74.34c1.88,3.57,4.34,6.82,7.21,9.64"/>
    <path class="cls-3" d="m21.29,51.79c-.87,3.86-1.06,7.88-.5,11.79"/>
    <path class="cls-3" d="m33.33,31.91c-3.05,2.62-5.68,5.73-7.73,9.18"/>
    <path class="cls-3" d="m53.97,22.5c-3.98.68-7.88,1.86-11.54,3.57"/>
    <path class="cls-3" d="m77.31,24.29c-4.02-1.34-8.23-2.13-12.46-2.38"/>
    <path class="cls-3" d="m87.5,100.5c15.42-15.46,24.38-37.69,12.59-58.31-3.07-5.37-7.48-9.86-12.7-13.16"/>
    <path class="cls-2" d="m61.18,49.36c-5.13.47-9.8,5.47-8.23,10.76"/>
    <path class="cls-2" d="m49.41,78.37c7.49,3.25,17.38,1.9,23.12-4.13,6.15-6.48,5.09-15.76-1.61-21.36"/>
    <path class="cls-2" d="m36.51,61.55c.45,3.69,2.06,7.18,4.29,10.13"/>
    <path class="cls-2" d="m47.14,41.84c-3.47,2.23-6.5,5.22-8.48,8.85"/>
    <path class="cls-2" d="m68.34,37.32c-3.76-.66-7.65-.45-11.35.41"/>
    <path class="cls-2" d="m40.3,90.55c11.87,6.67,26.97,6.58,38.25-1.33,10.36-7.26,15.75-19.8,11.82-32.12-2.03-6.35-6.28-11.91-11.84-15.59"/>
    <path class="cls-2" d="m24.34,74.34c1.88,3.57,4.34,6.82,7.21,9.64"/>
    <path class="cls-2" d="m21.29,51.79c-.87,3.86-1.06,7.88-.5,11.79"/>
    <path class="cls-2" d="m33.33,31.91c-3.05,2.62-5.68,5.73-7.73,9.18"/>
    <path class="cls-2" d="m53.97,22.5c-3.98.68-7.88,1.86-11.54,3.57"/>
    <path class="cls-2" d="m77.31,24.29c-4.02-1.34-8.23-2.13-12.46-2.38"/>
    <path class="cls-2" d="m87.5,100.5c15.42-15.46,24.38-37.69,12.59-58.31-3.07-5.37-7.48-9.86-12.7-13.16"/>
    <line class="cls-1" x1="103.5" y1="9.5" x2="25.5" y2="109.5"/>
  </g>
</svg>