<?xml version="1.0" encoding="UTF-8" standalone="no"?>
<svg
   xmlns:dc="http://purl.org/dc/elements/1.1/"
   xmlns:cc="http://creativecommons.org/ns#"
   xmlns:rdf="http://www.w3.org/1999/02/22-rdf-syntax-ns#"
   xmlns:svg="http://www.w3.org/2000/svg"
   xmlns="http://www.w3.org/2000/svg"
   xmlns:sodipodi="http://sodipodi.sourceforge.net/DTD/sodipodi-0.dtd"
   xmlns:inkscape="http://www.inkscape.org/namespaces/inkscape"
   width="210mm"
   height="297mm"
   viewBox="0 0 210 297"
   version="1.1"
   id="svg895"
   inkscape:version="1.0.2-2 (e86c870879, 2021-01-15)"
   sodipodi:docname="Carabiner_Opened.svg">
  <defs
     id="defs889" />
  <sodipodi:namedview
     id="base"
     pagecolor="#ffffff"
     bordercolor="#666666"
     borderopacity="1.0"
     inkscape:pageopacity="0.0"
     inkscape:pageshadow="2"
     inkscape:zoom="0.35"
     inkscape:cx="400"
     inkscape:cy="560"
     inkscape:document-units="mm"
     inkscape:current-layer="layer1"
     inkscape:document-rotation="0"
     showgrid="false"
     inkscape:window-width="1920"
     inkscape:window-height="1017"
     inkscape:window-x="-8"
     inkscape:window-y="-8"
     inkscape:window-maximized="1" />
  <metadata
     id="metadata892">
    <rdf:RDF>
      <cc:Work
         rdf:about="">
        <dc:format>image/svg+xml</dc:format>
        <dc:type
           rdf:resource="http://purl.org/dc/dcmitype/StillImage" />
        <dc:title></dc:title>
      </cc:Work>
    </rdf:RDF>
  </metadata>
  <g
     inkscape:label="Layer 1"
     inkscape:groupmode="layer"
     id="layer1">
    <g
       id="g12"
       transform="matrix(0.03527778,0,0,-0.03527778,-198.81596,362.85795)">
      <path
         d="m 7763.16,4718.74 -683.4,-150.62 c 40.68,-182.57 77.5,-348.02 108.32,-486.85 l 683.48,150.64 c -31.74,142.72 -68.38,307.26 -108.4,486.83"
         style="fill:#231f20;fill-opacity:1;fill-rule:nonzero;stroke:none"
         id="path14" />
      <path
         d="m 7763.16,4718.74 -683.4,-150.62 c 40.68,-182.57 77.5,-348.02 108.32,-486.85 l 683.48,150.64 c -31.74,142.72 -68.38,307.26 -108.4,486.83 z"
         style="fill:none;stroke:#231f20;stroke-width:100;stroke-linecap:butt;stroke-linejoin:round;stroke-miterlimit:10;stroke-dasharray:none;stroke-opacity:1"
         id="path16" />
      <path
         d="m 7993.65,7048.41 c -41.27,-25.69 -38.82,-89.71 20.26,-105.78 l 70.43,-14.66 -105.61,-463.63 -372.6,77.53 c -75.69,15.75 -149.19,-29.78 -164.16,-101.68 L 7013.12,4379.08 c -14.98,-71.92 34.26,-142.99 109.96,-158.74 l 255.62,-53.18 c 40.68,-8.47 82.82,0.67 115.04,24.93 l 192.48,144.99 c 25.4,19.13 44.96,45.16 51.3,75.63 l 595.79,2892.41 -339.66,-256.71"
         style="fill:#ffffff;fill-opacity:1;fill-rule:nonzero;stroke:none"
         id="path18" />
      <path
         d="m 7993.65,7048.41 c -41.27,-25.69 -38.82,-89.71 20.26,-105.78 l 70.43,-14.66 -105.61,-463.63 -372.6,77.53 c -75.69,15.75 -149.19,-29.78 -164.16,-101.68 L 7013.12,4379.08 c -14.98,-71.92 34.26,-142.99 109.96,-158.74 l 255.62,-53.18 c 40.68,-8.47 82.82,0.67 115.04,24.93 l 192.48,144.99 c 25.4,19.13 44.96,45.16 51.3,75.63 l 595.79,2892.41 z"
         style="fill:none;stroke:#231f20;stroke-width:100;stroke-linecap:butt;stroke-linejoin:round;stroke-miterlimit:10;stroke-dasharray:none;stroke-opacity:1"
         id="path20" />
      <path
         d="m 7585.32,4594.87 c -18.71,-89.89 -106.74,-147.59 -196.63,-128.89 -89.89,18.7 -147.61,106.73 -128.9,196.63 18.71,89.89 106.74,147.6 196.64,128.89 89.89,-18.7 147.59,-106.73 128.89,-196.63"
         style="fill:#ffffff;fill-opacity:1;fill-rule:nonzero;stroke:none"
         id="path22" />
      <path
         d="m 7585.32,4594.87 c -18.71,-89.89 -106.74,-147.59 -196.63,-128.89 -89.89,18.7 -147.61,106.73 -128.9,196.63 18.71,89.89 106.74,147.6 196.64,128.89 89.89,-18.7 147.59,-106.73 128.89,-196.63 z"
         style="fill:none;stroke:#231f20;stroke-width:100;stroke-linecap:butt;stroke-linejoin:round;stroke-miterlimit:10;stroke-dasharray:none;stroke-opacity:1"
         id="path24" />
      <path
         d="m 8319.88,10031 c -1078,-100.48 -1917.56,-1016.67 -1932.61,-2099.24 -1.6,-114.28 7.08,-230.95 26.56,-356.84 6.26,-40.47 108.91,-505.71 241.51,-1102.26 l 683.4,150.62 c -52.86,237.62 -91.33,409.95 -91.33,409.95 l -233.3,-51.42 c -49.76,-10.97 -89.14,38.37 -65.31,81.82 l 208.19,379.7 c -30.81,140.15 -49.64,227.18 -51.39,238.54 -11.96,77.42 -19.37,156.34 -18.43,237.27 9.12,794.08 660.25,1430.41 1454.34,1421.28 794.09,-9.13 1430.42,-660.25 1421.29,-1454.33 -0.92,-80.14 -10.03,-158.1 -23.5,-234.52 -12.32,-69.76 -712.98,-2889.89 -918.03,-3722.61 -33.47,-135.9 -15.74,-276.42 36.11,-406.42 29.63,-74.27 45.51,-155.43 44.53,-240.31 -4.07,-354.18 -299.62,-636.72 -656.02,-622.23 -337.73,13.73 -611.32,305.74 -603.77,643.67 1.85,82.99 19.72,161.95 50.59,233.94 53.98,125.84 74.56,262.86 44.96,396.55 -17.97,81.19 -40.47,182.51 -66.11,297.75 l -683.48,-150.64 c 6.48,-29.19 12.78,-57.63 18.71,-84.34 23.51,-106.13 23.61,-216.86 -7.9,-320.89 -34.72,-114.63 -53.86,-234.32 -56.61,-356.73 -16.08,-720 555.96,-1329.51 1275.15,-1358.71 13.12,-0.6 39.23,-1 39.23,-1 424.12,-4.9 820.21,187.75 1083.01,535.72 128.1,169.63 213.1,370.09 245.63,580.15 29.72,191.92 19.33,381.23 -28.52,559.62 -28.32,105.58 -33.8,215.87 -7.65,322.01 229.73,932.42 862.17,3474.64 879.57,3573.06 21.6,122.95 32.8,236.71 34.1,347.86 14.4,1254.45 -1060.14,2272.48 -2342.92,2152.98"
         style="fill:#ffffff;fill-opacity:1;fill-rule:nonzero;stroke:none"
         id="path26" />
      <path
         d="m 8319.88,10031 c -1078,-100.48 -1917.56,-1016.67 -1932.61,-2099.24 -1.6,-114.28 7.08,-230.95 26.56,-356.84 6.26,-40.47 108.91,-505.71 241.51,-1102.26 l 683.4,150.62 c -52.86,237.62 -91.33,409.95 -91.33,409.95 l -233.3,-51.42 c -49.76,-10.97 -89.14,38.37 -65.31,81.82 l 208.19,379.7 c -30.81,140.15 -49.64,227.18 -51.39,238.54 -11.96,77.42 -19.37,156.34 -18.43,237.27 9.12,794.08 660.25,1430.41 1454.34,1421.28 794.09,-9.13 1430.42,-660.25 1421.29,-1454.33 -0.92,-80.14 -10.03,-158.1 -23.5,-234.52 -12.32,-69.76 -712.98,-2889.89 -918.03,-3722.61 -33.47,-135.9 -15.74,-276.42 36.11,-406.42 29.63,-74.27 45.51,-155.43 44.53,-240.31 -4.07,-354.18 -299.62,-636.72 -656.02,-622.23 -337.73,13.73 -611.32,305.74 -603.77,643.67 1.85,82.99 19.72,161.95 50.59,233.94 53.98,125.84 74.56,262.86 44.96,396.55 -17.97,81.19 -40.47,182.51 -66.11,297.75 l -683.48,-150.64 c 6.48,-29.19 12.78,-57.63 18.71,-84.34 23.51,-106.13 23.61,-216.86 -7.9,-320.89 -34.72,-114.63 -53.86,-234.32 -56.61,-356.73 -16.08,-720 555.96,-1329.51 1275.15,-1358.71 13.12,-0.6 39.23,-1 39.23,-1 424.12,-4.9 820.21,187.75 1083.01,535.72 128.1,169.63 213.1,370.09 245.63,580.15 29.72,191.92 19.33,381.23 -28.52,559.62 -28.32,105.58 -33.8,215.87 -7.65,322.01 229.73,932.42 862.17,3474.64 879.57,3573.06 21.6,122.95 32.8,236.71 34.1,347.86 14.4,1254.45 -1060.14,2272.48 -2342.92,2152.98 z"
         style="fill:none;stroke:#231f20;stroke-width:100;stroke-linecap:butt;stroke-linejoin:round;stroke-miterlimit:10;stroke-dasharray:none;stroke-opacity:1"
         id="path28" />
    </g>
  </g>
</svg>
