<?xml version="1.0" encoding="UTF-8" standalone="no"?>
<svg
   xmlns:dc="http://purl.org/dc/elements/1.1/"
   xmlns:cc="http://creativecommons.org/ns#"
   xmlns:rdf="http://www.w3.org/1999/02/22-rdf-syntax-ns#"
   xmlns:svg="http://www.w3.org/2000/svg"
   xmlns="http://www.w3.org/2000/svg"
   xmlns:sodipodi="http://sodipodi.sourceforge.net/DTD/sodipodi-0.dtd"
   xmlns:inkscape="http://www.inkscape.org/namespaces/inkscape"
   version="1.1"
   id="svg2"
   xml:space="preserve"
   width="302.35999"
   height="302.35999"
   viewBox="0 0 302.35999 302.35999"
   sodipodi:docname="NPCFollow.eps"><metadata
     id="metadata8"><rdf:RDF><cc:Work
         rdf:about=""><dc:format>image/svg+xml</dc:format><dc:type
           rdf:resource="http://purl.org/dc/dcmitype/StillImage" /></cc:Work></rdf:RDF></metadata><defs
     id="defs6" /><sodipodi:namedview
     pagecolor="#ffffff"
     bordercolor="#666666"
     borderopacity="1"
     objecttolerance="10"
     gridtolerance="10"
     guidetolerance="10"
     inkscape:pageopacity="0"
     inkscape:pageshadow="2"
     inkscape:window-width="640"
     inkscape:window-height="480"
     id="namedview4" /><g
     id="g10"
     inkscape:groupmode="layer"
     inkscape:label="ink_ext_XXXXXX"
     transform="matrix(1.3333333,0,0,-1.3333333,0,302.36)"><g
       id="g12"
       transform="scale(0.1)"><path
         d="M 0,0 H 2267.71 V 2267.71 H 0 V 0"
         style="fill:#ffffff;fill-opacity:1;fill-rule:evenodd;stroke:none"
         id="path14" /><path
         d="m 1286.07,1368.28 234.44,-179.72 c 33.44,-25.79 39.96,-73.98 14.17,-107.43 -25.52,-33.45 -73.7,-39.68 -107.15,-14.17 l -165.83,126.99 z m -87.02,547.94 c 81.36,0 147.4,-66.05 147.4,-147.4 0,-81.36 -66.04,-147.4 -147.4,-147.4 -81.63,0 -147.4,66.04 -147.4,147.4 0,81.35 65.77,147.4 147.4,147.4 z m 3.69,-855.5 c -4.54,-32.88 1.7,-47.61 26.93,-69.443 l 117.92,-102.05 c 26.36,-22.957 44.78,-58.68 47.34,-93.543 l 25.79,-345.262 c 3.68,-50.453 -34.58,-94.961 -85.04,-98.645 -50.46,-3.683 -94.96,34.297 -98.64,85.039 l -24.38,325.418 -192.47,165.258 c -58.678,50.457 -73.702,101.198 -62.647,180.578 l 34.016,240.66 -49.606,-26.09 -74.836,-244.05 c -12.472,-40.26 -55.558,-62.94 -95.808,-50.75 -40.254,12.47 -62.93,55.56 -50.743,95.81 l 77.098,250.58 c 10.207,33.45 35.719,64.36 66.617,80.51 l 149.669,78.81 c 35.72,18.99 73.14,42.23 113.67,45.34 76.54,5.96 138.9,-65.47 128.13,-141.16 z M 866.836,355.754 c 48.473,-15.316 100.629,11.336 115.937,59.519 l 124.157,385.52 -112.535,96.66 c -14.743,12.469 -27.219,25.508 -37.418,38.543 L 807.586,471.68 c -15.59,-48.184 11.055,-100.344 59.25,-115.926 v 0"
         style="fill:#181716;fill-opacity:1;fill-rule:evenodd;stroke:none"
         id="path16" /></g></g></svg>
