<?xml version="1.0" encoding="UTF-8" standalone="no"?>
<svg
   xmlns:dc="http://purl.org/dc/elements/1.1/"
   xmlns:cc="http://creativecommons.org/ns#"
   xmlns:rdf="http://www.w3.org/1999/02/22-rdf-syntax-ns#"
   xmlns:svg="http://www.w3.org/2000/svg"
   xmlns="http://www.w3.org/2000/svg"
   xmlns:sodipodi="http://sodipodi.sourceforge.net/DTD/sodipodi-0.dtd"
   xmlns:inkscape="http://www.inkscape.org/namespaces/inkscape"
   width="210mm"
   height="297mm"
   viewBox="0 0 210 297"
   version="1.1"
   id="svg8"
   sodipodi:docname="RefugeDoorOpen.svg"
   inkscape:version="1.0.2-2 (e86c870879, 2021-01-15)">
  <defs
     id="defs2" />
  <sodipodi:namedview
     id="base"
     pagecolor="#8288ff"
     bordercolor="#666666"
     borderopacity="1.0"
     inkscape:pageopacity="0"
     inkscape:pageshadow="2"
     inkscape:zoom="0.5"
     inkscape:cx="509.74426"
     inkscape:cy="478.41138"
     inkscape:document-units="mm"
     inkscape:current-layer="layer1"
     inkscape:document-rotation="0"
     showgrid="false"
     inkscape:window-width="1920"
     inkscape:window-height="1017"
     inkscape:window-x="-8"
     inkscape:window-y="-8"
     inkscape:window-maximized="1" />
  <metadata
     id="metadata5">
    <rdf:RDF>
      <cc:Work
         rdf:about="">
        <dc:format>image/svg+xml</dc:format>
        <dc:type
           rdf:resource="http://purl.org/dc/dcmitype/StillImage" />
        <dc:title></dc:title>
      </cc:Work>
    </rdf:RDF>
  </metadata>
  <g
     inkscape:label="Layer 1"
     inkscape:groupmode="layer"
     id="layer1">
    <g
       id="g12"
       transform="matrix(0.03527778,0,0,-0.03527778,-386.03971,487.33732)"
       style="display:none">
      <path
         d="M 26000,0 H 0 V 20000 H 26000 V 0"
         style="fill:#ffffff;fill-opacity:1;fill-rule:nonzero;stroke:none"
         id="path14" />
      <path
         d="m 15538.5,5343.8 h 437.4 v 9096.1 h 5302.5 V 5343.8 h 420.1 v 9542.9 h -6160 V 5343.8"
         style="fill:#1f211f;fill-opacity:1;fill-rule:nonzero;stroke:none"
         id="path16" />
      <path
         d="m 15538.5,5343.8 h 437.4 v 9096.1 h 5302.5 V 5343.8 h 420.1 v 9542.9 h -6160 z"
         style="fill:none;stroke:#ffffff;stroke-width:30;stroke-linecap:butt;stroke-linejoin:miter;stroke-miterlimit:10;stroke-dasharray:none;stroke-opacity:1"
         id="path18" />
      <path
         d="M 21238.9,5343.8 17278.6,4311 v 11231.3 l 3960.3,-1102.4 V 5343.8"
         style="fill:#1c1e1d;fill-opacity:1;fill-rule:nonzero;stroke:none"
         id="path20" />
      <path
         d="M 17319.3,15488.7 V 4363.6 l 3878.9,1011.6 V 14409 Z m -81.4,-11230.4 v 11337.5 l 4041.7,-1125 V 5312.3 l -4041.7,-1054"
         style="fill:#ffffff;fill-opacity:1;fill-rule:nonzero;stroke:none"
         id="path22" />
      <path
         d="m 17901.7,10065.5 c 39,0 70.8,-27.7 70.8,-61.7 v -709.6 c 0,-34 -31.8,-61.7 -70.8,-61.7 -38.9,0 -70.8,27.7 -30.1,61.7 v 709.6 c -40.7,34 -8.8,61.7 30.1,61.7"
         style="fill:#ffffff;fill-opacity:1;fill-rule:nonzero;stroke:none"
         id="path24" />
      <path
         d="m 17901.7,10065.5 c 39,0 70.8,-27.7 70.8,-61.7 v -709.6 c 0,-34 -31.8,-61.7 -70.8,-61.7 -38.9,0 -70.8,27.7 -30.1,61.7 v 709.6 c -40.7,34 -8.8,61.7 30.1,61.7 z"
         style="fill:none;stroke:#ffffff;stroke-width:30;stroke-linecap:butt;stroke-linejoin:miter;stroke-miterlimit:10;stroke-dasharray:none;stroke-opacity:1"
         id="path26" />
      <path
         d="m 21444.1,12132.7 h -341.3 v 1102.7 h 341.3 v -1102.7"
         style="fill:#1c1e1d;fill-opacity:1;fill-rule:nonzero;stroke:none"
         id="path28" />
      <path
         d="m 21444.1,6383.2 h -341.3 v 1076.3 h 341.3 V 6383.2"
         style="fill:#1c1e1d;fill-opacity:1;fill-rule:nonzero;stroke:none"
         id="path30" />
      <path
         d="m 4478.46,5282.3 h 437.41 v 9096.1 H 10218.4 V 5282.3 h 420.1 v 9542.9 H 4478.46 V 5282.3"
         style="fill:#1f211f;fill-opacity:1;fill-rule:nonzero;stroke:none"
         id="path32" />
      <path
         d="m 4478.46,5282.3 h 437.41 v 9096.1 H 10218.4 V 5282.3 h 420.1 v 9542.9 H 4478.46 Z"
         style="fill:none;stroke:#ffffff;stroke-width:30;stroke-linecap:butt;stroke-linejoin:miter;stroke-miterlimit:10;stroke-dasharray:none;stroke-opacity:1"
         id="path34" />
      <path
         d="M 10132.8,5282.3 H 5005.87 v 9041.5 H 10132.8 V 5282.3"
         style="fill:#1f211f;fill-opacity:1;fill-rule:nonzero;stroke:none"
         id="path36" />
      <path
         d="M 10132.8,5282.3 H 5005.87 v 9041.5 h 5126.93 z"
         style="fill:none;stroke:#ffffff;stroke-width:30;stroke-linecap:butt;stroke-linejoin:miter;stroke-miterlimit:10;stroke-dasharray:none;stroke-opacity:1"
         id="path38" />
      <path
         d="m 5488.71,9955.5 c -35.48,0 -64.52,-29 -64.52,-64.5 v -884.9 c 0,-35.5 29.04,-64.5 64.52,-64.5 35.48,0 64.52,29 64.52,64.5 V 9891 c 0,35.5 -29.04,64.5 -64.52,64.5"
         style="fill:#ffffff;fill-opacity:1;fill-rule:nonzero;stroke:none"
         id="path40" />
      <path
         d="m 10284.1,11791.2 h -341.25 v 1102.6 h 341.25 v -1102.6"
         style="fill:#1c1e1d;fill-opacity:1;fill-rule:nonzero;stroke:none"
         id="path42" />
      <path
         d="M 10324.1,6571.6 H 9982.85 V 7648 h 341.25 V 6571.6"
         style="fill:#1c1e1d;fill-opacity:1;fill-rule:nonzero;stroke:none"
         id="path44" />
    </g>
    <rect
       style="fill:#000000;stroke:none;stroke-width:2.2009"
       id="rect889-5"
       width="160.32387"
       height="227.21742"
       x="26.128223"
       y="39.977715" />
    <path
       style="fill:#000000;fill-opacity:1;stroke:#ffffff;stroke-width:1.66885;stroke-linecap:butt;stroke-linejoin:miter;stroke-miterlimit:4;stroke-dasharray:none;stroke-opacity:1"
       d="M 170.69726,264.30461 69.743329,288.3909 V 23.501128 L 170.69726,49.208895 Z"
       id="path1027" />
    <rect
       style="fill:#ffffff;fill-opacity:1;stroke:none;stroke-width:1.66828;stroke-miterlimit:4;stroke-dasharray:none;stroke-opacity:1"
       id="rect1055"
       width="32.793304"
       height="220.92549"
       x="36.912457"
       y="46.19854" />
    <rect
       style="fill:#ffffff;fill-opacity:1;stroke:none;stroke-width:0.443995"
       id="rect1025-8"
       width="3.6705141"
       height="23.57201"
       x="80.284744"
       y="155.51419"
       ry="3.0658655"
       rx="1.8352571" />
  </g>
</svg>
