<?xml version="1.0" encoding="UTF-8" standalone="no"?>
<svg
   xmlns:dc="http://purl.org/dc/elements/1.1/"
   xmlns:cc="http://creativecommons.org/ns#"
   xmlns:rdf="http://www.w3.org/1999/02/22-rdf-syntax-ns#"
   xmlns:svg="http://www.w3.org/2000/svg"
   xmlns="http://www.w3.org/2000/svg"
   xmlns:sodipodi="http://sodipodi.sourceforge.net/DTD/sodipodi-0.dtd"
   xmlns:inkscape="http://www.inkscape.org/namespaces/inkscape"
   width="210mm"
   height="297mm"
   viewBox="0 0 210 297"
   version="1.1"
   id="svg8"
   sodipodi:docname="RefugeDoorClosed.svg"
   inkscape:version="1.0.2-2 (e86c870879, 2021-01-15)">
  <defs
     id="defs2" />
  <sodipodi:namedview
     id="base"
     pagecolor="#8288ff"
     bordercolor="#666666"
     borderopacity="1.0"
     inkscape:pageopacity="0"
     inkscape:pageshadow="2"
     inkscape:zoom="0.5"
     inkscape:cx="609.41909"
     inkscape:cy="478.41138"
     inkscape:document-units="mm"
     inkscape:current-layer="layer1"
     inkscape:document-rotation="0"
     showgrid="false"
     inkscape:window-width="1920"
     inkscape:window-height="1017"
     inkscape:window-x="-8"
     inkscape:window-y="-8"
     inkscape:window-maximized="1" />
  <metadata
     id="metadata5">
    <rdf:RDF>
      <cc:Work
         rdf:about="">
        <dc:format>image/svg+xml</dc:format>
        <dc:type
           rdf:resource="http://purl.org/dc/dcmitype/StillImage" />
        <dc:title></dc:title>
      </cc:Work>
    </rdf:RDF>
  </metadata>
  <g
     inkscape:label="Layer 1"
     inkscape:groupmode="layer"
     id="layer1">
    <g
       id="g12"
       transform="matrix(0.03527778,0,0,-0.03527778,-386.03971,487.33732)"
       style="display:none">
      <path
         d="M 26000,0 H 0 V 20000 H 26000 V 0"
         style="fill:#ffffff;fill-opacity:1;fill-rule:nonzero;stroke:none"
         id="path14" />
      <path
         d="m 15538.5,5343.8 h 437.4 v 9096.1 h 5302.5 V 5343.8 h 420.1 v 9542.9 h -6160 V 5343.8"
         style="fill:#1f211f;fill-opacity:1;fill-rule:nonzero;stroke:none"
         id="path16" />
      <path
         d="m 15538.5,5343.8 h 437.4 v 9096.1 h 5302.5 V 5343.8 h 420.1 v 9542.9 h -6160 z"
         style="fill:none;stroke:#ffffff;stroke-width:30;stroke-linecap:butt;stroke-linejoin:miter;stroke-miterlimit:10;stroke-dasharray:none;stroke-opacity:1"
         id="path18" />
      <path
         d="M 21238.9,5343.8 17278.6,4311 v 11231.3 l 3960.3,-1102.4 V 5343.8"
         style="fill:#1c1e1d;fill-opacity:1;fill-rule:nonzero;stroke:none"
         id="path20" />
      <path
         d="M 17319.3,15488.7 V 4363.6 l 3878.9,1011.6 V 14409 Z m -81.4,-11230.4 v 11337.5 l 4041.7,-1125 V 5312.3 l -4041.7,-1054"
         style="fill:#ffffff;fill-opacity:1;fill-rule:nonzero;stroke:none"
         id="path22" />
      <path
         d="m 17901.7,10065.5 c 39,0 70.8,-27.7 70.8,-61.7 v -709.6 c 0,-34 -31.8,-61.7 -70.8,-61.7 -38.9,0 -70.8,27.7 -30.1,61.7 v 709.6 c -40.7,34 -8.8,61.7 30.1,61.7"
         style="fill:#ffffff;fill-opacity:1;fill-rule:nonzero;stroke:none"
         id="path24" />
      <path
         d="m 17901.7,10065.5 c 39,0 70.8,-27.7 70.8,-61.7 v -709.6 c 0,-34 -31.8,-61.7 -70.8,-61.7 -38.9,0 -70.8,27.7 -30.1,61.7 v 709.6 c -40.7,34 -8.8,61.7 30.1,61.7 z"
         style="fill:none;stroke:#ffffff;stroke-width:30;stroke-linecap:butt;stroke-linejoin:miter;stroke-miterlimit:10;stroke-dasharray:none;stroke-opacity:1"
         id="path26" />
      <path
         d="m 21444.1,12132.7 h -341.3 v 1102.7 h 341.3 v -1102.7"
         style="fill:#1c1e1d;fill-opacity:1;fill-rule:nonzero;stroke:none"
         id="path28" />
      <path
         d="m 21444.1,6383.2 h -341.3 v 1076.3 h 341.3 V 6383.2"
         style="fill:#1c1e1d;fill-opacity:1;fill-rule:nonzero;stroke:none"
         id="path30" />
      <path
         d="m 4478.46,5282.3 h 437.41 v 9096.1 H 10218.4 V 5282.3 h 420.1 v 9542.9 H 4478.46 V 5282.3"
         style="fill:#1f211f;fill-opacity:1;fill-rule:nonzero;stroke:none"
         id="path32" />
      <path
         d="m 4478.46,5282.3 h 437.41 v 9096.1 H 10218.4 V 5282.3 h 420.1 v 9542.9 H 4478.46 Z"
         style="fill:none;stroke:#ffffff;stroke-width:30;stroke-linecap:butt;stroke-linejoin:miter;stroke-miterlimit:10;stroke-dasharray:none;stroke-opacity:1"
         id="path34" />
      <path
         d="M 10132.8,5282.3 H 5005.87 v 9041.5 H 10132.8 V 5282.3"
         style="fill:#1f211f;fill-opacity:1;fill-rule:nonzero;stroke:none"
         id="path36" />
      <path
         d="M 10132.8,5282.3 H 5005.87 v 9041.5 h 5126.93 z"
         style="fill:none;stroke:#ffffff;stroke-width:30;stroke-linecap:butt;stroke-linejoin:miter;stroke-miterlimit:10;stroke-dasharray:none;stroke-opacity:1"
         id="path38" />
      <path
         d="m 5488.71,9955.5 c -35.48,0 -64.52,-29 -64.52,-64.5 v -884.9 c 0,-35.5 29.04,-64.5 64.52,-64.5 35.48,0 64.52,29 64.52,64.5 V 9891 c 0,35.5 -29.04,64.5 -64.52,64.5"
         style="fill:#ffffff;fill-opacity:1;fill-rule:nonzero;stroke:none"
         id="path40" />
      <path
         d="m 10284.1,11791.2 h -341.25 v 1102.6 h 341.25 v -1102.6"
         style="fill:#1c1e1d;fill-opacity:1;fill-rule:nonzero;stroke:none"
         id="path42" />
      <path
         d="M 10324.1,6571.6 H 9982.85 V 7648 h 341.25 V 6571.6"
         style="fill:#1c1e1d;fill-opacity:1;fill-rule:nonzero;stroke:none"
         id="path44" />
    </g>
    <rect
       style="fill:#000000;stroke:none;stroke-width:2.2009"
       id="rect889"
       width="160.32387"
       height="227.21742"
       x="24.201599"
       y="40.462433" />
    <rect
       style="fill:#ffffff;fill-opacity:1;stroke:none;stroke-width:1.51922"
       id="rect897"
       width="138.98114"
       height="2.9005806"
       x="34.919373"
       y="51.162025" />
    <rect
       style="fill:#ffffff;fill-opacity:1;stroke:none;stroke-width:2.12808"
       id="rect899"
       width="216.61598"
       height="3.6516635"
       x="50.715073"
       y="-38.29937"
       transform="matrix(-1.2281751e-4,0.99999999,-0.99992491,-0.01225459,0,0)" />
    <rect
       style="fill:#ffffff;fill-opacity:1;stroke:none;stroke-width:0.886516"
       id="rect899-7"
       width="37.600571"
       height="3.6514509"
       x="50.815681"
       y="-174.03941"
       transform="matrix(0.00342609,0.99999413,-0.99999795,-0.00202269,0,0)"
       ry="0" />
    <rect
       style="fill:#ffffff;fill-opacity:1;stroke:none;stroke-width:1.43921"
       id="rect899-7-8"
       width="99.098274"
       height="3.6514957"
       x="111.88061"
       y="-173.45248"
       transform="matrix(0.00129994,0.99999916,-0.99998579,-0.00533088,0,0)"
       ry="0" />
    <rect
       style="fill:#ffffff;fill-opacity:1;stroke:none;stroke-width:0.797263"
       id="rect899-7-4"
       width="30.411621"
       height="3.6514482"
       x="237.09335"
       y="-172.72023"
       transform="matrix(0.00423599,0.99999103,-0.99999866,-0.00163597,0,0)"
       ry="0" />
    <rect
       style="fill:#ffffff;fill-opacity:1;stroke:none;stroke-width:0.522084"
       id="rect1025"
       width="5.0751719"
       height="23.57201"
       x="47.728607"
       y="153.60443"
       ry="3.0658655"
       rx="2.537586" />
  </g>
</svg>
