<?xml version="1.0" encoding="UTF-8" standalone="no"?>
<svg
   xmlns:dc="http://purl.org/dc/elements/1.1/"
   xmlns:cc="http://creativecommons.org/ns#"
   xmlns:rdf="http://www.w3.org/1999/02/22-rdf-syntax-ns#"
   xmlns:svg="http://www.w3.org/2000/svg"
   xmlns="http://www.w3.org/2000/svg"
   xmlns:sodipodi="http://sodipodi.sourceforge.net/DTD/sodipodi-0.dtd"
   xmlns:inkscape="http://www.inkscape.org/namespaces/inkscape"
   sodipodi:docname="AL-Playspace.svg"
   inkscape:version="1.0 (4035a4fb49, 2020-05-01)"
   id="svg8"
   version="1.1"
   viewBox="0 0 210 297"
   height="297mm"
   width="210mm">
  <defs
     id="defs2">
    <rect
       id="rect853"
       height="37.230655"
       width="24.568452"
       y="56.318452"
       x="70.49256" />
  </defs>
  <sodipodi:namedview
     inkscape:window-maximized="0"
     inkscape:window-y="7"
     inkscape:window-x="142"
     inkscape:window-height="1030"
     inkscape:window-width="1424"
     showgrid="false"
     inkscape:document-rotation="0"
     inkscape:current-layer="layer1"
     inkscape:document-units="mm"
     inkscape:cy="292.31942"
     inkscape:cx="325.74278"
     inkscape:zoom="1.4"
     inkscape:pageshadow="2"
     inkscape:pageopacity="0.0"
     borderopacity="1.0"
     bordercolor="#666666"
     pagecolor="#ffffff"
     id="base" />
  <metadata
     id="metadata5">
    <rdf:RDF>
      <cc:Work
         rdf:about="">
        <dc:format>image/svg+xml</dc:format>
        <dc:type
           rdf:resource="http://purl.org/dc/dcmitype/StillImage" />
        <dc:title></dc:title>
      </cc:Work>
    </rdf:RDF>
  </metadata>
  <g
     id="layer1"
     inkscape:groupmode="layer"
     inkscape:label="Layer 1">
    <rect
       y="30.238094"
       x="40.065475"
       height="89.202393"
       width="85.42263"
       id="rect833"
       style="fill:#ffffff;fill-opacity:0;stroke:#ffffff;stroke-width:0.595312;stroke-linecap:round;stroke-linejoin:round;stroke-opacity:1" />
    <g
       style="font-weight:bold;font-size:10.5833px;line-height:1.25;font-family:Calibri;-inkscape-font-specification:'Calibri Bold';white-space:pre;shape-inside:url(#rect853);fill:#ffffff;fill-opacity:1"
       id="text851"
       transform="translate(4.5357143,-26.269345)"
       aria-label="^^^">
      <path
         style="fill:#ffffff;fill-opacity:1"
         id="path857"
         d="m 75.49445,62.498841 q 0.06718,0.144694 0.08268,0.232543 0.0155,0.08785 -0.04134,0.134358 -0.05168,0.04651 -0.186034,0.06201 -0.129191,0.01033 -0.356567,0.01033 -0.201537,0 -0.335895,-0.01033 -0.129191,-0.0155 -0.217041,-0.04134 -0.08268,-0.03101 -0.12919,-0.07235 -0.04134,-0.04651 -0.06718,-0.10852 l -1.142046,-2.795686 -0.02584,0.0052 -1.095537,2.790518 q -0.02584,0.06201 -0.07235,0.10852 -0.04134,0.04134 -0.124023,0.07235 -0.08268,0.02584 -0.21704,0.04134 -0.129191,0.01033 -0.330728,0.01033 -0.227376,0 -0.356566,-0.01033 -0.124024,-0.0155 -0.180867,-0.06201 -0.05168,-0.04651 -0.03617,-0.134358 0.0155,-0.08785 0.08268,-0.232543 l 1.488277,-3.389963 q 0.03101,-0.06718 0.09302,-0.113688 0.06201,-0.05168 0.165364,-0.08268 0.10852,-0.03617 0.258381,-0.05168 0.149862,-0.02067 0.356567,-0.02067 0.206705,0 0.356566,0.02067 0.155029,0.0155 0.258381,0.05168 0.103353,0.03101 0.165364,0.08268 0.06201,0.04651 0.09302,0.113688 z" />
      <path
         style="fill:#ffffff;fill-opacity:1"
         id="path859"
         d="m 80.76543,62.498841 q 0.06718,0.144694 0.08268,0.232543 0.0155,0.08785 -0.04134,0.134358 -0.05168,0.04651 -0.186035,0.06201 -0.129191,0.01033 -0.356566,0.01033 -0.201538,0 -0.335896,-0.01033 -0.129191,-0.0155 -0.21704,-0.04134 -0.08268,-0.03101 -0.129191,-0.07235 -0.04134,-0.04651 -0.06718,-0.10852 l -1.142046,-2.795686 -0.02584,0.0052 -1.095537,2.790518 q -0.02584,0.06201 -0.07235,0.10852 -0.04134,0.04134 -0.124023,0.07235 -0.08268,0.02584 -0.217041,0.04134 -0.12919,0.01033 -0.330728,0.01033 -0.227375,0 -0.356566,-0.01033 -0.124023,-0.0155 -0.180867,-0.06201 -0.05168,-0.04651 -0.03617,-0.134358 0.0155,-0.08785 0.08268,-0.232543 l 1.488276,-3.389963 q 0.03101,-0.06718 0.09302,-0.113688 0.06201,-0.05168 0.165364,-0.08268 0.108521,-0.03617 0.258382,-0.05168 0.149861,-0.02067 0.356566,-0.02067 0.206705,0 0.356566,0.02067 0.155029,0.0155 0.258382,0.05168 0.103352,0.03101 0.165364,0.08268 0.06201,0.04651 0.09302,0.113688 z" />
      <path
         style="fill:#ffffff;fill-opacity:1"
         id="path861"
         d="m 86.036409,62.498841 q 0.06718,0.144694 0.08268,0.232543 0.0155,0.08785 -0.04134,0.134358 -0.05168,0.04651 -0.186035,0.06201 -0.12919,0.01033 -0.356566,0.01033 -0.201537,0 -0.335896,-0.01033 -0.12919,-0.0155 -0.21704,-0.04134 -0.08268,-0.03101 -0.129191,-0.07235 -0.04134,-0.04651 -0.06718,-0.10852 l -1.142045,-2.795686 -0.02584,0.0052 -1.095537,2.790518 q -0.02584,0.06201 -0.07235,0.10852 -0.04134,0.04134 -0.124023,0.07235 -0.08268,0.02584 -0.21704,0.04134 -0.129191,0.01033 -0.330728,0.01033 -0.227376,0 -0.356567,-0.01033 -0.124023,-0.0155 -0.180867,-0.06201 -0.05168,-0.04651 -0.03617,-0.134358 0.0155,-0.08785 0.08268,-0.232543 l 1.488277,-3.389963 q 0.031,-0.06718 0.09302,-0.113688 0.06201,-0.05168 0.165364,-0.08268 0.10852,-0.03617 0.258381,-0.05168 0.149861,-0.02067 0.356566,-0.02067 0.206706,0 0.356567,0.02067 0.155029,0.0155 0.258381,0.05168 0.103353,0.03101 0.165364,0.08268 0.06201,0.04651 0.09302,0.113688 z" />
    </g>
  </g>
</svg>
