<?xml version="1.0" encoding="UTF-8" standalone="no"?>
<svg
   xmlns:dc="http://purl.org/dc/elements/1.1/"
   xmlns:cc="http://creativecommons.org/ns#"
   xmlns:rdf="http://www.w3.org/1999/02/22-rdf-syntax-ns#"
   xmlns:svg="http://www.w3.org/2000/svg"
   xmlns="http://www.w3.org/2000/svg"
   xmlns:sodipodi="http://sodipodi.sourceforge.net/DTD/sodipodi-0.dtd"
   xmlns:inkscape="http://www.inkscape.org/namespaces/inkscape"
   sodipodi:docname="BG4-Alarm.svg"
   inkscape:version="1.0 (4035a4fb49, 2020-05-01)"
   id="svg8"
   version="1.1"
   viewBox="0 0 210 297"
   height="297mm"
   width="210mm">
  <defs
     id="defs2" />
  <sodipodi:namedview
     inkscape:window-maximized="1"
     inkscape:window-y="-9"
     inkscape:window-x="2391"
     inkscape:window-height="1271"
     inkscape:window-width="2400"
     showgrid="false"
     inkscape:document-rotation="0"
     inkscape:current-layer="layer1"
     inkscape:document-units="mm"
     inkscape:cy="562.16023"
     inkscape:cx="168.47198"
     inkscape:zoom="7.9195959"
     inkscape:pageshadow="2"
     inkscape:pageopacity="0.0"
     borderopacity="1.0"
     bordercolor="#666666"
     pagecolor="#ffffff"
     id="base" />
  <metadata
     id="metadata5">
    <rdf:RDF>
      <cc:Work
         rdf:about="">
        <dc:format>image/svg+xml</dc:format>
        <dc:type
           rdf:resource="http://purl.org/dc/dcmitype/StillImage" />
        <dc:title></dc:title>
      </cc:Work>
    </rdf:RDF>
  </metadata>
  <g
     id="layer1"
     inkscape:groupmode="layer"
     inkscape:label="Layer 1">
    <g
       style="font-weight:bold;font-size:10.5833px;line-height:1.25;font-family:Calibri;-inkscape-font-specification:'Calibri Bold';stroke-width:0.264583;fill:#ffffff"
       id="text849"
       aria-label="(  !  )">
      <path
         id="path853"
         style="stroke-width:0.264583;fill:#ffffff"
         d="m 23.758937,151.59649 q -0.43408,1.00769 -0.656288,2.08256 -0.222208,1.0697 -0.222208,2.19624 0,1.13171 0.222208,2.20141 0.227375,1.06453 0.651121,2.08772 0.03101,0.0827 0.03101,0.13952 0,0.062 -0.05684,0.10336 -0.05684,0.0413 -0.1757,0.062 -0.113687,0.0207 -0.320393,0.0207 -0.144693,0 -0.248046,-0.0103 -0.103352,-0.0103 -0.175699,-0.031 -0.06718,-0.0155 -0.10852,-0.0465 -0.03617,-0.0258 -0.05168,-0.062 -0.279052,-0.53744 -0.485757,-1.0852 -0.206705,-0.54261 -0.346231,-1.09554 -0.134359,-0.5581 -0.201538,-1.12138 -0.06718,-0.56844 -0.06718,-1.15238 0,-0.57877 0.06718,-1.14204 0.07235,-0.56844 0.211873,-1.12138 0.139526,-0.5581 0.341063,-1.10587 0.206705,-0.54777 0.48059,-1.09037 0.01034,-0.0258 0.04134,-0.0465 0.03101,-0.0207 0.09302,-0.0362 0.06201,-0.0207 0.165364,-0.0258 0.10852,-0.0103 0.273884,-0.0103 0.186035,0 0.30489,0.0207 0.118856,0.0155 0.180867,0.0517 0.06201,0.0362 0.06718,0.093 0.01034,0.0568 -0.0155,0.12402 z" />
      <path
         id="path855"
         style="stroke-width:0.264583;fill:#ffffff"
         d="m 29.210707,157.07609 q -0.0052,0.0517 -0.03101,0.093 -0.02584,0.0413 -0.09302,0.0724 -0.06201,0.0258 -0.175699,0.0413 -0.10852,0.0155 -0.268717,0.0155 -0.165364,0 -0.273884,-0.0155 -0.10852,-0.0155 -0.175699,-0.0413 -0.06201,-0.031 -0.08785,-0.0724 -0.02584,-0.0413 -0.03101,-0.093 l -0.134358,-4.6922 q 0,-0.0672 0.03101,-0.11886 0.03101,-0.0517 0.10852,-0.0827 0.08268,-0.0362 0.21704,-0.0517 0.139526,-0.0155 0.346231,-0.0155 0.206705,0 0.341063,0.0207 0.134359,0.0155 0.211873,0.0517 0.08268,0.031 0.113688,0.0827 0.03617,0.0465 0.03617,0.11369 z m 0.160196,1.51412 q 0,0.21187 -0.03617,0.35656 -0.03101,0.1447 -0.118855,0.23255 -0.08268,0.0879 -0.222208,0.12402 -0.139526,0.0413 -0.351399,0.0413 -0.211873,0 -0.356566,-0.0413 -0.139526,-0.0362 -0.222208,-0.12402 -0.08268,-0.0879 -0.118855,-0.23255 -0.03101,-0.14469 -0.03101,-0.35656 0,-0.21704 0.03101,-0.36174 0.03617,-0.14986 0.118855,-0.23771 0.08268,-0.093 0.222208,-0.12919 0.144693,-0.0413 0.356566,-0.0413 0.211873,0 0.351399,0.0413 0.139526,0.0362 0.222208,0.12919 0.08785,0.0879 0.118855,0.23771 0.03617,0.1447 0.03617,0.36174 z" />
      <path
         id="path857"
         style="stroke-width:0.264583;fill:#ffffff"
         d="m 35.50648,155.85221 q 0,0.58394 -0.06718,1.15238 -0.06718,0.56328 -0.206706,1.12138 -0.134358,0.55293 -0.341063,1.09554 -0.201537,0.54776 -0.480589,1.0852 -0.0155,0.0362 -0.05684,0.062 -0.03617,0.031 -0.10852,0.0465 -0.06718,0.0207 -0.170532,0.031 -0.103352,0.0103 -0.248046,0.0103 -0.211873,0 -0.330728,-0.0207 -0.113688,-0.0207 -0.170532,-0.062 -0.05684,-0.0413 -0.05684,-0.10336 0,-0.0568 0.03101,-0.13952 0.428913,-1.01286 0.651121,-2.08256 0.227376,-1.07486 0.227376,-2.20657 0,-1.12654 -0.222208,-2.19624 -0.222208,-1.07487 -0.661457,-2.08256 -0.02584,-0.0672 -0.02067,-0.12402 0.01033,-0.0568 0.07235,-0.093 0.06718,-0.0362 0.180867,-0.0517 0.118855,-0.0207 0.310057,-0.0207 0.160197,0 0.263549,0.0103 0.103353,0.005 0.170532,0.0258 0.06718,0.0155 0.09302,0.0362 0.03101,0.0207 0.04651,0.0465 0.537433,1.0852 0.816485,2.19624 0.279052,1.10587 0.279052,2.26342 z" />
    </g>
    <ellipse
       transform="matrix(0.99971586,0.02383698,-0.02534944,0.99967865,0,0)"
       ry="4.7033491"
       rx="4.9150753"
       cy="154.9613"
       cx="32.487976"
       id="path851"
       style="fill:#ffffff;fill-opacity:0;stroke:#ffffff;stroke-width:1.08575;stroke-linecap:round;stroke-linejoin:round;stroke-miterlimit:4;stroke-dasharray:none;stroke-opacity:1" />
  </g>
</svg>
