<?xml version="1.0" encoding="UTF-8" standalone="no"?>
<svg
   xmlns:dc="http://purl.org/dc/elements/1.1/"
   xmlns:cc="http://creativecommons.org/ns#"
   xmlns:rdf="http://www.w3.org/1999/02/22-rdf-syntax-ns#"
   xmlns:svg="http://www.w3.org/2000/svg"
   xmlns="http://www.w3.org/2000/svg"
   xmlns:sodipodi="http://sodipodi.sourceforge.net/DTD/sodipodi-0.dtd"
   xmlns:inkscape="http://www.inkscape.org/namespaces/inkscape"
   sodipodi:docname="BG4-Mute.svg"
   inkscape:version="1.0 (4035a4fb49, 2020-05-01)"
   id="svg8"
   version="1.1"
   viewBox="0 0 210 297"
   height="297mm"
   width="210mm">
  <defs
     id="defs2">
    <rect
       id="rect1483"
       height="36.852679"
       width="38.175595"
       y="121.51935"
       x="70.303572" />
    <inkscape:path-effect
       lpeversion="1"
       is_visible="true"
       id="path-effect1119"
       effect="spiro" />
    <marker
       inkscape:isstock="true"
       style="overflow:visible"
       id="Arrow1Lstart"
       refX="0.0"
       refY="0.0"
       orient="auto"
       inkscape:stockid="Arrow1Lstart">
      <path
         transform="scale(0.8) translate(12.5,0)"
         style="fill-rule:evenodd;stroke:#000000;stroke-width:1.0pt"
         d="M 0.0,0.0 L 5.0,-5.0 L -12.5,0.0 L 5.0,5.0 L 0.0,0.0 z "
         id="path841" />
    </marker>
  </defs>
  <sodipodi:namedview
     inkscape:window-maximized="1"
     inkscape:window-y="-9"
     inkscape:window-x="2391"
     inkscape:window-height="1271"
     inkscape:window-width="2400"
     showgrid="false"
     inkscape:document-rotation="0"
     inkscape:current-layer="layer1"
     inkscape:document-units="mm"
     inkscape:cy="283.17781"
     inkscape:cx="438.54015"
     inkscape:zoom="0.49497475"
     inkscape:pageshadow="2"
     inkscape:pageopacity="0.0"
     borderopacity="1.0"
     bordercolor="#666666"
     pagecolor="#ffffff"
     id="base" />
  <metadata
     id="metadata5">
    <rdf:RDF>
      <cc:Work
         rdf:about="">
        <dc:format>image/svg+xml</dc:format>
        <dc:type
           rdf:resource="http://purl.org/dc/dcmitype/StillImage" />
        <dc:title></dc:title>
      </cc:Work>
    </rdf:RDF>
  </metadata>
  <g
     id="layer1"
     inkscape:groupmode="layer"
     inkscape:label="Layer 1">
    <ellipse
       ry="38.202862"
       rx="38.958813"
       cy="205.99701"
       cx="92.604172"
       id="path837"
       style="fill:#ffffff;fill-opacity:0;stroke:#ffffff;stroke-width:2.94547;stroke-linecap:round;stroke-linejoin:round;stroke-miterlimit:4;stroke-dasharray:none;stroke-opacity:1" />
    <path
       inkscape:transform-center-y="6.5505544e-06"
       d="m 95.672019,181.02894 v 49.6773 L 76.877473,212.55599 v -13.37707 z"
       inkscape:transform-center-x="-1.4837157e-06"
       style="fill:#ffffff;fill-opacity:1;stroke:#ffffff;stroke-width:1.46003;stroke-linecap:round;stroke-linejoin:round;stroke-miterlimit:4;stroke-dasharray:none;stroke-opacity:1"
       id="path1125" />
    <rect
       style="fill:#ffffff;fill-opacity:1;stroke:#ffffff;stroke-width:1.84592;stroke-linecap:round;stroke-linejoin:round;stroke-miterlimit:4;stroke-dasharray:none;stroke-opacity:1"
       id="rect1135"
       width="5.7971592"
       height="12.491058"
       x="67.738739"
       y="199.19513" />
    <text
       style="font-weight:bold;font-size:16.9333px;line-height:1.25;font-family:Calibri;-inkscape-font-specification:'Calibri Bold';white-space:pre;shape-inside:url(#rect1483);"
       id="text1481"
       xml:space="preserve" />
    <g
       style="font-weight:bold;font-size:50.3894px;line-height:1.25;font-family:Calibri;-inkscape-font-specification:'Calibri Bold';stroke-width:1.25973;fill:#ffffff;stroke:#ffffff;stroke-opacity:1"
       id="text1489"
       transform="matrix(0.73552928,0.73552928,-0.67978259,0.67978259,0,0)"
       aria-label="+">
      <path
         id="path1491"
         style="stroke-width:1.25973;fill:#ffffff;stroke:#ffffff;stroke-opacity:1"
         d="m 226.93382,68.656182 q 0,0.688917 -0.0738,1.156397 -0.0738,0.46748 -0.22144,0.76273 -0.14762,0.270647 -0.34446,0.393668 -0.19683,0.123021 -0.41827,0.123021 h -7.6519 v 8.340823 q 0,0.246042 -0.12302,0.442876 -0.12302,0.172229 -0.41828,0.319854 -0.29525,0.123021 -0.78733,0.196834 -0.49208,0.07381 -1.23021,0.07381 -0.73813,0 -1.23021,-0.07381 -0.49208,-0.07381 -0.78733,-0.196834 -0.29525,-0.147625 -0.44288,-0.319854 -0.12302,-0.196834 -0.12302,-0.442876 v -8.340823 h -7.6273 q -0.22144,0 -0.41827,-0.123021 -0.17223,-0.123021 -0.31986,-0.393668 -0.14762,-0.29525 -0.24604,-0.76273 -0.0738,-0.46748 -0.0738,-1.156397 0,-0.664314 0.0738,-1.131793 0.0738,-0.492084 0.19683,-0.762731 0.14763,-0.29525 0.31986,-0.418271 0.17223,-0.123021 0.39366,-0.123021 h 7.70112 v -8.316219 q 0,-0.246042 0.12302,-0.442876 0.14763,-0.221438 0.44288,-0.344459 0.29525,-0.147625 0.78733,-0.221438 0.49208,-0.07381 1.23021,-0.07381 0.73813,0 1.23021,0.07381 0.49208,0.07381 0.78733,0.221438 0.29526,0.123021 0.41828,0.344459 0.12302,0.196834 0.12302,0.442876 v 8.316219 h 7.72572 q 0.19683,0 0.36906,0.123021 0.19683,0.123021 0.31985,0.418271 0.14763,0.270647 0.22144,0.762731 0.0738,0.467479 0.0738,1.131793 z" />
    </g>
  </g>
</svg>
