<?xml version="1.0" encoding="UTF-8" standalone="no"?>
<svg
   xmlns:dc="http://purl.org/dc/elements/1.1/"
   xmlns:cc="http://creativecommons.org/ns#"
   xmlns:rdf="http://www.w3.org/1999/02/22-rdf-syntax-ns#"
   xmlns:svg="http://www.w3.org/2000/svg"
   xmlns="http://www.w3.org/2000/svg"
   xmlns:sodipodi="http://sodipodi.sourceforge.net/DTD/sodipodi-0.dtd"
   xmlns:inkscape="http://www.inkscape.org/namespaces/inkscape"
   inkscape:version="1.0 (4035a4fb49, 2020-05-01)"
   sodipodi:docname="LinkLine.svg"
   id="svg860"
   version="1.1"
   viewBox="0 0 210 297"
   height="297mm"
   width="210mm">
  <defs
     id="defs854">
    <inkscape:path-effect
       lpeversion="1"
       is_visible="true"
       id="path-effect1598"
       effect="spiro" />
    <inkscape:path-effect
       lpeversion="1"
       is_visible="true"
       id="path-effect1594"
       effect="spiro" />
    <inkscape:path-effect
       lpeversion="1"
       is_visible="true"
       id="path-effect1527"
       effect="spiro" />
    <rect
       id="rect1427"
       height="57.452381"
       width="43.089286"
       y="181.42857"
       x="31.75" />
  </defs>
  <sodipodi:namedview
     inkscape:window-maximized="1"
     inkscape:window-y="-9"
     inkscape:window-x="2391"
     inkscape:window-height="1271"
     inkscape:window-width="2400"
     showgrid="false"
     inkscape:document-rotation="0"
     inkscape:current-layer="g1718"
     inkscape:document-units="mm"
     inkscape:cy="613.67027"
     inkscape:cx="23.680769"
     inkscape:zoom="7.9195959"
     inkscape:pageshadow="2"
     inkscape:pageopacity="0.0"
     borderopacity="1.0"
     bordercolor="#666666"
     pagecolor="#ffffff"
     id="base" />
  <metadata
     id="metadata857">
    <rdf:RDF>
      <cc:Work
         rdf:about="">
        <dc:format>image/svg+xml</dc:format>
        <dc:type
           rdf:resource="http://purl.org/dc/dcmitype/StillImage" />
      </cc:Work>
    </rdf:RDF>
  </metadata>
  <g
     id="layer1"
     inkscape:groupmode="layer"
     inkscape:label="Layer 1">
    <g
       style="fill:#ffffff;fill-opacity:1"
       id="g1718">
      <g
         aria-label="0"
         id="text1483"
         style="font-style:normal;font-variant:normal;font-weight:normal;font-stretch:normal;font-size:10.5833px;line-height:1.25;font-family:'Orator Std';-inkscape-font-specification:'Orator Std';stroke-width:0.264583;fill:#ffffff;fill-opacity:1"
         transform="rotate(45,74.096747,120.1124)">
        <g
           id="g1649"
           style="opacity:1;fill:#ffffff;fill-opacity:1">
          <path
             style="color:#000000;font-style:normal;font-variant:normal;font-weight:normal;font-stretch:normal;font-size:medium;line-height:1.25;font-family:'Orator Std';-inkscape-font-specification:'Orator Std';font-variant-ligatures:normal;font-variant-position:normal;font-variant-caps:normal;font-variant-numeric:normal;font-variant-alternates:normal;font-variant-east-asian:normal;font-feature-settings:normal;font-variation-settings:normal;text-indent:0;text-align:start;text-decoration:none;text-decoration-line:none;text-decoration-style:solid;text-decoration-color:#000000;letter-spacing:normal;word-spacing:normal;text-transform:none;writing-mode:lr-tb;direction:ltr;text-orientation:mixed;dominant-baseline:auto;baseline-shift:baseline;text-anchor:start;white-space:normal;shape-padding:0;shape-margin:0;inline-size:0;clip-rule:nonzero;display:inline;overflow:visible;visibility:visible;isolation:auto;mix-blend-mode:normal;color-interpolation:sRGB;color-interpolation-filters:linearRGB;solid-color:#000000;solid-opacity:1;vector-effect:none;fill:#ffffff;fill-opacity:1;fill-rule:nonzero;stroke:none;stroke-width:0.264583;stroke-linecap:butt;stroke-linejoin:miter;stroke-miterlimit:4;stroke-dasharray:none;stroke-dashoffset:0;stroke-opacity:1;color-rendering:auto;image-rendering:auto;shape-rendering:auto;text-rendering:auto;enable-background:accumulate;stop-color:#000000;stop-opacity:1"
             d="m 51.390578,181.57393 c -2.053161,0 -1.968494,1.96849 -1.968494,3.63007 0,1.21708 -0.1905,3.61949 1.968494,3.61949 2.158993,0 1.968493,-2.48707 1.968493,-3.61949 0,-0.79375 0.275166,-3.63007 -1.968493,-3.63007 z m 0,0.66675 c 0.751414,0 1.227662,0.23283 1.227662,2.96332 0,2.62466 -0.412748,2.95274 -1.227662,2.95274 -0.719665,0 -1.227663,-0.17991 -1.227663,-2.95274 0,-1.40758 -0.105833,-2.96332 1.227663,-2.96332 z"
             id="path1651" />
          <path
             style="color:#000000;font-style:normal;font-variant:normal;font-weight:normal;font-stretch:normal;font-size:medium;line-height:1.25;font-family:'Orator Std';-inkscape-font-specification:'Orator Std';font-variant-ligatures:normal;font-variant-position:normal;font-variant-caps:normal;font-variant-numeric:normal;font-variant-alternates:normal;font-variant-east-asian:normal;font-feature-settings:normal;font-variation-settings:normal;text-indent:0;text-align:start;text-decoration:none;text-decoration-line:none;text-decoration-style:solid;text-decoration-color:#000000;letter-spacing:normal;word-spacing:normal;text-transform:none;writing-mode:lr-tb;direction:ltr;text-orientation:mixed;dominant-baseline:auto;baseline-shift:baseline;text-anchor:start;white-space:normal;shape-padding:0;shape-margin:0;inline-size:0;clip-rule:nonzero;display:inline;overflow:visible;visibility:visible;isolation:auto;mix-blend-mode:normal;color-interpolation:sRGB;color-interpolation-filters:linearRGB;solid-color:#000000;solid-opacity:1;vector-effect:none;fill-opacity:1;fill-rule:nonzero;stroke:none;stroke-width:0.264583;stroke-linecap:butt;stroke-linejoin:miter;stroke-miterlimit:4;stroke-dasharray:none;stroke-dashoffset:0;stroke-opacity:1;color-rendering:auto;image-rendering:auto;shape-rendering:auto;text-rendering:auto;enable-background:accumulate;stop-color:#000000;stop-opacity:1;fill:#ffffff"
             d="m 51.390625,181.44141 c -0.53443,0 -0.947117,0.12937 -1.253906,0.35937 -0.30679,0.23 -0.501367,0.5564 -0.625,0.92383 -0.247268,0.73485 -0.222657,1.64997 -0.222657,2.47851 0,0.60164 -0.05022,1.51942 0.181641,2.30469 0.115928,0.39264 0.304312,0.75573 0.615235,1.02149 0.310922,0.26576 0.740404,0.42578 1.304687,0.42578 0.565147,0 0.994118,-0.16485 1.304687,-0.4375 0.31057,-0.27265 0.499479,-0.6454 0.615235,-1.04297 0.231512,-0.79513 0.181641,-1.71269 0.181641,-2.27149 0,-0.38158 0.07115,-1.30596 -0.148438,-2.14453 -0.109796,-0.41928 -0.29369,-0.82362 -0.607422,-1.125 -0.313732,-0.30137 -0.756916,-0.49218 -1.345703,-0.49218 z m 0,0.26562 c 0.533042,0 0.896406,0.16273 1.162109,0.41797 0.265704,0.25524 0.433287,0.61099 0.535157,1 0.203739,0.77803 0.138671,1.66596 0.138671,2.07812 0,0.57363 0.04306,1.46772 -0.169921,2.19922 -0.106494,0.36576 -0.274229,0.68695 -0.535157,0.91602 -0.260928,0.22907 -0.61651,0.37305 -1.130859,0.37305 -0.515214,0 -0.872236,-0.14056 -1.132813,-0.36329 -0.260576,-0.22272 -0.428834,-0.53443 -0.535156,-0.89453 -0.212642,-0.7202 -0.167969,-1.61502 -0.167968,-2.23047 0,-0.83303 -0.01666,-1.72974 0.207031,-2.39453 0.111844,-0.33239 0.280369,-0.6039 0.535156,-0.79492 0.254787,-0.19101 0.601599,-0.30664 1.09375,-0.30664 z m 0,0.40039 c -0.359097,0 -0.642783,0.11096 -0.845703,0.30274 -0.20292,0.19177 -0.322643,0.4545 -0.396484,0.75195 -0.147683,0.59491 -0.117188,1.34054 -0.117188,2.04101 0,1.3945 0.118866,2.14795 0.359375,2.58204 0.120254,0.21704 0.27973,0.35095 0.455078,0.42187 0.175348,0.0709 0.359494,0.082 0.544922,0.082 0.212605,0 0.411533,-0.0211 0.591797,-0.10547 0.180263,-0.0844 0.332557,-0.23347 0.445312,-0.45898 0.22551,-0.45102 0.322266,-1.20222 0.322266,-2.52149 0,-1.37293 -0.112358,-2.12503 -0.347656,-2.5664 -0.11765,-0.22068 -0.274141,-0.3635 -0.451172,-0.43945 -0.177031,-0.076 -0.365862,-0.0899 -0.560547,-0.0899 z m 0,0.26563 c 0.181022,0 0.33343,0.0153 0.457031,0.0684 0.123601,0.053 0.226926,0.13952 0.322266,0.31836 0.190679,0.35767 0.316406,1.0858 0.316406,2.44335 0,1.3054 -0.110329,2.03316 -0.294922,2.40235 -0.0923,0.18459 -0.195944,0.2807 -0.322265,0.33984 -0.126322,0.0591 -0.283664,0.0801 -0.478516,0.0801 -0.174404,0 -0.323005,-0.013 -0.445313,-0.0625 -0.122307,-0.0495 -0.225562,-0.1321 -0.322265,-0.30664 -0.193407,-0.34907 -0.328125,-1.07479 -0.328125,-2.45313 0,-0.7071 -0.0234,-1.4417 0.109375,-1.97656 0.06639,-0.26743 0.169984,-0.48108 0.322265,-0.625 0.152282,-0.14391 0.356412,-0.22851 0.664063,-0.22851 z"
             id="path1653" />
        </g>
      </g>
      <g
         style="font-style:normal;font-variant:normal;font-weight:normal;font-stretch:normal;font-size:10.5833px;line-height:1.25;font-family:'Orator Std';-inkscape-font-specification:'Orator Std';stroke-width:0.264583;fill:#ffffff;fill-opacity:1"
         id="text1483-1"
         aria-label="0"
         transform="rotate(45,64.800498,116.26177)">
        <g
           id="g1655"
           style="opacity:1;fill:#ffffff;fill-opacity:1">
          <path
             style="color:#000000;font-style:normal;font-variant:normal;font-weight:normal;font-stretch:normal;font-size:medium;line-height:1.25;font-family:'Orator Std';-inkscape-font-specification:'Orator Std';font-variant-ligatures:normal;font-variant-position:normal;font-variant-caps:normal;font-variant-numeric:normal;font-variant-alternates:normal;font-variant-east-asian:normal;font-feature-settings:normal;font-variation-settings:normal;text-indent:0;text-align:start;text-decoration:none;text-decoration-line:none;text-decoration-style:solid;text-decoration-color:#000000;letter-spacing:normal;word-spacing:normal;text-transform:none;writing-mode:lr-tb;direction:ltr;text-orientation:mixed;dominant-baseline:auto;baseline-shift:baseline;text-anchor:start;white-space:normal;shape-padding:0;shape-margin:0;inline-size:0;clip-rule:nonzero;display:inline;overflow:visible;visibility:visible;isolation:auto;mix-blend-mode:normal;color-interpolation:sRGB;color-interpolation-filters:linearRGB;solid-color:#000000;solid-opacity:1;vector-effect:none;fill:#ffffff;fill-opacity:1;fill-rule:nonzero;stroke:none;stroke-width:0.264583;stroke-linecap:butt;stroke-linejoin:miter;stroke-miterlimit:4;stroke-dasharray:none;stroke-dashoffset:0;stroke-opacity:1;color-rendering:auto;image-rendering:auto;shape-rendering:auto;text-rendering:auto;enable-background:accumulate;stop-color:#000000;stop-opacity:1"
             d="m 51.390578,181.57393 c -2.053161,0 -1.968494,1.96849 -1.968494,3.63007 0,1.21708 -0.1905,3.61949 1.968494,3.61949 2.158993,0 1.968493,-2.48707 1.968493,-3.61949 0,-0.79375 0.275166,-3.63007 -1.968493,-3.63007 z m 0,0.66675 c 0.751414,0 1.227662,0.23283 1.227662,2.96332 0,2.62466 -0.412748,2.95274 -1.227662,2.95274 -0.719665,0 -1.227663,-0.17991 -1.227663,-2.95274 0,-1.40758 -0.105833,-2.96332 1.227663,-2.96332 z"
             id="path1657" />
          <path
             style="color:#000000;font-style:normal;font-variant:normal;font-weight:normal;font-stretch:normal;font-size:medium;line-height:1.25;font-family:'Orator Std';-inkscape-font-specification:'Orator Std';font-variant-ligatures:normal;font-variant-position:normal;font-variant-caps:normal;font-variant-numeric:normal;font-variant-alternates:normal;font-variant-east-asian:normal;font-feature-settings:normal;font-variation-settings:normal;text-indent:0;text-align:start;text-decoration:none;text-decoration-line:none;text-decoration-style:solid;text-decoration-color:#000000;letter-spacing:normal;word-spacing:normal;text-transform:none;writing-mode:lr-tb;direction:ltr;text-orientation:mixed;dominant-baseline:auto;baseline-shift:baseline;text-anchor:start;white-space:normal;shape-padding:0;shape-margin:0;inline-size:0;clip-rule:nonzero;display:inline;overflow:visible;visibility:visible;isolation:auto;mix-blend-mode:normal;color-interpolation:sRGB;color-interpolation-filters:linearRGB;solid-color:#000000;solid-opacity:1;vector-effect:none;fill-opacity:1;fill-rule:nonzero;stroke:none;stroke-width:0.264583;stroke-linecap:butt;stroke-linejoin:miter;stroke-miterlimit:4;stroke-dasharray:none;stroke-dashoffset:0;stroke-opacity:1;color-rendering:auto;image-rendering:auto;shape-rendering:auto;text-rendering:auto;enable-background:accumulate;stop-color:#000000;stop-opacity:1;fill:#ffffff"
             d="m 51.390625,181.44141 c -0.53443,0 -0.947117,0.12937 -1.253906,0.35937 -0.30679,0.23 -0.501367,0.5564 -0.625,0.92383 -0.247268,0.73485 -0.222657,1.64997 -0.222657,2.47851 0,0.60164 -0.05022,1.51942 0.181641,2.30469 0.115928,0.39264 0.304312,0.75573 0.615235,1.02149 0.310922,0.26576 0.740404,0.42578 1.304687,0.42578 0.565147,0 0.994118,-0.16485 1.304687,-0.4375 0.31057,-0.27265 0.499479,-0.6454 0.615235,-1.04297 0.231512,-0.79513 0.181641,-1.71269 0.181641,-2.27149 0,-0.38158 0.07115,-1.30596 -0.148438,-2.14453 -0.109796,-0.41928 -0.29369,-0.82362 -0.607422,-1.125 -0.313732,-0.30137 -0.756916,-0.49218 -1.345703,-0.49218 z m 0,0.26562 c 0.533042,0 0.896406,0.16273 1.162109,0.41797 0.265704,0.25524 0.433287,0.61099 0.535157,1 0.203739,0.77803 0.138671,1.66596 0.138671,2.07812 0,0.57363 0.04306,1.46772 -0.169921,2.19922 -0.106494,0.36576 -0.274229,0.68695 -0.535157,0.91602 -0.260928,0.22907 -0.61651,0.37305 -1.130859,0.37305 -0.515214,0 -0.872236,-0.14056 -1.132813,-0.36329 -0.260576,-0.22272 -0.428834,-0.53443 -0.535156,-0.89453 -0.212642,-0.7202 -0.167969,-1.61502 -0.167968,-2.23047 0,-0.83303 -0.01666,-1.72974 0.207031,-2.39453 0.111844,-0.33239 0.280369,-0.6039 0.535156,-0.79492 0.254787,-0.19101 0.601599,-0.30664 1.09375,-0.30664 z m 0,0.40039 c -0.359097,0 -0.642783,0.11096 -0.845703,0.30274 -0.20292,0.19177 -0.322643,0.4545 -0.396484,0.75195 -0.147683,0.59491 -0.117188,1.34054 -0.117188,2.04101 0,1.3945 0.118866,2.14795 0.359375,2.58204 0.120254,0.21704 0.27973,0.35095 0.455078,0.42187 0.175348,0.0709 0.359494,0.082 0.544922,0.082 0.212605,0 0.411533,-0.0211 0.591797,-0.10547 0.180263,-0.0844 0.332557,-0.23347 0.445312,-0.45898 0.22551,-0.45102 0.322266,-1.20222 0.322266,-2.52149 0,-1.37293 -0.112358,-2.12503 -0.347656,-2.5664 -0.11765,-0.22068 -0.274141,-0.3635 -0.451172,-0.43945 -0.177031,-0.076 -0.365862,-0.0899 -0.560547,-0.0899 z m 0,0.26563 c 0.181022,0 0.33343,0.0153 0.457031,0.0684 0.123601,0.053 0.226926,0.13952 0.322266,0.31836 0.190679,0.35767 0.316406,1.0858 0.316406,2.44335 0,1.3054 -0.110329,2.03316 -0.294922,2.40235 -0.0923,0.18459 -0.195944,0.2807 -0.322265,0.33984 -0.126322,0.0591 -0.283664,0.0801 -0.478516,0.0801 -0.174404,0 -0.323005,-0.013 -0.445313,-0.0625 -0.122307,-0.0495 -0.225562,-0.1321 -0.322265,-0.30664 -0.193407,-0.34907 -0.328125,-1.07479 -0.328125,-2.45313 0,-0.7071 -0.0234,-1.4417 0.109375,-1.97656 0.06639,-0.26743 0.169984,-0.48108 0.322265,-0.625 0.152282,-0.14391 0.356412,-0.22851 0.664063,-0.22851 z"
             id="path1659" />
        </g>
      </g>
      <path
         style="fill:#ffffff;stroke:#ffffff;stroke-width:0.965;stroke-linecap:round;stroke-linejoin:miter;stroke-miterlimit:4;stroke-dasharray:none;stroke-opacity:1;fill-opacity:1"
         d="m 12.230123,149.8376 -5.8966344,5.89664"
         id="path1525" />
    </g>
  </g>
</svg>
