<?xml version="1.0" encoding="UTF-8" standalone="no"?>
<!-- Created with Inkscape (http://www.inkscape.org/) -->

<svg
   xmlns:dc="http://purl.org/dc/elements/1.1/"
   xmlns:cc="http://creativecommons.org/ns#"
   xmlns:rdf="http://www.w3.org/1999/02/22-rdf-syntax-ns#"
   xmlns:svg="http://www.w3.org/2000/svg"
   xmlns="http://www.w3.org/2000/svg"
   xmlns:sodipodi="http://sodipodi.sourceforge.net/DTD/sodipodi-0.dtd"
   xmlns:inkscape="http://www.inkscape.org/namespaces/inkscape"
   width="210mm"
   height="297mm"
   viewBox="0 0 210 297"
   version="1.1"
   id="svg8"
   inkscape:version="0.92.4 (5da689c313, 2019-01-14)"
   sodipodi:docname="Spiral.svg">
  <defs
     id="defs2" />
  <sodipodi:namedview
     id="base"
     pagecolor="#000000"
     bordercolor="#666666"
     borderopacity="1.0"
     inkscape:pageopacity="0"
     inkscape:pageshadow="2"
     inkscape:zoom="0.98994949"
     inkscape:cx="152.55723"
     inkscape:cy="966.47336"
     inkscape:document-units="mm"
     inkscape:current-layer="layer1"
     showgrid="false"
     inkscape:window-width="1920"
     inkscape:window-height="1017"
     inkscape:window-x="-8"
     inkscape:window-y="-8"
     inkscape:window-maximized="1" />
  <metadata
     id="metadata5">
    <rdf:RDF>
      <cc:Work
         rdf:about="">
        <dc:format>image/svg+xml</dc:format>
        <dc:type
           rdf:resource="http://purl.org/dc/dcmitype/StillImage" />
        <dc:title></dc:title>
      </cc:Work>
    </rdf:RDF>
  </metadata>
  <g
     inkscape:label="Layer 1"
     inkscape:groupmode="layer"
     id="layer1">
    <path
       sodipodi:type="spiral"
       style="fill:none;fill-rule:evenodd;stroke:#ffffff;stroke-width:1.165;stroke-opacity:1;stroke-miterlimit:4;stroke-dasharray:none"
       id="path815"
       sodipodi:cx="14.432554"
       sodipodi:cy="15.832456"
       sodipodi:expansion="1"
       sodipodi:revolution="3"
       sodipodi:radius="11.943689"
       sodipodi:argument="-18.143356"
       sodipodi:t0="0"
       d="m 14.432554,15.832456 c 0.455616,0.388613 -0.299059,0.805889 -0.645902,0.757263 -0.939922,-0.131773 -1.182298,-1.303065 -0.868624,-2.049067 0.561089,-1.334422 2.270371,-1.621189 3.452232,-0.979986 1.734427,0.94099 2.071816,3.250341 1.091348,4.855397 -1.30681,2.139286 -4.234747,2.527369 -6.258563,1.202709 -2.5467655,-1.666948 -2.9854539,-5.22125 -1.314071,-7.661727 2.024269,-2.9557449 6.208934,-3.4450025 9.064893,-1.425433 3.365649,2.379993 3.905469,7.197352 1.536794,10.468058 -2.734728,3.776159 -8.18626,4.366548 -11.8712227,1.648156 C 4.4323495,19.559016 3.7913821,13.472313 6.8599205,9.3734379 10.302357,4.7751201 17.024939,4.0835625 21.537474,7.5025586 26.547243,11.298292 27.289401,18.657271 23.519715,23.583277" />
  </g>
</svg>
